font.ufo
<glyph name="exclam" format="2">
	<unicode hex="0021"/>
	<advance width="311"/>
	<outline>
		<contour>
			<point x="125" y="216" type="line"/>
			<point x="189" y="216" type="line"/>
			<point x="309" y="486"/>
			<point x="332" y="550"/>
			<point x="332" y="598" type="curve" smooth="yes"/>
			<point x="332" y="644"/>
			<point x="298" y="672"/>
			<point x="249" y="672" type="curve" smooth="yes"/>
			<point x="200" y="672"/>
			<point x="172" y="643"/>
			<point x="158" y="601" type="curve" smooth="yes"/>
			<point x="144" y="558"/>
			<point x="135" y="484"/>
			<point x="131" y="350" type="curve" smooth="yes"/>
		</contour>
		<contour>
			<point x="53" y="60" type="curve" smooth="yes"/>
			<point x="53" y="18"/>
			<point x="82" y="-12"/>
			<point x="130" y="-12" type="curve" smooth="yes"/>
			<point x="187" y="-12"/>
			<point x="227" y="30"/>
			<point x="227" y="87" type="curve" smooth="yes"/>
			<point x="227" y="129"/>
			<point x="198" y="160"/>
			<point x="149" y="160" type="curve" smooth="yes"/>
			<point x="93" y="160"/>
			<point x="53" y="117"/>
		</contour>
	</outline>
</glyph>
<glyph name="dollar" format="2">
	<unicode hex="0024"/>
	<advance width="582"/>
	<outline>
		<contour>
			<point x="267" y="-12" type="curve" smooth="yes"/>
			<point x="403" y="-12"/>
			<point x="510" y="56"/>
			<point x="510" y="182" type="curve" smooth="yes"/>
			<point x="510" y="279"/>
			<point x="443" y="323"/>
			<point x="339" y="378" type="curve" smooth="yes"/>
			<point x="328" y="384" type="line" smooth="yes"/>
			<point x="263" y="418"/>
			<point x="240" y="448"/>
			<point x="240" y="494" type="curve" smooth="yes"/>
			<point x="240" y="545"/>
			<point x="276" y="585"/>
			<point x="357" y="585" type="curve" smooth="yes"/>
			<point x="413" y="585"/>
			<point x="445" y="577"/>
			<point x="463" y="567" type="curve"/>
			<point x="413" y="611" type="line"/>
			<point x="429" y="521" type="line" smooth="yes"/>
			<point x="437" y="480"/>
			<point x="455" y="463"/>
			<point x="490" y="463" type="curve" smooth="yes"/>
			<point x="524" y="463"/>
			<point x="545" y="485"/>
			<point x="549" y="525" type="curve"/>
			<point x="533" y="589"/>
			<point x="465" y="646"/>
			<point x="341" y="646" type="curve" smooth="yes"/>
			<point x="217" y="646"/>
			<point x="109" y="581"/>
			<point x="109" y="459" type="curve" smooth="yes"/>
			<point x="109" y="362"/>
			<point x="173" y="318"/>
			<point x="277" y="263" type="curve" smooth="yes"/>
			<point x="287" y="258" type="line" smooth="yes"/>
			<point x="353" y="223"/>
			<point x="376" y="190"/>
			<point x="376" y="145" type="curve" smooth="yes"/>
			<point x="376" y="91"/>
			<point x="338" y="49"/>
			<point x="251" y="49" type="curve" smooth="yes"/>
			<point x="195" y="49"/>
			<point x="161" y="57"/>
			<point x="142" y="67" type="curve"/>
			<point x="196" y="24" type="line"/>
			<point x="177" y="129" type="line" smooth="yes"/>
			<point x="169" y="169"/>
			<point x="151" y="186"/>
			<point x="116" y="186" type="curve" smooth="yes"/>
			<point x="81" y="186"/>
			<point x="61" y="165"/>
			<point x="57" y="125" type="curve"/>
			<point x="73" y="51"/>
			<point x="138" y="-12"/>
		</contour>
		<contour>
			<point x="197" y="-116" type="line"/>
			<point x="254" y="-116" type="line"/>
			<point x="322" y="313" type="line"/>
			<point x="271" y="313" type="line"/>
		</contour>
		<contour>
			<point x="289" y="321" type="line"/>
			<point x="340" y="321" type="line"/>
			<point x="413" y="750" type="line"/>
			<point x="357" y="750" type="line"/>
		</contour>
	</outline>
</glyph>
<glyph name="ampersand" format="2">
	<unicode hex="0026"/>
	<advance width="786"/>
	<outline>
		<contour>
			<point x="341" y="-16" type="curve" smooth="yes"/>
			<point x="525" y="-16"/>
			<point x="605" y="88"/>
			<point x="605" y="180" type="curve" smooth="yes"/>
			<point x="605" y="244"/>
			<point x="566" y="275"/>
			<point x="504" y="289" type="curve"/>
			<point x="504" y="299" type="line"/>
			<point x="637" y="317"/>
			<point x="728" y="373"/>
			<point x="783" y="474" type="curve"/>
			<point x="682" y="521" type="line"/>
			<point x="646" y="411"/>
			<point x="582" y="346"/>
			<point x="473" y="329" type="curve"/>
			<point x="462" y="271" type="line"/>
			<point x="517" y="261"/>
			<point x="535" y="234"/>
			<point x="535" y="197" type="curve" smooth="yes"/>
			<point x="535" y="145"/>
			<point x="489" y="85"/>
			<point x="385" y="85" type="curve" smooth="yes"/>
			<point x="280" y="85"/>
			<point x="208" y="142"/>
			<point x="208" y="242" type="curve" smooth="yes"/>
			<point x="208" y="323"/>
			<point x="248" y="382"/>
			<point x="330" y="402" type="curve"/>
			<point x="318" y="418"/>
			<point x="308" y="445"/>
			<point x="308" y="484" type="curve" smooth="yes"/>
			<point x="308" y="571"/>
			<point x="365" y="629"/>
			<point x="451" y="629" type="curve" smooth="yes"/>
			<point x="477" y="629"/>
			<point x="495" y="625"/>
			<point x="511" y="621" type="curve"/>
			<point x="440" y="655" type="line"/>
			<point x="463" y="578" type="line" smooth="yes"/>
			<point x="475" y="537"/>
			<point x="498" y="522"/>
			<point x="529" y="522" type="curve" smooth="yes"/>
			<point x="559" y="522"/>
			<point x="581" y="542"/>
			<point x="589" y="574" type="curve"/>
			<point x="573" y="627"/>
			<point x="517" y="673"/>
			<point x="406" y="673" type="curve" smooth="yes"/>
			<point x="279" y="673"/>
			<point x="196" y="603"/>
			<point x="196" y="503" type="curve" smooth="yes"/>
			<point x="196" y="401"/>
			<point x="288" y="335"/>
			<point x="370" y="335" type="curve" smooth="yes"/>
			<point x="418" y="335"/>
			<point x="440" y="357"/>
			<point x="440" y="383" type="curve" smooth="yes"/>
			<point x="440" y="411"/>
			<point x="416" y="430"/>
			<point x="339" y="430" type="curve" smooth="yes"/>
			<point x="171" y="430"/>
			<point x="60" y="335"/>
			<point x="60" y="203" type="curve" smooth="yes"/>
			<point x="60" y="71"/>
			<point x="167" y="-16"/>
		</contour>
	</outline>
</glyph>
<glyph name="quotesingle" format="2">
	<unicode hex="0027"/>
	<advance width="279"/>
	<outline>
		<contour>
			<point x="222" y="733" type="curve" smooth="yes"/>
			<point x="174" y="733"/>
			<point x="151" y="699"/>
			<point x="142" y="667" type="curve" smooth="yes"/>
			<point x="132" y="634"/>
			<point x="127" y="567"/>
			<point x="126" y="482" type="curve" smooth="yes"/>
			<point x="123" y="395" type="line"/>
			<point x="191" y="395" type="line"/>
			<point x="248" y="515"/>
			<point x="296" y="614"/>
			<point x="296" y="667" type="curve" smooth="yes"/>
			<point x="296" y="705"/>
			<point x="269" y="733"/>
		</contour>
	</outline>
</glyph>
<glyph name="asterisk" format="2">
	<unicode hex="002A"/>
	<advance width="470"/>
	<outline>
		<contour>
			<point x="215" y="683" type="curve" smooth="yes"/>
			<point x="215" y="644"/>
			<point x="239" y="606"/>
			<point x="295" y="531" type="curve"/>
			<point x="302" y="532" type="line"/>
			<point x="331" y="638"/>
			<point x="330" y="670"/>
			<point x="326" y="694" type="curve" smooth="yes"/>
			<point x="322" y="719"/>
			<point x="301" y="738"/>
			<point x="270" y="738" type="curve" smooth="yes"/>
			<point x="239" y="738"/>
			<point x="215" y="715"/>
		</contour>
		<contour>
			<point x="74" y="537" type="curve" smooth="yes"/>
			<point x="74" y="487"/>
			<point x="136" y="470"/>
			<point x="284" y="514" type="curve"/>
			<point x="285" y="521" type="line"/>
			<point x="193" y="577"/>
			<point x="165" y="589"/>
			<point x="132" y="589" type="curve" smooth="yes"/>
			<point x="98" y="589"/>
			<point x="74" y="569"/>
		</contour>
		<contour>
			<point x="165" y="357" type="curve" smooth="yes"/>
			<point x="165" y="327"/>
			<point x="186" y="310"/>
			<point x="215" y="310" type="curve" smooth="yes"/>
			<point x="274" y="310"/>
			<point x="283" y="370"/>
			<point x="296" y="496" type="curve"/>
			<point x="289" y="500" type="line"/>
			<point x="187" y="421"/>
			<point x="165" y="390"/>
		</contour>
		<contour>
			<point x="310" y="498" type="line"/>
			<point x="362" y="366"/>
			<point x="385" y="339"/>
			<point x="430" y="341" type="curve" smooth="yes"/>
			<point x="460" y="342"/>
			<point x="481" y="364"/>
			<point x="480" y="393" type="curve" smooth="yes"/>
			<point x="478" y="441"/>
			<point x="434" y="462"/>
			<point x="315" y="503" type="curve"/>
		</contour>
		<contour>
			<point x="455" y="645" type="curve" smooth="yes"/>
			<point x="408" y="645"/>
			<point x="376" y="602"/>
			<point x="314" y="523" type="curve"/>
			<point x="317" y="517" type="line"/>
			<point x="468" y="529"/>
			<point x="507" y="555"/>
			<point x="507" y="600" type="curve" smooth="yes"/>
			<point x="507" y="628"/>
			<point x="486" y="645"/>
		</contour>
	</outline>
</glyph>
<glyph name="hyphen" format="2">
	<unicode hex="002D"/>
	<unicode hex="00AD"/>
	<unicode hex="2010"/>
	<advance width="346"/>
	<outline>
		<contour>
			<point x="45" y="221" type="line"/>
			<point x="306" y="221" type="line"/>
			<point x="306" y="329" type="line"/>
			<point x="45" y="329" type="line"/>
		</contour>
	</outline>
</glyph>
<glyph name="question" format="2">
	<unicode hex="003F"/>
	<advance width="458"/>
	<outline>
		<contour>
			<point x="120" y="205" type="curve"/>
			<point x="176" y="205" type="line"/>
			<point x="185" y="249"/>
			<point x="205" y="269"/>
			<point x="275" y="301" type="curve" smooth="yes"/>
			<point x="294" y="310"/>
			<point x="312" y="319"/>
			<point x="331" y="327" type="curve" smooth="yes"/>
			<point x="438" y="376"/>
			<point x="486" y="432"/>
			<point x="486" y="522" type="curve" smooth="yes"/>
			<point x="486" y="611"/>
			<point x="413" y="673"/>
			<point x="305" y="673" type="curve" smooth="yes"/>
			<point x="206" y="673"/>
			<point x="139" y="625"/>
			<point x="117" y="557" type="curve"/>
			<point x="125" y="525"/>
			<point x="146" y="503"/>
			<point x="185" y="503" type="curve" smooth="yes"/>
			<point x="224" y="503"/>
			<point x="249" y="523"/>
			<point x="261" y="565" type="curve" smooth="yes"/>
			<point x="288" y="654" type="line"/>
			<point x="217" y="621" type="line"/>
			<point x="233" y="625"/>
			<point x="257" y="629"/>
			<point x="289" y="629" type="curve" smooth="yes"/>
			<point x="362" y="629"/>
			<point x="393" y="599"/>
			<point x="393" y="553" type="curve" smooth="yes"/>
			<point x="393" y="506"/>
			<point x="365" y="477"/>
			<point x="295" y="443" type="curve" smooth="yes"/>
			<point x="276" y="434"/>
			<point x="258" y="425"/>
			<point x="239" y="417" type="curve" smooth="yes"/>
			<point x="158" y="378"/>
			<point x="125" y="332"/>
		</contour>
		<contour>
			<point x="50" y="63" type="curve" smooth="yes"/>
			<point x="50" y="21"/>
			<point x="79" y="-12"/>
			<point x="129" y="-12" type="curve" smooth="yes"/>
			<point x="184" y="-12"/>
			<point x="224" y="30"/>
			<point x="224" y="84" type="curve" smooth="yes"/>
			<point x="224" y="126"/>
			<point x="195" y="160"/>
			<point x="145" y="160" type="curve" smooth="yes"/>
			<point x="90" y="160"/>
			<point x="50" y="117"/>
		</contour>
	</outline>
</glyph>
<glyph name="at" format="2">
	<unicode hex="0040"/>
	<advance width="932"/>
	<outline>
		<contour>
			<point x="347" y="35" type="curve" smooth="yes"/>
			<point x="409" y="35"/>
			<point x="445" y="73"/>
			<point x="470" y="123" type="curve"/>
			<point x="520" y="123" type="line"/>
			<point x="520" y="186" type="line"/>
			<point x="492" y="159"/>
			<point x="468" y="141"/>
			<point x="432" y="141" type="curve" smooth="yes"/>
			<point x="398" y="141"/>
			<point x="374" y="165"/>
			<point x="374" y="220" type="curve" smooth="yes"/>
			<point x="374" y="320"/>
			<point x="433" y="425"/>
			<point x="522" y="425" type="curve" smooth="yes"/>
			<point x="564" y="425"/>
			<point x="593" y="415"/>
			<point x="614" y="405" type="curve"/>
			<point x="614" y="451" type="line"/>
			<point x="595" y="476"/>
			<point x="572" y="497"/>
			<point x="525" y="497" type="curve" smooth="yes"/>
			<point x="394" y="497"/>
			<point x="233" y="353"/>
			<point x="233" y="175" type="curve" smooth="yes"/>
			<point x="233" y="86"/>
			<point x="279" y="35"/>
		</contour>
		<contour>
			<point x="618" y="35" type="curve" smooth="yes"/>
			<point x="767" y="35"/>
			<point x="883" y="169"/>
			<point x="883" y="354" type="curve" smooth="yes"/>
			<point x="883" y="532"/>
			<point x="761" y="654"/>
			<point x="555" y="654" type="curve" smooth="yes"/>
			<point x="256" y="654"/>
			<point x="52" y="421"/>
			<point x="52" y="158" type="curve" smooth="yes"/>
			<point x="52" y="-20"/>
			<point x="184" y="-159"/>
			<point x="401" y="-159" type="curve" smooth="yes"/>
			<point x="487" y="-159"/>
			<point x="553" y="-139"/>
			<point x="599" y="-119" type="curve"/>
			<point x="584" y="-65" type="line"/>
			<point x="548" y="-81"/>
			<point x="487" y="-94"/>
			<point x="420" y="-94" type="curve" smooth="yes"/>
			<point x="244" y="-94"/>
			<point x="142" y="12"/>
			<point x="142" y="178" type="curve" smooth="yes"/>
			<point x="142" y="389"/>
			<point x="307" y="592"/>
			<point x="548" y="592" type="curve" smooth="yes"/>
			<point x="713" y="592"/>
			<point x="806" y="502"/>
			<point x="806" y="350" type="curve" smooth="yes"/>
			<point x="806" y="218"/>
			<point x="729" y="117"/>
			<point x="671" y="117" type="curve" smooth="yes"/>
			<point x="634" y="117"/>
			<point x="624" y="140"/>
			<point x="638" y="202" type="curve" smooth="yes"/>
			<point x="702" y="490" type="line"/>
			<point x="656" y="490" type="line"/>
			<point x="551" y="430" type="line"/>
			<point x="501" y="202" type="line" smooth="yes"/>
			<point x="476" y="89"/>
			<point x="523" y="35"/>
		</contour>
	</outline>
</glyph>
<glyph name="B" format="2">
	<unicode hex="0042"/>
	<advance width="682"/>
	<outline>
		<contour>
			<point x="7" y="0" type="line"/>
			<point x="157" y="0" type="line"/>
			<point x="157" y="71" type="line"/>
			<point x="141" y="71" type="line"/>
			<point x="20" y="71" type="line"/>
		</contour>
		<contour>
			<point x="87" y="0" type="line"/>
			<point x="254" y="0" type="line"/>
			<point x="272" y="98"/>
			<point x="290" y="194"/>
			<point x="308" y="292" type="curve" smooth="yes"/>
			<point x="374" y="657" type="line"/>
			<point x="207" y="657" type="line"/>
			<point x="189" y="560"/>
			<point x="171" y="463"/>
			<point x="154" y="366" type="curve" smooth="yes"/>
		</contour>
		<contour>
			<point x="109" y="586" type="line"/>
			<point x="235" y="586" type="line"/>
			<point x="251" y="586" type="line"/>
			<point x="251" y="657" type="line"/>
			<point x="121" y="657" type="line"/>
		</contour>
		<contour>
			<point x="193" y="0" type="line"/>
			<point x="329" y="0" type="line" smooth="yes"/>
			<point x="550" y="0"/>
			<point x="638" y="93"/>
			<point x="638" y="198" type="curve" smooth="yes"/>
			<point x="638" y="295"/>
			<point x="551" y="334"/>
			<point x="417" y="334" type="curve"/>
			<point x="417" y="357" type="line"/>
			<point x="558" y="363"/>
			<point x="648" y="413"/>
			<point x="648" y="515" type="curve" smooth="yes"/>
			<point x="648" y="602"/>
			<point x="568" y="657"/>
			<point x="407" y="657" type="curve" smooth="yes"/>
			<point x="306" y="657" type="line"/>
			<point x="306" y="589" type="line"/>
			<point x="393" y="589" type="line" smooth="yes"/>
			<point x="460" y="589"/>
			<point x="494" y="555"/>
			<point x="494" y="494" type="curve" smooth="yes"/>
			<point x="494" y="425"/>
			<point x="446" y="371"/>
			<point x="362" y="371" type="curve" smooth="yes"/>
			<point x="250" y="371" type="line"/>
			<point x="250" y="315" type="line"/>
			<point x="362" y="315" type="line" smooth="yes"/>
			<point x="444" y="315"/>
			<point x="478" y="273"/>
			<point x="478" y="204" type="curve" smooth="yes"/>
			<point x="478" y="127"/>
			<point x="422" y="69"/>
			<point x="323" y="69" type="curve" smooth="yes"/>
			<point x="193" y="69" type="line"/>
		</contour>
	</outline>
	<anchor name="aboveUC" x="372" y="677"/>
	<anchor name="belowLC" x="295" y="-20"/>
</glyph>
<glyph name="F" format="2">
	<unicode hex="0046"/>
	<advance width="644"/>
	<outline>
		<contour>
			<point x="7" y="0" type="line"/>
			<point x="357" y="0" type="line"/>
			<point x="370" y="71" type="line"/>
			<point x="222" y="71" type="line"/>
			<point x="145" y="71" type="line"/>
			<point x="20" y="71" type="line"/>
		</contour>
		<contour>
			<point x="87" y="0" type="line"/>
			<point x="254" y="0" type="line"/>
			<point x="272" y="98"/>
			<point x="290" y="194"/>
			<point x="308" y="292" type="curve" smooth="yes"/>
			<point x="374" y="657" type="line"/>
			<point x="207" y="657" type="line"/>
			<point x="189" y="560"/>
			<point x="171" y="463"/>
			<point x="154" y="366" type="curve" smooth="yes"/>
		</contour>
		<contour>
			<point x="109" y="586" type="line"/>
			<point x="235" y="586" type="line"/>
			<point x="251" y="586" type="line"/>
			<point x="251" y="657" type="line"/>
			<point x="121" y="657" type="line"/>
		</contour>
		<contour>
			<point x="248" y="303" type="line"/>
			<point x="431" y="303" type="line"/>
			<point x="431" y="367" type="line"/>
			<point x="248" y="367" type="line"/>
		</contour>
		<contour>
			<point x="310" y="589" type="line"/>
			<point x="577" y="589" type="line"/>
			<point x="519" y="633" type="line"/>
			<point x="542" y="483" type="line"/>
			<point x="618" y="483" type="line"/>
			<point x="643" y="657" type="line"/>
			<point x="310" y="657" type="line"/>
		</contour>
		<contour>
			<point x="402" y="226" type="line"/>
			<point x="473" y="226" type="line"/>
			<point x="513" y="442" type="line"/>
			<point x="443" y="442" type="line"/>
			<point x="398" y="346" type="line"/>
			<point x="397" y="322" type="line"/>
		</contour>
	</outline>
	<anchor name="aboveUC" x="384" y="677"/>
	<anchor name="belowLC" x="160" y="-20"/>
</glyph>
<glyph name="J" format="2">
	<unicode hex="004A"/>
	<advance width="514"/>
	<outline>
		<contour>
			<point x="2" y="9" type="curve"/>
			<point x="10" y="-16"/>
			<point x="49" y="-54"/>
			<point x="127" y="-54" type="curve" smooth="yes"/>
			<point x="250" y="-54"/>
			<point x="312" y="23"/>
			<point x="350" y="87" type="curve" smooth="yes"/>
			<point x="388" y="151"/>
			<point x="417" y="242"/>
			<point x="443" y="388" type="curve" smooth="yes"/>
			<point x="491" y="657" type="line"/>
			<point x="324" y="657" type="line"/>
			<point x="311" y="583"/>
			<point x="297" y="508"/>
			<point x="284" y="433" type="curve" smooth="yes"/>
			<point x="260" y="303"/>
			<point x="249" y="220"/>
			<point x="238" y="142" type="curve" smooth="yes"/>
			<point x="227" y="64"/>
			<point x="216" y="19"/>
			<point x="198" y="-18" type="curve"/>
			<point x="216" y="-4" type="line"/>
			<point x="156" y="-4" type="line"/>
			<point x="185" y="-20" type="line"/>
			<point x="157" y="51"/>
			<point x="127" y="76"/>
			<point x="77" y="76" type="curve" smooth="yes"/>
			<point x="30" y="76"/>
			<point x="7" y="42"/>
		</contour>
		<contour>
			<point x="215" y="586" type="line"/>
			<point x="356" y="586" type="line"/>
			<point x="433" y="586" type="line"/>
			<point x="558" y="586" type="line"/>
			<point x="571" y="657" type="line"/>
			<point x="228" y="657" type="line"/>
		</contour>
	</outline>
	<anchor name="aboveUC" x="406" y="677"/>
	<anchor name="belowLC" x="201" y="-74"/>
</glyph>
<glyph name="L" format="2">
	<unicode hex="004C"/>
	<advance width="609"/>
	<outline>
		<contour>
			<point x="7" y="0" type="line"/>
			<point x="157" y="0" type="line"/>
			<point x="157" y="71" type="line"/>
			<point x="141" y="71" type="line"/>
			<point x="20" y="71" type="line"/>
		</contour>
		<contour>
			<point x="87" y="0" type="line"/>
			<point x="254" y="0" type="line"/>
			<point x="272" y="98"/>
			<point x="290" y="194"/>
			<point x="308" y="292" type="curve" smooth="yes"/>
			<point x="374" y="657" type="line"/>
			<point x="207" y="657" type="line"/>
			<point x="189" y="560"/>
			<point x="171" y="463"/>
			<point x="154" y="366" type="curve" smooth="yes"/>
		</contour>
		<contour>
			<point x="109" y="586" type="line"/>
			<point x="239" y="586" type="line"/>
			<point x="316" y="586" type="line"/>
			<point x="458" y="586" type="line"/>
			<point x="470" y="657" type="line"/>
			<point x="121" y="657" type="line"/>
		</contour>
		<contour>
			<point x="213" y="0" type="line"/>
			<point x="536" y="0" type="line"/>
			<point x="573" y="201" type="line"/>
			<point x="496" y="201" type="line"/>
			<point x="417" y="27" type="line"/>
			<point x="509" y="69" type="line"/>
			<point x="213" y="69" type="line"/>
		</contour>
	</outline>
	<anchor name="aboveUC" x="284" y="677"/>
	<anchor name="belowLC" x="289" y="-20"/>
</glyph>
<glyph name="M" format="2">
	<unicode hex="004D"/>
	<advance width="937"/>
	<outline>
		<contour>
			<point x="2" y="0" type="line"/>
			<point x="244" y="0" type="line"/>
			<point x="257" y="71" type="line"/>
			<point x="142" y="71" type="line"/>
			<point x="121" y="71" type="line"/>
			<point x="15" y="71" type="line"/>
		</contour>
		<contour>
			<point x="79" y="0" type="line"/>
			<point x="158" y="0" type="line"/>
			<point x="303" y="657" type="line"/>
			<point x="235" y="657" type="line"/>
		</contour>
		<contour>
			<point x="321" y="0" type="line"/>
			<point x="439" y="0" type="line"/>
			<point x="687" y="527" type="line"/>
			<point x="754" y="527" type="line"/>
			<point x="756" y="657" type="line"/>
			<point x="672" y="657" type="line"/>
			<point x="470" y="209" type="line"/>
			<point x="450" y="209" type="line"/>
			<point x="434" y="657" type="line"/>
			<point x="152" y="657" type="line"/>
			<point x="139" y="586" type="line"/>
			<point x="250" y="586" type="line"/>
			<point x="250" y="528" type="line"/>
			<point x="296" y="528" type="line"/>
		</contour>
		<contour>
			<point x="559" y="0" type="line"/>
			<point x="875" y="0" type="line"/>
			<point x="888" y="71" type="line"/>
			<point x="760" y="71" type="line"/>
			<point x="693" y="71" type="line"/>
			<point x="572" y="71" type="line"/>
		</contour>
		<contour>
			<point x="635" y="0" type="line"/>
			<point x="793" y="0" type="line"/>
			<point x="807" y="105"/>
			<point x="821" y="209"/>
			<point x="835" y="314" type="curve" smooth="yes"/>
			<point x="882" y="657" type="line"/>
			<point x="736" y="657" type="line"/>
			<point x="720" y="612" type="line"/>
		</contour>
		<contour>
			<point x="813" y="586" type="line"/>
			<point x="836" y="586" type="line"/>
			<point x="949" y="586" type="line"/>
			<point x="962" y="657" type="line"/>
			<point x="813" y="657" type="line"/>
		</contour>
	</outline>
	<anchor name="aboveUC" x="538" y="677"/>
	<anchor name="belowLC" x="389" y="-20"/>
</glyph>
<glyph name="N" format="2">
	<unicode hex="004E"/>
	<advance width="741"/>
	<outline>
		<contour>
			<point x="3" y="0" type="line"/>
			<point x="259" y="0" type="line"/>
			<point x="271" y="71" type="line"/>
			<point x="145" y="71" type="line"/>
			<point x="125" y="71" type="line"/>
			<point x="16" y="71" type="line"/>
		</contour>
		<contour>
			<point x="83" y="0" type="line"/>
			<point x="162" y="0" type="line"/>
			<point x="273" y="651" type="line"/>
			<point x="204" y="657" type="line"/>
		</contour>
		<contour>
			<point x="534" y="586" type="line"/>
			<point x="655" y="586" type="line"/>
			<point x="674" y="586" type="line"/>
			<point x="783" y="586" type="line"/>
			<point x="796" y="657" type="line"/>
			<point x="547" y="657" type="line"/>
		</contour>
		<contour>
			<point x="595" y="158" type="line"/>
			<point x="530" y="158" type="line"/>
			<point x="416" y="657" type="line"/>
			<point x="121" y="657" type="line"/>
			<point x="109" y="586" type="line"/>
			<point x="301" y="586" type="line"/>
			<point x="272" y="620" type="line"/>
			<point x="425" y="-2" type="line"/>
			<point x="595" y="-2" type="line"/>
			<point x="717" y="657" type="line"/>
			<point x="637" y="657" type="line"/>
			<point x="542" y="93" type="line"/>
		</contour>
	</outline>
	<anchor name="aboveUC" x="442" y="677"/>
	<anchor name="belowLC" x="340" y="-20"/>
</glyph>
<glyph name="P" format="2">
	<unicode hex="0050"/>
	<advance width="681"/>
	<outline>
		<contour>
			<point x="7" y="0" type="line"/>
			<point x="356" y="0" type="line"/>
			<point x="369" y="71" type="line"/>
			<point x="222" y="71" type="line"/>
			<point x="145" y="71" type="line"/>
			<point x="20" y="71" type="line"/>
		</contour>
		<contour>
			<point x="87" y="0" type="line"/>
			<point x="254" y="0" type="line"/>
			<point x="272" y="98"/>
			<point x="290" y="194"/>
			<point x="308" y="292" type="curve" smooth="yes"/>
			<point x="374" y="657" type="line"/>
			<point x="207" y="657" type="line"/>
			<point x="189" y="560"/>
			<point x="171" y="463"/>
			<point x="154" y="366" type="curve" smooth="yes"/>
		</contour>
		<contour>
			<point x="109" y="586" type="line"/>
			<point x="239" y="586" type="line"/>
			<point x="259" y="586" type="line"/>
			<point x="259" y="657" type="line"/>
			<point x="121" y="657" type="line"/>
		</contour>
		<contour>
			<point x="230" y="253" type="line"/>
			<point x="346" y="253" type="line" smooth="yes"/>
			<point x="553" y="253"/>
			<point x="660" y="356"/>
			<point x="660" y="477" type="curve" smooth="yes"/>
			<point x="660" y="591"/>
			<point x="570" y="657"/>
			<point x="396" y="657" type="curve" smooth="yes"/>
			<point x="309" y="657" type="line"/>
			<point x="309" y="589" type="line"/>
			<point x="388" y="589" type="line" smooth="yes"/>
			<point x="461" y="589"/>
			<point x="503" y="554"/>
			<point x="503" y="475" type="curve" smooth="yes"/>
			<point x="503" y="391"/>
			<point x="451" y="315"/>
			<point x="341" y="315" type="curve" smooth="yes"/>
			<point x="230" y="315" type="line"/>
		</contour>
	</outline>
	<anchor name="aboveUC" x="371" y="677"/>
	<anchor name="belowLC" x="159" y="-20"/>
</glyph>
<glyph name="Q" format="2">
	<unicode hex="0051"/>
	<advance width="752"/>
	<outline>
		<contour>
			<point x="496" y="-222" type="curve" smooth="yes"/>
			<point x="586" y="-222"/>
			<point x="644" y="-196"/>
			<point x="682" y="-169" type="curve"/>
			<point x="659" y="-117" type="line"/>
			<point x="634" y="-127"/>
			<point x="599" y="-137"/>
			<point x="555" y="-137" type="curve" smooth="yes"/>
			<point x="457" y="-137"/>
			<point x="394" y="-79"/>
			<point x="405" y="29" type="curve"/>
			<point x="259" y="29" type="line"/>
			<point x="249" y="-139"/>
			<point x="347" y="-222"/>
		</contour>
		<component base="O"/>
	</outline>
	<anchor name="aboveUC" x="448" y="677"/>
</glyph>
<glyph name="R" format="2">
	<unicode hex="0052"/>
	<advance width="725"/>
	<outline>
		<contour>
			<point x="7" y="0" type="line"/>
			<point x="344" y="0" type="line"/>
			<point x="357" y="71" type="line"/>
			<point x="222" y="71" type="line"/>
			<point x="145" y="71" type="line"/>
			<point x="20" y="71" type="line"/>
		</contour>
		<contour>
			<point x="87" y="0" type="line"/>
			<point x="254" y="0" type="line"/>
			<point x="272" y="98"/>
			<point x="290" y="194"/>
			<point x="308" y="292" type="curve" smooth="yes"/>
			<point x="374" y="657" type="line"/>
			<point x="207" y="657" type="line"/>
			<point x="189" y="560"/>
			<point x="171" y="463"/>
			<point x="154" y="366" type="curve" smooth="yes"/>
		</contour>
		<contour>
			<point x="109" y="586" type="line"/>
			<point x="239" y="586" type="line"/>
			<point x="259" y="586" type="line"/>
			<point x="259" y="657" type="line"/>
			<point x="121" y="657" type="line"/>
		</contour>
		<contour>
			<point x="593" y="-11" type="curve" smooth="yes"/>
			<point x="630" y="-11"/>
			<point x="670" y="-4"/>
			<point x="686" y="0" type="curve"/>
			<point x="697" y="65" type="line"/>
			<point x="537" y="79" type="line"/>
			<point x="630" y="36" type="line"/>
			<point x="587" y="196" type="line" smooth="yes"/>
			<point x="563" y="287"/>
			<point x="525" y="313"/>
			<point x="399" y="319" type="curve"/>
			<point x="399" y="341" type="line"/>
			<point x="568" y="343"/>
			<point x="666" y="403"/>
			<point x="666" y="506" type="curve" smooth="yes"/>
			<point x="666" y="606"/>
			<point x="578" y="657"/>
			<point x="413" y="657" type="curve" smooth="yes"/>
			<point x="303" y="657" type="line"/>
			<point x="303" y="589" type="line"/>
			<point x="405" y="589" type="line" smooth="yes"/>
			<point x="477" y="589"/>
			<point x="512" y="555"/>
			<point x="512" y="491" type="curve" smooth="yes"/>
			<point x="512" y="420"/>
			<point x="466" y="360"/>
			<point x="364" y="360" type="curve" smooth="yes"/>
			<point x="250" y="360" type="line"/>
			<point x="250" y="304" type="line"/>
			<point x="337" y="304" type="line" smooth="yes"/>
			<point x="389" y="304"/>
			<point x="405" y="289"/>
			<point x="418" y="215" type="curve" smooth="yes"/>
			<point x="439" y="118" type="line" smooth="yes"/>
			<point x="457" y="17"/>
			<point x="506" y="-11"/>
		</contour>
	</outline>
	<anchor name="aboveUC" x="380" y="677"/>
	<anchor name="belowLC" x="374" y="-20"/>
</glyph>
<glyph name="S" format="2">
	<unicode hex="0053"/>
	<advance width="547"/>
	<outline>
		<contour>
			<point x="31" y="24" type="line"/>
			<point x="68" y="6"/>
			<point x="143" y="-16"/>
			<point x="230" y="-16" type="curve" smooth="yes"/>
			<point x="378" y="-16"/>
			<point x="494" y="54"/>
			<point x="494" y="189" type="curve" smooth="yes"/>
			<point x="494" y="289"/>
			<point x="425" y="343"/>
			<point x="337" y="402" type="curve" smooth="yes"/>
			<point x="269" y="447"/>
			<point x="242" y="473"/>
			<point x="242" y="520" type="curve" smooth="yes"/>
			<point x="242" y="567"/>
			<point x="279" y="605"/>
			<point x="358" y="605" type="curve" smooth="yes"/>
			<point x="411" y="605"/>
			<point x="448" y="594"/>
			<point x="478" y="578" type="curve"/>
			<point x="413" y="632" type="line"/>
			<point x="435" y="482" type="line"/>
			<point x="510" y="482" type="line"/>
			<point x="532" y="633" type="line"/>
			<point x="490" y="657"/>
			<point x="419" y="673"/>
			<point x="346" y="673" type="curve" smooth="yes"/>
			<point x="205" y="673"/>
			<point x="92" y="606"/>
			<point x="92" y="474" type="curve" smooth="yes"/>
			<point x="92" y="374"/>
			<point x="159" y="322"/>
			<point x="247" y="263" type="curve" smooth="yes"/>
			<point x="314" y="218"/>
			<point x="342" y="190"/>
			<point x="342" y="143" type="curve" smooth="yes"/>
			<point x="342" y="92"/>
			<point x="303" y="53"/>
			<point x="227" y="53" type="curve" smooth="yes"/>
			<point x="171" y="53"/>
			<point x="125" y="63"/>
			<point x="88" y="80" type="curve"/>
			<point x="153" y="26" type="line"/>
			<point x="127" y="188" type="line"/>
			<point x="53" y="188" type="line"/>
		</contour>
	</outline>
	<anchor name="aboveUC" x="354" y="677"/>
	<anchor name="belowLC" x="228" y="-20"/>
	<anchor name="baseLC" x="228" y="0"/>
</glyph>
<glyph name="T" format="2">
	<unicode hex="0054"/>
	<advance width="656"/>
	<outline>
		<contour>
			<point x="81" y="464" type="line"/>
			<point x="158" y="464" type="line"/>
			<point x="240" y="630" type="line"/>
			<point x="148" y="589" type="line"/>
			<point x="637" y="589" type="line"/>
			<point x="579" y="633" type="line"/>
			<point x="599" y="464" type="line"/>
			<point x="674" y="464" type="line"/>
			<point x="702" y="657" type="line"/>
			<point x="121" y="657" type="line"/>
		</contour>
		<contour>
			<point x="117" y="0" type="line"/>
			<point x="476" y="0" type="line"/>
			<point x="489" y="71" type="line"/>
			<point x="345" y="71" type="line"/>
			<point x="268" y="71" type="line"/>
			<point x="130" y="71" type="line"/>
		</contour>
		<contour>
			<point x="210" y="0" type="line"/>
			<point x="377" y="0" type="line"/>
			<point x="395" y="98"/>
			<point x="413" y="194"/>
			<point x="430" y="292" type="curve" smooth="yes"/>
			<point x="497" y="657" type="line"/>
			<point x="330" y="657" type="line"/>
			<point x="312" y="560"/>
			<point x="294" y="463"/>
			<point x="277" y="366" type="curve" smooth="yes"/>
		</contour>
	</outline>
	<anchor name="aboveUC" x="408" y="677"/>
	<anchor name="belowLC" x="286" y="-20"/>
	<anchor name="baseLC" x="288" y="0"/>
</glyph>
<glyph name="U" format="2">
	<unicode hex="0055"/>
	<advance width="733"/>
	<outline>
		<contour>
			<point x="116" y="189" type="curve" smooth="yes"/>
			<point x="116" y="59"/>
			<point x="210" y="-16"/>
			<point x="349" y="-16" type="curve" smooth="yes"/>
			<point x="521" y="-16"/>
			<point x="608" y="83"/>
			<point x="638" y="252" type="curve" smooth="yes"/>
			<point x="712" y="657" type="line"/>
			<point x="634" y="657" type="line"/>
			<point x="560" y="251" type="line" smooth="yes"/>
			<point x="538" y="126"/>
			<point x="487" y="62"/>
			<point x="396" y="62" type="curve" smooth="yes"/>
			<point x="312" y="62"/>
			<point x="281" y="113"/>
			<point x="281" y="177" type="curve" smooth="yes"/>
			<point x="281" y="222"/>
			<point x="290" y="269"/>
			<point x="298" y="314" type="curve" smooth="yes"/>
			<point x="361" y="657" type="line"/>
			<point x="193" y="657" type="line"/>
			<point x="176" y="560"/>
			<point x="158" y="463"/>
			<point x="140" y="366" type="curve" smooth="yes"/>
			<point x="131" y="315" type="line" smooth="yes"/>
			<point x="123" y="271"/>
			<point x="116" y="227"/>
		</contour>
		<contour>
			<point x="95" y="586" type="line"/>
			<point x="226" y="586" type="line"/>
			<point x="302" y="586" type="line"/>
			<point x="431" y="586" type="line"/>
			<point x="444" y="657" type="line"/>
			<point x="108" y="657" type="line"/>
		</contour>
		<contour>
			<point x="531" y="586" type="line"/>
			<point x="639" y="586" type="line"/>
			<point x="681" y="586" type="line"/>
			<point x="779" y="586" type="line"/>
			<point x="791" y="657" type="line"/>
			<point x="544" y="657" type="line"/>
		</contour>
	</outline>
	<anchor name="aboveUC" x="485" y="677"/>
	<anchor name="belowLC" x="353" y="-20"/>
	<anchor name="ogonek" x="438" y="0"/>
	<anchor name="hornLC" x="644" y="573"/>
</glyph>
<glyph name="V" format="2">
	<unicode hex="0056"/>
	<advance width="718"/>
	<outline>
		<contour>
			<point x="93" y="586" type="line"/>
			<point x="210" y="586" type="line"/>
			<point x="278" y="586" type="line"/>
			<point x="400" y="586" type="line"/>
			<point x="413" y="657" type="line"/>
			<point x="105" y="657" type="line"/>
		</contour>
		<contour>
			<point x="254" y="0" type="line"/>
			<point x="412" y="0" type="line"/>
			<point x="737" y="657" type="line"/>
			<point x="654" y="657" type="line"/>
			<point x="388" y="91" type="line"/>
			<point x="373" y="91" type="line"/>
			<point x="308" y="657" type="line"/>
			<point x="157" y="657" type="line"/>
		</contour>
		<contour>
			<point x="537" y="586" type="line"/>
			<point x="634" y="586" type="line"/>
			<point x="680" y="586" type="line"/>
			<point x="768" y="586" type="line"/>
			<point x="781" y="657" type="line"/>
			<point x="549" y="657" type="line"/>
		</contour>
	</outline>
	<anchor name="aboveUC" x="492" y="677"/>
	<anchor name="belowLC" x="340" y="-20"/>
</glyph>
<glyph name="W" format="2">
	<unicode hex="0057"/>
	<advance width="1004"/>
	<outline>
		<contour>
			<point x="93" y="586" type="line"/>
			<point x="213" y="586" type="line"/>
			<point x="284" y="586" type="line"/>
			<point x="374" y="586" type="line"/>
			<point x="386" y="657" type="line"/>
			<point x="105" y="657" type="line"/>
		</contour>
		<contour>
			<point x="210" y="0" type="line"/>
			<point x="384" y="0" type="line"/>
			<point x="577" y="586" type="line"/>
			<point x="589" y="586" type="line"/>
			<point x="584" y="0" type="line"/>
			<point x="750" y="0" type="line"/>
			<point x="1024" y="657" type="line"/>
			<point x="945" y="657" type="line"/>
			<point x="724" y="77" type="line"/>
			<point x="709" y="77" type="line"/>
			<point x="714" y="657" type="line"/>
			<point x="537" y="657" type="line"/>
			<point x="348" y="79" type="line"/>
			<point x="337" y="79" type="line"/>
			<point x="315" y="657" type="line"/>
			<point x="154" y="657" type="line"/>
		</contour>
		<contour>
			<point x="452" y="586" type="line"/>
			<point x="586" y="586" type="line"/>
			<point x="646" y="586" type="line"/>
			<point x="764" y="586" type="line"/>
			<point x="777" y="657" type="line"/>
			<point x="465" y="657" type="line"/>
		</contour>
		<contour>
			<point x="843" y="586" type="line"/>
			<point x="920" y="586" type="line"/>
			<point x="965" y="586" type="line"/>
			<point x="1053" y="586" type="line"/>
			<point x="1066" y="657" type="line"/>
			<point x="856" y="657" type="line"/>
		</contour>
	</outline>
	<anchor name="aboveUC" x="621" y="677"/>
	<anchor name="belowLC" x="484" y="-20"/>
</glyph>
<glyph name="X" format="2">
	<unicode hex="0058"/>
	<advance width="673"/>
	<outline>
		<contour>
			<point x="-5" y="0" type="line"/>
			<point x="222" y="0" type="line"/>
			<point x="235" y="71" type="line"/>
			<point x="137" y="71" type="line"/>
			<point x="106" y="71" type="line"/>
			<point x="8" y="71" type="line"/>
		</contour>
		<contour>
			<point x="15" y="0" type="line"/>
			<point x="107" y="0" type="line"/>
			<point x="350" y="322" type="line"/>
			<point x="307" y="363" type="line"/>
		</contour>
		<contour>
			<point x="99" y="586" type="line"/>
			<point x="215" y="586" type="line"/>
			<point x="292" y="586" type="line"/>
			<point x="407" y="586" type="line"/>
			<point x="420" y="657" type="line"/>
			<point x="112" y="657" type="line"/>
		</contour>
		<contour>
			<point x="420" y="0" type="line"/>
			<point x="586" y="0" type="line"/>
			<point x="420" y="406" type="line"/>
			<point x="400" y="406" type="line"/>
			<point x="307" y="657" type="line"/>
			<point x="141" y="657" type="line"/>
			<point x="302" y="262" type="line"/>
			<point x="322" y="262" type="line"/>
		</contour>
		<contour>
			<point x="304" y="0" type="line"/>
			<point x="615" y="0" type="line"/>
			<point x="627" y="71" type="line"/>
			<point x="511" y="71" type="line"/>
			<point x="435" y="71" type="line"/>
			<point x="317" y="71" type="line"/>
		</contour>
		<contour>
			<point x="383" y="360" type="line"/>
			<point x="426" y="319" type="line"/>
			<point x="699" y="657" type="line"/>
			<point x="607" y="657" type="line"/>
		</contour>
		<contour>
			<point x="482" y="586" type="line"/>
			<point x="574" y="587" type="line"/>
			<point x="607" y="587" type="line"/>
			<point x="706" y="586" type="line"/>
			<point x="719" y="657" type="line"/>
			<point x="495" y="657" type="line"/>
		</contour>
	</outline>
	<anchor name="aboveUC" x="446" y="677"/>
	<anchor name="belowLC" x="267" y="-20"/>
</glyph>
<glyph name="Y" format="2">
	<unicode hex="0059"/>
	<advance width="673"/>
	<outline>
		<contour>
			<point x="90" y="586" type="line"/>
			<point x="209" y="586" type="line"/>
			<point x="292" y="586" type="line"/>
			<point x="408" y="586" type="line"/>
			<point x="421" y="657" type="line"/>
			<point x="103" y="657" type="line"/>
		</contour>
		<contour>
			<point x="131" y="0" type="line"/>
			<point x="490" y="0" type="line"/>
			<point x="502" y="71" type="line"/>
			<point x="358" y="71" type="line"/>
			<point x="282" y="71" type="line"/>
			<point x="144" y="71" type="line"/>
		</contour>
		<contour>
			<point x="270" y="235" type="line"/>
			<point x="432" y="235" type="line"/>
			<point x="701" y="657" type="line"/>
			<point x="614" y="657" type="line"/>
			<point x="413" y="318" type="line"/>
			<point x="398" y="318" type="line"/>
			<point x="313" y="657" type="line"/>
			<point x="138" y="657" type="line"/>
		</contour>
		<contour>
			<point x="223" y="0" type="line"/>
			<point x="391" y="0" type="line"/>
			<point x="410" y="102"/>
			<point x="428" y="204"/>
			<point x="447" y="306" type="curve"/>
			<point x="279" y="306" type="line"/>
		</contour>
		<contour>
			<point x="490" y="586" type="line"/>
			<point x="583" y="586" type="line"/>
			<point x="633" y="586" type="line"/>
			<point x="723" y="586" type="line"/>
			<point x="736" y="657" type="line"/>
			<point x="503" y="657" type="line"/>
		</contour>
	</outline>
	<anchor name="aboveUC" x="458" y="677"/>
	<anchor name="belowLC" x="302" y="-20"/>
</glyph>
<glyph name="Z" format="2">
	<unicode hex="005A"/>
	<advance width="613"/>
	<outline>
		<contour>
			<point x="10" y="0" type="line"/>
			<point x="219" y="0" type="line"/>
			<point x="219" y="85" type="line"/>
			<point x="627" y="593" type="line"/>
			<point x="641" y="657" type="line"/>
			<point x="432" y="657" type="line"/>
			<point x="432" y="572" type="line"/>
			<point x="24" y="65" type="line"/>
		</contour>
		<contour>
			<point x="87" y="467" type="line"/>
			<point x="164" y="467" type="line"/>
			<point x="242" y="630" type="line"/>
			<point x="150" y="589" type="line"/>
			<point x="551" y="598" type="line"/>
			<point x="551" y="657" type="line"/>
			<point x="123" y="657" type="line"/>
		</contour>
		<contour>
			<point x="99" y="0" type="line"/>
			<point x="539" y="0" type="line"/>
			<point x="576" y="191" type="line"/>
			<point x="499" y="191" type="line"/>
			<point x="420" y="27" type="line"/>
			<point x="512" y="69" type="line"/>
			<point x="99" y="58" type="line"/>
		</contour>
	</outline>
	<anchor name="aboveUC" x="391" y="677"/>
	<anchor name="belowLC" x="280" y="-20"/>
</glyph>
<glyph name="a" format="2">
	<unicode hex="0061"/>
	<advance width="648"/>
	<outline>
		<contour>
			<point x="183" y="-12" type="curve" smooth="yes"/>
			<point x="268" y="-12"/>
			<point x="300" y="45"/>
			<point x="329" y="98" type="curve"/>
			<point x="372" y="98" type="line"/>
			<point x="373" y="176" type="line"/>
			<point x="326" y="121"/>
			<point x="299" y="97"/>
			<point x="265" y="97" type="curve" smooth="yes"/>
			<point x="225" y="97"/>
			<point x="202" y="126"/>
			<point x="203" y="193" type="curve" smooth="yes"/>
			<point x="204" y="250"/>
			<point x="220" y="308"/>
			<point x="241" y="350" type="curve" smooth="yes"/>
			<point x="262" y="391"/>
			<point x="297" y="446"/>
			<point x="367" y="446" type="curve" smooth="yes"/>
			<point x="417" y="446"/>
			<point x="451" y="426"/>
			<point x="494" y="383" type="curve"/>
			<point x="495" y="485" type="line"/>
			<point x="477" y="498"/>
			<point x="434" y="514"/>
			<point x="366" y="514" type="curve" smooth="yes"/>
			<point x="186" y="514"/>
			<point x="38" y="341"/>
			<point x="38" y="160" type="curve" smooth="yes"/>
			<point x="38" y="48"/>
			<point x="102" y="-12"/>
		</contour>
		<contour>
			<point x="477" y="-12" type="curve" smooth="yes"/>
			<point x="567" y="-12"/>
			<point x="612" y="49"/>
			<point x="648" y="114" type="curve"/>
			<point x="596" y="147" type="line"/>
			<point x="567" y="101"/>
			<point x="557" y="85"/>
			<point x="535" y="85" type="curve" smooth="yes"/>
			<point x="518" y="85"/>
			<point x="509" y="95"/>
			<point x="510" y="113" type="curve" smooth="yes"/>
			<point x="510" y="131"/>
			<point x="515" y="154"/>
			<point x="523" y="185" type="curve" smooth="yes"/>
			<point x="602" y="540" type="line"/>
			<point x="531" y="540" type="line"/>
			<point x="446" y="463" type="line"/>
			<point x="419" y="463" type="line"/>
			<point x="345" y="132" type="line"/>
			<point x="365" y="132" type="line" smooth="yes"/>
			<point x="363" y="125"/>
			<point x="360" y="111"/>
			<point x="359" y="98" type="curve" smooth="yes"/>
			<point x="359" y="31"/>
			<point x="400" y="-12"/>
		</contour>
	</outline>
	<anchor name="aboveLC" x="390" y="534"/>
	<anchor name="belowLC" x="275" y="-20"/>
	<anchor name="ogonek" x="458" y="0"/>
</glyph>
<glyph name="b" format="2">
	<unicode hex="0062"/>
	<advance width="627"/>
	<outline>
		<contour>
			<point x="249" y="-12" type="curve" smooth="yes"/>
			<point x="438" y="-12"/>
			<point x="588" y="159"/>
			<point x="588" y="350" type="curve" smooth="yes"/>
			<point x="588" y="462"/>
			<point x="525" y="526"/>
			<point x="439" y="526" type="curve" smooth="yes"/>
			<point x="364" y="526"/>
			<point x="327" y="478"/>
			<point x="291" y="404" type="curve"/>
			<point x="243" y="404" type="line"/>
			<point x="243" y="312" type="line"/>
			<point x="294" y="383"/>
			<point x="325" y="416"/>
			<point x="361" y="416" type="curve" smooth="yes"/>
			<point x="401" y="416"/>
			<point x="423" y="384"/>
			<point x="423" y="315" type="curve" smooth="yes"/>
			<point x="423" y="246"/>
			<point x="408" y="184"/>
			<point x="387" y="142" type="curve" smooth="yes"/>
			<point x="367" y="99"/>
			<point x="334" y="57"/>
			<point x="281" y="57" type="curve" smooth="yes"/>
			<point x="242" y="57"/>
			<point x="225" y="78"/>
			<point x="225" y="118" type="curve" smooth="yes"/>
			<point x="225" y="151"/>
			<point x="233" y="189"/>
			<point x="241" y="227" type="curve" smooth="yes"/>
			<point x="273" y="377" type="line"/>
			<point x="248" y="377" type="line"/>
			<point x="343" y="716" type="line"/>
			<point x="286" y="716" type="line"/>
			<point x="73" y="686" type="line"/>
			<point x="60" y="624" type="line"/>
			<point x="214" y="602" type="line"/>
			<point x="160" y="636" type="line"/>
			<point x="87" y="286" type="line" smooth="yes"/>
			<point x="75" y="230"/>
			<point x="66" y="184"/>
			<point x="66" y="141" type="curve" smooth="yes"/>
			<point x="66" y="43"/>
			<point x="135" y="-12"/>
		</contour>
	</outline>
	<anchor name="aboveLC" x="258" y="726"/>
	<anchor name="belowLC" x="224" y="-20"/>
</glyph>
<glyph name="c" format="2">
	<unicode hex="0063"/>
	<advance width="526"/>
	<outline>
		<contour>
			<point x="247" y="-12" type="curve" smooth="yes"/>
			<point x="372" y="-12"/>
			<point x="442" y="73"/>
			<point x="482" y="142" type="curve"/>
			<point x="430" y="181" type="line"/>
			<point x="388" y="129"/>
			<point x="355" y="94"/>
			<point x="300" y="94" type="curve" smooth="yes"/>
			<point x="244" y="94"/>
			<point x="205" y="130"/>
			<point x="205" y="223" type="curve" smooth="yes"/>
			<point x="205" y="351"/>
			<point x="281" y="461"/>
			<point x="312" y="479" type="curve"/>
			<point x="360" y="479" type="line"/>
			<point x="335" y="497" type="line"/>
			<point x="357" y="443" type="line" smooth="yes"/>
			<point x="375" y="394"/>
			<point x="397" y="370"/>
			<point x="437" y="370" type="curve" smooth="yes"/>
			<point x="484" y="370"/>
			<point x="504" y="406"/>
			<point x="508" y="445" type="curve"/>
			<point x="488" y="488"/>
			<point x="431" y="526"/>
			<point x="339" y="526" type="curve" smooth="yes"/>
			<point x="178" y="526"/>
			<point x="44" y="374"/>
			<point x="44" y="195" type="curve" smooth="yes"/>
			<point x="44" y="70"/>
			<point x="117" y="-12"/>
		</contour>
	</outline>
	<anchor name="aboveLC" x="366" y="534"/>
	<anchor name="belowLC" x="231" y="-20"/>
	<anchor name="baseLC" x="218" y="0"/>
</glyph>
<glyph name="d" format="2">
	<unicode hex="0064"/>
	<advance width="652"/>
	<outline>
		<contour>
			<point x="184" y="-12" type="curve" smooth="yes"/>
			<point x="270" y="-12"/>
			<point x="304" y="47"/>
			<point x="331" y="99" type="curve"/>
			<point x="373" y="99" type="line"/>
			<point x="373" y="176" type="line"/>
			<point x="329" y="124"/>
			<point x="301" y="97"/>
			<point x="267" y="97" type="curve" smooth="yes"/>
			<point x="227" y="97"/>
			<point x="204" y="126"/>
			<point x="204" y="192" type="curve" smooth="yes"/>
			<point x="204" y="257"/>
			<point x="223" y="319"/>
			<point x="241" y="359" type="curve" smooth="yes"/>
			<point x="260" y="398"/>
			<point x="294" y="456"/>
			<point x="361" y="456" type="curve" smooth="yes"/>
			<point x="409" y="456"/>
			<point x="441" y="440"/>
			<point x="465" y="416" type="curve"/>
			<point x="465" y="507" type="line"/>
			<point x="449" y="515"/>
			<point x="418" y="523"/>
			<point x="372" y="523" type="curve" smooth="yes"/>
			<point x="187" y="523"/>
			<point x="39" y="346"/>
			<point x="39" y="158" type="curve" smooth="yes"/>
			<point x="39" y="49"/>
			<point x="104" y="-12"/>
		</contour>
		<contour>
			<point x="481" y="-12" type="curve" smooth="yes"/>
			<point x="571" y="-12"/>
			<point x="616" y="49"/>
			<point x="650" y="114" type="curve"/>
			<point x="599" y="147" type="line"/>
			<point x="570" y="101"/>
			<point x="560" y="85"/>
			<point x="539" y="85" type="curve" smooth="yes"/>
			<point x="521" y="85"/>
			<point x="513" y="95"/>
			<point x="513" y="112" type="curve" smooth="yes"/>
			<point x="513" y="130"/>
			<point x="518" y="153"/>
			<point x="525" y="184" type="curve" smooth="yes"/>
			<point x="639" y="716" type="line"/>
			<point x="582" y="716" type="line"/>
			<point x="368" y="686" type="line"/>
			<point x="356" y="624" type="line"/>
			<point x="510" y="602" type="line"/>
			<point x="461" y="636" type="line"/>
			<point x="437" y="462" type="line"/>
			<point x="418" y="462" type="line"/>
			<point x="346" y="130" type="line"/>
			<point x="366" y="130" type="line" smooth="yes"/>
			<point x="364" y="121"/>
			<point x="363" y="111"/>
			<point x="363" y="99" type="curve" smooth="yes"/>
			<point x="363" y="31"/>
			<point x="404" y="-12"/>
		</contour>
	</outline>
	<anchor name="aboveLC" x="542" y="726"/>
	<anchor name="belowLC" x="307" y="-20"/>
</glyph>
<glyph name="e" format="2">
	<unicode hex="0065"/>
	<advance width="538"/>
	<outline>
		<contour>
			<point x="250" y="-12" type="curve" smooth="yes"/>
			<point x="376" y="-12"/>
			<point x="446" y="70"/>
			<point x="486" y="136" type="curve"/>
			<point x="434" y="176" type="line"/>
			<point x="392" y="126"/>
			<point x="359" y="94"/>
			<point x="303" y="94" type="curve" smooth="yes"/>
			<point x="242" y="94"/>
			<point x="201" y="127"/>
			<point x="201" y="217" type="curve" smooth="yes"/>
			<point x="201" y="342"/>
			<point x="272" y="462"/>
			<point x="340" y="462" type="curve" smooth="yes"/>
			<point x="367" y="462"/>
			<point x="380" y="445"/>
			<point x="380" y="419" type="curve" smooth="yes"/>
			<point x="380" y="355"/>
			<point x="327" y="275"/>
			<point x="129" y="231" type="curve"/>
			<point x="129" y="191" type="line"/>
			<point x="390" y="236"/>
			<point x="510" y="310"/>
			<point x="510" y="414" type="curve" smooth="yes"/>
			<point x="510" y="483"/>
			<point x="452" y="526"/>
			<point x="356" y="526" type="curve" smooth="yes"/>
			<point x="178" y="526"/>
			<point x="44" y="374"/>
			<point x="44" y="195" type="curve" smooth="yes"/>
			<point x="44" y="73"/>
			<point x="120" y="-12"/>
		</contour>
	</outline>
	<anchor name="aboveLC" x="353" y="534"/>
	<anchor name="belowLC" x="249" y="-20"/>
	<anchor name="ogonek" x="292" y="0"/>
</glyph>
<glyph name="f" format="2">
	<unicode hex="0066"/>
	<advance width="408"/>
	<outline>
		<contour>
			<point x="-27" y="-233" type="curve" smooth="yes"/>
			<point x="57" y="-233"/>
			<point x="109" y="-196"/>
			<point x="147" y="-151" type="curve" smooth="yes"/>
			<point x="185" y="-105"/>
			<point x="216" y="-44"/>
			<point x="233" y="74" type="curve" smooth="yes"/>
			<point x="254" y="219"/>
			<point x="275" y="368"/>
			<point x="296" y="513" type="curve" smooth="yes"/>
			<point x="315" y="643"/>
			<point x="328" y="660"/>
			<point x="343" y="687" type="curve"/>
			<point x="392" y="687" type="line"/>
			<point x="369" y="697" type="line"/>
			<point x="394" y="639" type="line" smooth="yes"/>
			<point x="408" y="607"/>
			<point x="428" y="580"/>
			<point x="473" y="580" type="curve" smooth="yes"/>
			<point x="515" y="580"/>
			<point x="534" y="612"/>
			<point x="538" y="647" type="curve"/>
			<point x="524" y="682"/>
			<point x="470" y="728"/>
			<point x="365" y="728" type="curve" smooth="yes"/>
			<point x="242" y="728"/>
			<point x="146" y="673"/>
			<point x="122" y="446" type="curve" smooth="yes"/>
			<point x="107" y="304"/>
			<point x="91" y="159"/>
			<point x="76" y="17" type="curve" smooth="yes"/>
			<point x="67" y="-63"/>
			<point x="58" y="-108"/>
			<point x="50" y="-137" type="curve" smooth="yes"/>
			<point x="43" y="-161"/>
			<point x="33" y="-185"/>
			<point x="28" y="-193" type="curve"/>
			<point x="-21" y="-193" type="line"/>
			<point x="5" y="-205" type="line"/>
			<point x="-9" y="-175" type="line" smooth="yes"/>
			<point x="-31" y="-115"/>
			<point x="-59" y="-92"/>
			<point x="-104" y="-92" type="curve" smooth="yes"/>
			<point x="-150" y="-92"/>
			<point x="-169" y="-124"/>
			<point x="-176" y="-152" type="curve"/>
			<point x="-162" y="-186"/>
			<point x="-119" y="-233"/>
		</contour>
		<contour>
			<point x="30" y="437" type="line"/>
			<point x="190" y="445" type="line"/>
			<point x="389" y="437" type="line"/>
			<point x="405" y="514" type="line"/>
			<point x="199" y="514" type="line"/>
			<point x="199" y="522" type="line"/>
			<point x="43" y="500" type="line"/>
		</contour>
	</outline>
	<anchor name="aboveLC" x="369" y="726"/>
	<anchor name="belowLC" x="-7" y="-241"/>
</glyph>
<glyph name="g" format="2">
	<unicode hex="0067"/>
	<advance width="624"/>
	<outline>
		<contour>
			<point x="66" y="90" type="curve" smooth="yes"/>
			<point x="66" y="46"/>
			<point x="100" y="25"/>
			<point x="165" y="23" type="curve" smooth="yes"/>
			<point x="165" y="-20" type="line"/>
			<point x="316" y="-38" type="line" smooth="yes"/>
			<point x="362" y="-44"/>
			<point x="383" y="-58"/>
			<point x="383" y="-85" type="curve" smooth="yes"/>
			<point x="383" y="-133"/>
			<point x="322" y="-165"/>
			<point x="247" y="-165" type="curve" smooth="yes"/>
			<point x="172" y="-165"/>
			<point x="125" y="-138"/>
			<point x="125" y="-96" type="curve" smooth="yes"/>
			<point x="125" y="-57"/>
			<point x="157" y="-34"/>
			<point x="194" y="-17" type="curve"/>
			<point x="174" y="-6" type="line"/>
			<point x="38" y="-18"/>
			<point x="-16" y="-57"/>
			<point x="-16" y="-115" type="curve" smooth="yes"/>
			<point x="-16" y="-182"/>
			<point x="67" y="-232"/>
			<point x="212" y="-232" type="curve" smooth="yes"/>
			<point x="361" y="-232"/>
			<point x="516" y="-157"/>
			<point x="516" y="-36" type="curve" smooth="yes"/>
			<point x="516" y="38"/>
			<point x="456" y="75"/>
			<point x="356" y="87" type="curve" smooth="yes"/>
			<point x="249" y="100" type="line" smooth="yes"/>
			<point x="212" y="105"/>
			<point x="196" y="118"/>
			<point x="196" y="139" type="curve" smooth="yes"/>
			<point x="196" y="160"/>
			<point x="206" y="178"/>
			<point x="251" y="195" type="curve"/>
			<point x="165" y="195" type="line"/>
			<point x="165" y="157" type="line"/>
			<point x="100" y="156"/>
			<point x="66" y="134"/>
		</contour>
		<contour>
			<point x="258" y="233" type="curve" smooth="yes"/>
			<point x="229" y="233"/>
			<point x="212" y="253"/>
			<point x="212" y="306" type="curve" smooth="yes"/>
			<point x="212" y="390"/>
			<point x="247" y="465"/>
			<point x="293" y="465" type="curve" smooth="yes"/>
			<point x="323" y="465"/>
			<point x="340" y="444"/>
			<point x="340" y="391" type="curve" smooth="yes"/>
			<point x="340" y="307"/>
			<point x="305" y="233"/>
		</contour>
		<contour>
			<point x="53" y="320" type="curve" smooth="yes"/>
			<point x="53" y="222"/>
			<point x="131" y="174"/>
			<point x="245" y="174" type="curve" smooth="yes"/>
			<point x="395" y="174"/>
			<point x="452" y="263"/>
			<point x="474" y="328" type="curve" smooth="yes"/>
			<point x="491" y="375"/>
			<point x="498" y="401"/>
			<point x="506" y="452" type="curve"/>
			<point x="484" y="400" type="line"/>
			<point x="585" y="402"/>
			<point x="617" y="440"/>
			<point x="617" y="499" type="curve" smooth="yes"/>
			<point x="617" y="515"/>
			<point x="613" y="535"/>
			<point x="609" y="541" type="curve"/>
			<point x="604" y="543"/>
			<point x="590" y="545"/>
			<point x="576" y="545" type="curve" smooth="yes"/>
			<point x="502" y="545"/>
			<point x="468" y="500"/>
			<point x="466" y="404" type="curve"/>
			<point x="433" y="404" type="line"/>
			<point x="432" y="475"/>
			<point x="387" y="526"/>
			<point x="284" y="526" type="curve" smooth="yes"/>
			<point x="142" y="526"/>
			<point x="53" y="437"/>
		</contour>
	</outline>
	<anchor name="aboveLC" x="321" y="534"/>
	<anchor name="belowLC" x="198" y="-241"/>
</glyph>
<glyph name="h" format="2">
	<unicode hex="0068"/>
	<advance width="682"/>
	<outline>
		<contour>
			<point x="82" y="-14" type="line"/>
			<point x="206" y="0" type="line"/>
			<point x="224" y="82"/>
			<point x="242" y="164"/>
			<point x="259" y="246" type="curve" smooth="yes"/>
			<point x="283" y="360" type="line"/>
			<point x="270" y="360" type="line"/>
			<point x="351" y="716" type="line"/>
			<point x="301" y="723" type="line"/>
			<point x="92" y="686" type="line"/>
			<point x="79" y="624" type="line"/>
			<point x="229" y="609" type="line"/>
			<point x="175" y="636" type="line"/>
			<point x="160" y="567"/>
			<point x="148" y="509"/>
			<point x="133" y="440" type="curve" smooth="yes"/>
			<point x="39" y="0" type="line"/>
		</contour>
		<contour>
			<point x="488" y="-15" type="curve" smooth="yes"/>
			<point x="587" y="-15"/>
			<point x="637" y="50"/>
			<point x="676" y="116" type="curve"/>
			<point x="629" y="145" type="line"/>
			<point x="601" y="100"/>
			<point x="590" y="85"/>
			<point x="569" y="85" type="curve" smooth="yes"/>
			<point x="552" y="85"/>
			<point x="545" y="95"/>
			<point x="545" y="111" type="curve" smooth="yes"/>
			<point x="545" y="127"/>
			<point x="551" y="152"/>
			<point x="557" y="178" type="curve" smooth="yes"/>
			<point x="592" y="321" type="line" smooth="yes"/>
			<point x="600" y="353"/>
			<point x="608" y="387"/>
			<point x="608" y="426" type="curve" smooth="yes"/>
			<point x="608" y="486"/>
			<point x="571" y="529"/>
			<point x="499" y="529" type="curve" smooth="yes"/>
			<point x="412" y="529"/>
			<point x="351" y="474"/>
			<point x="297" y="392" type="curve"/>
			<point x="257" y="392" type="line"/>
			<point x="257" y="329" type="line"/>
			<point x="316" y="385"/>
			<point x="350" y="410"/>
			<point x="389" y="410" type="curve" smooth="yes"/>
			<point x="419" y="410"/>
			<point x="433" y="395"/>
			<point x="433" y="373" type="curve" smooth="yes"/>
			<point x="433" y="353"/>
			<point x="428" y="334"/>
			<point x="420" y="302" type="curve" smooth="yes"/>
			<point x="393" y="188" type="line" smooth="yes"/>
			<point x="385" y="156"/>
			<point x="374" y="120"/>
			<point x="374" y="80" type="curve" smooth="yes"/>
			<point x="374" y="25"/>
			<point x="404" y="-15"/>
		</contour>
	</outline>
	<anchor name="aboveLC" x="261" y="726"/>
	<anchor name="belowLC" x="302" y="-20"/>
</glyph>
<glyph name="i" format="2">
	<unicode hex="0069"/>
	<advance width="360"/>
	<outline>
		<contour>
			<point x="57" y="102" type="curve" smooth="yes"/>
			<point x="57" y="31"/>
			<point x="103" y="-12"/>
			<point x="182" y="-12" type="curve" smooth="yes"/>
			<point x="280" y="-12"/>
			<point x="325" y="51"/>
			<point x="359" y="114" type="curve"/>
			<point x="308" y="147" type="line"/>
			<point x="279" y="101"/>
			<point x="269" y="85"/>
			<point x="247" y="85" type="curve" smooth="yes"/>
			<point x="230" y="85"/>
			<point x="221" y="95"/>
			<point x="221" y="113" type="curve" smooth="yes"/>
			<point x="221" y="131"/>
			<point x="227" y="157"/>
			<point x="234" y="190" type="curve" smooth="yes"/>
			<point x="306" y="514" type="line"/>
			<point x="249" y="514" type="line"/>
			<point x="33" y="461" type="line"/>
			<point x="20" y="399" type="line"/>
			<point x="168" y="399" type="line"/>
			<point x="123" y="435" type="line"/>
			<point x="75" y="226" type="line" smooth="yes"/>
			<point x="64" y="177"/>
			<point x="57" y="137"/>
		</contour>
		<contour>
			<point x="254" y="590" type="curve" smooth="yes"/>
			<point x="312" y="590"/>
			<point x="350" y="636"/>
			<point x="350" y="684" type="curve" smooth="yes"/>
			<point x="350" y="729"/>
			<point x="318" y="760"/>
			<point x="269" y="760" type="curve" smooth="yes"/>
			<point x="212" y="760"/>
			<point x="174" y="714"/>
			<point x="174" y="666" type="curve" smooth="yes"/>
			<point x="174" y="621"/>
			<point x="206" y="590"/>
		</contour>
	</outline>
	<anchor name="aboveLC" x="271" y="760"/>
	<anchor name="belowLC" x="153" y="-20"/>
	<anchor name="ogonek" x="200" y="0"/>
</glyph>
<glyph name="j" format="2">
	<unicode hex="006A"/>
	<advance width="354"/>
	<outline>
		<contour>
			<point x="-57" y="-233" type="line"/>
			<point x="22" y="-217"/>
			<point x="81" y="-191"/>
			<point x="124" y="-147" type="curve" smooth="yes"/>
			<point x="168" y="-104"/>
			<point x="202" y="-46"/>
			<point x="223" y="61" type="curve" smooth="yes"/>
			<point x="312" y="514" type="line"/>
			<point x="255" y="514" type="line"/>
			<point x="38" y="461" type="line"/>
			<point x="25" y="399" type="line"/>
			<point x="173" y="399" type="line"/>
			<point x="129" y="435" type="line"/>
			<point x="58" y="29" type="line" smooth="yes"/>
			<point x="45" y="-41"/>
			<point x="31" y="-76"/>
			<point x="12" y="-105" type="curve" smooth="yes"/>
			<point x="-6" y="-135"/>
			<point x="-31" y="-163"/>
			<point x="-79" y="-179" type="curve"/>
		</contour>
		<contour>
			<point x="253" y="590" type="curve" smooth="yes"/>
			<point x="311" y="590"/>
			<point x="349" y="636"/>
			<point x="349" y="684" type="curve" smooth="yes"/>
			<point x="349" y="729"/>
			<point x="317" y="760"/>
			<point x="268" y="760" type="curve" smooth="yes"/>
			<point x="210" y="760"/>
			<point x="172" y="714"/>
			<point x="172" y="666" type="curve" smooth="yes"/>
			<point x="172" y="621"/>
			<point x="205" y="590"/>
		</contour>
	</outline>
	<anchor name="aboveLC" x="278" y="760"/>
	<anchor name="belowLC" x="28" y="-241"/>
</glyph>
<glyph name="k" format="2">
	<unicode hex="006B"/>
	<advance width="606"/>
	<outline>
		<contour>
			<point x="36" y="0" type="line"/>
			<point x="79" y="-14" type="line"/>
			<point x="204" y="0" type="line"/>
			<point x="219" y="69"/>
			<point x="233" y="138"/>
			<point x="248" y="207" type="curve" smooth="yes"/>
			<point x="355" y="716" type="line"/>
			<point x="298" y="716" type="line"/>
			<point x="85" y="686" type="line"/>
			<point x="72" y="624" type="line"/>
			<point x="226" y="602" type="line"/>
			<point x="172" y="636" type="line"/>
			<point x="157" y="563"/>
			<point x="143" y="500"/>
			<point x="127" y="427" type="curve" smooth="yes"/>
		</contour>
		<contour>
			<point x="577" y="0" type="curve"/>
			<point x="585" y="50" type="line"/>
			<point x="563" y="53" type="line" smooth="yes"/>
			<point x="531" y="57"/>
			<point x="514" y="69"/>
			<point x="495" y="111" type="curve" smooth="yes"/>
			<point x="464" y="183" type="line" smooth="yes"/>
			<point x="435" y="251"/>
			<point x="383" y="262"/>
			<point x="296" y="271" type="curve" smooth="yes"/>
			<point x="266" y="273" type="line"/>
			<point x="266" y="284" type="line"/>
			<point x="472" y="350" type="line" smooth="yes"/>
			<point x="549" y="372"/>
			<point x="586" y="402"/>
			<point x="586" y="453" type="curve" smooth="yes"/>
			<point x="586" y="494"/>
			<point x="553" y="515"/>
			<point x="518" y="523" type="curve"/>
			<point x="239" y="285" type="line"/>
			<point x="239" y="256" type="line"/>
			<point x="248" y="254" type="line" smooth="yes"/>
			<point x="273" y="246"/>
			<point x="288" y="235"/>
			<point x="300" y="196" type="curve" smooth="yes"/>
			<point x="326" y="106" type="line" smooth="yes"/>
			<point x="351" y="19"/>
			<point x="397" y="-15"/>
			<point x="481" y="-15" type="curve" smooth="yes"/>
			<point x="517" y="-15"/>
			<point x="556" y="-7"/>
		</contour>
	</outline>
	<anchor name="aboveLC" x="255" y="726"/>
	<anchor name="belowLC" x="256" y="-20"/>
</glyph>
<glyph name="l" format="2">
	<unicode hex="006C"/>
	<advance width="356"/>
	<outline>
		<contour>
			<point x="178" y="-12" type="curve" smooth="yes"/>
			<point x="276" y="-12"/>
			<point x="321" y="49"/>
			<point x="355" y="114" type="curve"/>
			<point x="304" y="147" type="line"/>
			<point x="275" y="101"/>
			<point x="265" y="85"/>
			<point x="243" y="85" type="curve" smooth="yes"/>
			<point x="226" y="85"/>
			<point x="217" y="95"/>
			<point x="217" y="112" type="curve" smooth="yes"/>
			<point x="217" y="130"/>
			<point x="223" y="153"/>
			<point x="229" y="184" type="curve" smooth="yes"/>
			<point x="343" y="716" type="line"/>
			<point x="286" y="716" type="line"/>
			<point x="73" y="686" type="line"/>
			<point x="60" y="624" type="line"/>
			<point x="214" y="602" type="line"/>
			<point x="160" y="636" type="line"/>
			<point x="145" y="566"/>
			<point x="132" y="506"/>
			<point x="117" y="435" type="curve" smooth="yes"/>
			<point x="70" y="221" type="line" smooth="yes"/>
			<point x="59" y="173"/>
			<point x="53" y="136"/>
			<point x="53" y="102" type="curve" smooth="yes"/>
			<point x="53" y="31"/>
			<point x="99" y="-12"/>
		</contour>
	</outline>
	<anchor name="aboveLC" x="271" y="726"/>
	<anchor name="belowLC" x="159" y="-20"/>
</glyph>
<glyph name="m" format="2">
	<unicode hex="006D"/>
	<advance width="1000"/>
	<outline>
		<contour>
			<point x="823" y="-12" type="curve" smooth="yes"/>
			<point x="917" y="-12"/>
			<point x="959" y="46"/>
			<point x="999" y="112" type="curve"/>
			<point x="948" y="145" type="line"/>
			<point x="919" y="101"/>
			<point x="909" y="85"/>
			<point x="888" y="85" type="curve" smooth="yes"/>
			<point x="871" y="85"/>
			<point x="863" y="95"/>
			<point x="863" y="111" type="curve" smooth="yes"/>
			<point x="863" y="127"/>
			<point x="869" y="152"/>
			<point x="876" y="178" type="curve" smooth="yes"/>
			<point x="910" y="321" type="line" smooth="yes"/>
			<point x="918" y="353"/>
			<point x="926" y="387"/>
			<point x="926" y="415" type="curve" smooth="yes"/>
			<point x="926" y="481"/>
			<point x="878" y="526"/>
			<point x="798" y="526" type="curve" smooth="yes"/>
			<point x="706" y="526"/>
			<point x="664" y="469"/>
			<point x="620" y="392" type="curve"/>
			<point x="579" y="392" type="line"/>
			<point x="579" y="322" type="line"/>
			<point x="638" y="384"/>
			<point x="673" y="410"/>
			<point x="710" y="410" type="curve" smooth="yes"/>
			<point x="737" y="410"/>
			<point x="751" y="395"/>
			<point x="751" y="373" type="curve" smooth="yes"/>
			<point x="751" y="353"/>
			<point x="746" y="334"/>
			<point x="738" y="302" type="curve" smooth="yes"/>
			<point x="711" y="188" type="line" smooth="yes"/>
			<point x="703" y="156"/>
			<point x="698" y="124"/>
			<point x="698" y="98" type="curve" smooth="yes"/>
			<point x="698" y="31"/>
			<point x="744" y="-12"/>
		</contour>
		<contour>
			<point x="216" y="0" type="line"/>
			<point x="232" y="80"/>
			<point x="250" y="159"/>
			<point x="266" y="239" type="curve" smooth="yes"/>
			<point x="294" y="367" type="line"/>
			<point x="272" y="367" type="line"/>
			<point x="282" y="514" type="line"/>
			<point x="225" y="514" type="line"/>
			<point x="52" y="461" type="line"/>
			<point x="39" y="399" type="line"/>
			<point x="186" y="399" type="line"/>
			<point x="142" y="434" type="line"/>
			<point x="48" y="0" type="line"/>
			<point x="91" y="-14" type="line"/>
		</contour>
		<contour>
			<point x="529" y="0" type="line"/>
			<point x="546" y="78"/>
			<point x="564" y="156"/>
			<point x="581" y="234" type="curve" smooth="yes"/>
			<point x="608" y="351" type="line"/>
			<point x="584" y="351" type="line" smooth="yes"/>
			<point x="587" y="365"/>
			<point x="590" y="392"/>
			<point x="590" y="413" type="curve" smooth="yes"/>
			<point x="590" y="481"/>
			<point x="549" y="526"/>
			<point x="471" y="526" type="curve" smooth="yes"/>
			<point x="390" y="526"/>
			<point x="348" y="466"/>
			<point x="306" y="392" type="curve"/>
			<point x="268" y="392" type="line"/>
			<point x="268" y="325" type="line"/>
			<point x="325" y="384"/>
			<point x="359" y="410"/>
			<point x="397" y="410" type="curve" smooth="yes"/>
			<point x="424" y="410"/>
			<point x="438" y="395"/>
			<point x="438" y="370" type="curve" smooth="yes"/>
			<point x="438" y="348"/>
			<point x="433" y="323"/>
			<point x="425" y="287" type="curve" smooth="yes"/>
			<point x="361" y="0" type="line"/>
			<point x="405" y="-14" type="line"/>
		</contour>
	</outline>
	<anchor name="aboveLC" x="551" y="534"/>
	<anchor name="belowLC" x="445" y="-20"/>
</glyph>
<glyph name="n" format="2">
	<unicode hex="006E"/>
	<advance width="691"/>
	<outline>
		<contour>
			<point x="389" y="98" type="curve" smooth="yes"/>
			<point x="389" y="31"/>
			<point x="435" y="-12"/>
			<point x="514" y="-12" type="curve" smooth="yes"/>
			<point x="608" y="-12"/>
			<point x="650" y="46"/>
			<point x="690" y="112" type="curve"/>
			<point x="638" y="145" type="line"/>
			<point x="610" y="101"/>
			<point x="600" y="85"/>
			<point x="578" y="85" type="curve" smooth="yes"/>
			<point x="561" y="85"/>
			<point x="553" y="95"/>
			<point x="553" y="111" type="curve" smooth="yes"/>
			<point x="553" y="127"/>
			<point x="560" y="152"/>
			<point x="566" y="178" type="curve" smooth="yes"/>
			<point x="601" y="321" type="line" smooth="yes"/>
			<point x="609" y="353"/>
			<point x="617" y="387"/>
			<point x="617" y="415" type="curve" smooth="yes"/>
			<point x="617" y="481"/>
			<point x="569" y="526"/>
			<point x="487" y="526" type="curve" smooth="yes"/>
			<point x="393" y="526"/>
			<point x="350" y="469"/>
			<point x="306" y="392" type="curve"/>
			<point x="268" y="392" type="line"/>
			<point x="268" y="325" type="line"/>
			<point x="325" y="384"/>
			<point x="359" y="410"/>
			<point x="399" y="410" type="curve" smooth="yes"/>
			<point x="428" y="410"/>
			<point x="442" y="395"/>
			<point x="442" y="373" type="curve" smooth="yes"/>
			<point x="442" y="353"/>
			<point x="437" y="334"/>
			<point x="429" y="302" type="curve" smooth="yes"/>
			<point x="402" y="188" type="line" smooth="yes"/>
			<point x="394" y="156"/>
			<point x="389" y="124"/>
		</contour>
		<contour>
			<point x="216" y="0" type="line"/>
			<point x="232" y="80"/>
			<point x="250" y="159"/>
			<point x="266" y="239" type="curve" smooth="yes"/>
			<point x="294" y="367" type="line"/>
			<point x="272" y="367" type="line"/>
			<point x="282" y="514" type="line"/>
			<point x="225" y="514" type="line"/>
			<point x="52" y="461" type="line"/>
			<point x="39" y="399" type="line"/>
			<point x="186" y="399" type="line"/>
			<point x="142" y="434" type="line"/>
			<point x="48" y="0" type="line"/>
			<point x="91" y="-14" type="line"/>
		</contour>
	</outline>
	<anchor name="aboveLC" x="373" y="534"/>
	<anchor name="belowLC" x="295" y="-20"/>
</glyph>
<glyph name="o" format="2">
	<unicode hex="006F"/>
	<advance width="621"/>
	<outline>
		<contour>
			<point x="265" y="-15" type="curve" smooth="yes"/>
			<point x="453" y="-15"/>
			<point x="585" y="150"/>
			<point x="585" y="324" type="curve" smooth="yes"/>
			<point x="585" y="454"/>
			<point x="496" y="529"/>
			<point x="362" y="529" type="curve" smooth="yes"/>
			<point x="174" y="529"/>
			<point x="42" y="364"/>
			<point x="42" y="190" type="curve" smooth="yes"/>
			<point x="42" y="60"/>
			<point x="131" y="-15"/>
		</contour>
		<contour>
			<point x="278" y="51" type="curve" smooth="yes"/>
			<point x="236" y="51"/>
			<point x="210" y="84"/>
			<point x="210" y="167" type="curve" smooth="yes"/>
			<point x="210" y="309"/>
			<point x="268" y="462"/>
			<point x="349" y="462" type="curve" smooth="yes"/>
			<point x="391" y="462"/>
			<point x="417" y="430"/>
			<point x="417" y="347" type="curve" smooth="yes"/>
			<point x="417" y="205"/>
			<point x="359" y="51"/>
		</contour>
	</outline>
	<anchor name="aboveLC" x="364" y="534"/>
	<anchor name="belowLC" x="255" y="-20"/>
	<anchor name="hornLC" x="524" y="417"/>
	<anchor name="ogonek" x="323" y="0"/>
</glyph>
<glyph name="p" format="2">
	<unicode hex="0070"/>
	<advance width="647"/>
	<outline>
		<contour>
			<point x="281" y="-3" type="curve" smooth="yes"/>
			<point x="462" y="-3"/>
			<point x="608" y="167"/>
			<point x="608" y="354" type="curve" smooth="yes"/>
			<point x="608" y="464"/>
			<point x="544" y="526"/>
			<point x="460" y="526" type="curve" smooth="yes"/>
			<point x="382" y="526"/>
			<point x="349" y="478"/>
			<point x="318" y="409" type="curve"/>
			<point x="274" y="409" type="line"/>
			<point x="274" y="333" type="line"/>
			<point x="318" y="390"/>
			<point x="346" y="416"/>
			<point x="380" y="416" type="curve" smooth="yes"/>
			<point x="420" y="416"/>
			<point x="443" y="387"/>
			<point x="443" y="320" type="curve" smooth="yes"/>
			<point x="443" y="261"/>
			<point x="425" y="201"/>
			<point x="406" y="161" type="curve" smooth="yes"/>
			<point x="388" y="122"/>
			<point x="354" y="64"/>
			<point x="281" y="64" type="curve" smooth="yes"/>
			<point x="233" y="64"/>
			<point x="201" y="80"/>
			<point x="159" y="116" type="curve"/>
			<point x="159" y="18" type="line"/>
			<point x="175" y="10"/>
			<point x="218" y="-3"/>
		</contour>
		<contour>
			<point x="4" y="-221" type="line"/>
			<point x="163" y="-221" type="line"/>
			<point x="180" y="-132"/>
			<point x="198" y="-38"/>
			<point x="215" y="51" type="curve"/>
			<point x="229" y="51" type="line"/>
			<point x="302" y="393" type="line"/>
			<point x="282" y="393" type="line"/>
			<point x="292" y="514" type="line"/>
			<point x="235" y="514" type="line"/>
			<point x="52" y="461" type="line"/>
			<point x="39" y="399" type="line"/>
			<point x="186" y="399" type="line"/>
			<point x="142" y="430" type="line"/>
		</contour>
		<contour>
			<point x="-73" y="-221" type="line"/>
			<point x="259" y="-221" type="line"/>
			<point x="274" y="-152" type="line"/>
			<point x="132" y="-152" type="line"/>
			<point x="57" y="-152" type="line"/>
			<point x="-58" y="-152" type="line"/>
		</contour>
	</outline>
	<anchor name="aboveLC" x="356" y="534"/>
	<anchor name="belowLC" x="85" y="-241"/>
</glyph>
<glyph name="q" format="2">
	<unicode hex="0071"/>
	<advance width="628"/>
	<outline>
		<contour>
			<point x="186" y="-221" type="line"/>
			<point x="521" y="-221" type="line"/>
			<point x="534" y="-152" type="line"/>
			<point x="401" y="-152" type="line"/>
			<point x="312" y="-152" type="line"/>
			<point x="200" y="-152" type="line"/>
		</contour>
		<contour>
			<point x="185" y="-12" type="curve" smooth="yes"/>
			<point x="269" y="-12"/>
			<point x="301" y="45"/>
			<point x="327" y="98" type="curve"/>
			<point x="373" y="98" type="line"/>
			<point x="374" y="176" type="line"/>
			<point x="327" y="121"/>
			<point x="300" y="97"/>
			<point x="266" y="97" type="curve" smooth="yes"/>
			<point x="226" y="97"/>
			<point x="204" y="126"/>
			<point x="204" y="193" type="curve" smooth="yes"/>
			<point x="205" y="250"/>
			<point x="221" y="308"/>
			<point x="242" y="350" type="curve" smooth="yes"/>
			<point x="263" y="391"/>
			<point x="299" y="446"/>
			<point x="368" y="446" type="curve" smooth="yes"/>
			<point x="419" y="446"/>
			<point x="453" y="426"/>
			<point x="496" y="383" type="curve"/>
			<point x="496" y="485" type="line"/>
			<point x="478" y="498"/>
			<point x="435" y="514"/>
			<point x="368" y="514" type="curve" smooth="yes"/>
			<point x="188" y="514"/>
			<point x="39" y="341"/>
			<point x="39" y="160" type="curve" smooth="yes"/>
			<point x="39" y="48"/>
			<point x="104" y="-12"/>
		</contour>
		<contour>
			<point x="272" y="-221" type="line"/>
			<point x="437" y="-221" type="line"/>
			<point x="451" y="-155"/>
			<point x="466" y="-85"/>
			<point x="480" y="-19" type="curve" smooth="yes"/>
			<point x="599" y="540" type="line"/>
			<point x="528" y="540" type="line"/>
			<point x="445" y="463" type="line"/>
			<point x="417" y="463" type="line"/>
			<point x="342" y="112" type="line"/>
			<point x="366" y="112" type="line"/>
		</contour>
	</outline>
	<anchor name="aboveLC" x="411" y="534"/>
	<anchor name="belowLC" x="340" y="-241"/>
</glyph>
<glyph name="r" format="2">
	<unicode hex="0072"/>
	<advance width="546"/>
	<outline>
		<contour>
			<point x="236" y="177" type="line"/>
			<point x="303" y="329"/>
			<point x="331" y="382"/>
			<point x="354" y="414" type="curve"/>
			<point x="409" y="414" type="line"/>
			<point x="358" y="442" type="line"/>
			<point x="369" y="424" type="line" smooth="yes"/>
			<point x="387" y="393"/>
			<point x="406" y="370"/>
			<point x="452" y="370" type="curve" smooth="yes"/>
			<point x="503" y="370"/>
			<point x="528" y="411"/>
			<point x="534" y="452" type="curve"/>
			<point x="526" y="487"/>
			<point x="497" y="523"/>
			<point x="437" y="523" type="curve" smooth="yes"/>
			<point x="364" y="523"/>
			<point x="324" y="462"/>
			<point x="282" y="333" type="curve"/>
			<point x="238" y="333" type="line"/>
		</contour>
		<contour>
			<point x="48" y="0" type="line"/>
			<point x="91" y="-14" type="line"/>
			<point x="216" y="0" type="line"/>
			<point x="232" y="78"/>
			<point x="248" y="156"/>
			<point x="264" y="233" type="curve" smooth="yes"/>
			<point x="281" y="314" type="line"/>
			<point x="242" y="314" type="line"/>
			<point x="288" y="514" type="line"/>
			<point x="230" y="514" type="line"/>
			<point x="49" y="461" type="line"/>
			<point x="36" y="399" type="line"/>
			<point x="183" y="399" type="line"/>
			<point x="139" y="434" type="line"/>
		</contour>
	</outline>
	<anchor name="aboveLC" x="329" y="534"/>
	<anchor name="belowLC" x="138" y="-20"/>
</glyph>
<glyph name="s" format="2">
	<unicode hex="0073"/>
	<advance width="505"/>
	<outline>
		<contour>
			<point x="227" y="-12" type="curve" smooth="yes"/>
			<point x="348" y="-12"/>
			<point x="444" y="48"/>
			<point x="444" y="147" type="curve" smooth="yes"/>
			<point x="444" y="222"/>
			<point x="394" y="259"/>
			<point x="332" y="303" type="curve" smooth="yes"/>
			<point x="275" y="345"/>
			<point x="250" y="369"/>
			<point x="250" y="413" type="curve" smooth="yes"/>
			<point x="250" y="451"/>
			<point x="270" y="477"/>
			<point x="292" y="485" type="curve" smooth="yes"/>
			<point x="318" y="485"/>
			<point x="343" y="485"/>
			<point x="369" y="485" type="curve"/>
			<point x="316" y="490" type="line"/>
			<point x="337" y="437" type="line" smooth="yes"/>
			<point x="356" y="387"/>
			<point x="379" y="368"/>
			<point x="415" y="368" type="curve" smooth="yes"/>
			<point x="455" y="368"/>
			<point x="476" y="399"/>
			<point x="480" y="437" type="curve"/>
			<point x="466" y="486"/>
			<point x="406" y="526"/>
			<point x="299" y="526" type="curve" smooth="yes"/>
			<point x="175" y="526"/>
			<point x="96" y="458"/>
			<point x="96" y="363" type="curve" smooth="yes"/>
			<point x="96" y="291"/>
			<point x="146" y="251"/>
			<point x="208" y="207" type="curve" smooth="yes"/>
			<point x="265" y="165"/>
			<point x="291" y="144"/>
			<point x="291" y="101" type="curve" smooth="yes"/>
			<point x="291" y="58"/>
			<point x="264" y="38"/>
			<point x="238" y="30" type="curve" smooth="yes"/>
			<point x="204" y="30"/>
			<point x="169" y="30"/>
			<point x="135" y="30" type="curve"/>
			<point x="206" y="25" type="line"/>
			<point x="188" y="78" type="line" smooth="yes"/>
			<point x="171" y="128"/>
			<point x="146" y="150"/>
			<point x="103" y="150" type="curve" smooth="yes"/>
			<point x="63" y="150"/>
			<point x="37" y="120"/>
			<point x="31" y="81" type="curve"/>
			<point x="49" y="28"/>
			<point x="105" y="-12"/>
		</contour>
	</outline>
	<anchor name="aboveLC" x="314" y="534"/>
	<anchor name="belowLC" x="216" y="-20"/>
	<anchor name="baseLC" x="200" y="0"/>
</glyph>
<glyph name="t" format="2">
	<unicode hex="0074"/>
	<advance width="440"/>
	<outline>
		<contour>
			<point x="86" y="218" type="line" smooth="yes"/>
			<point x="75" y="174"/>
			<point x="69" y="136"/>
			<point x="69" y="105" type="curve" smooth="yes"/>
			<point x="69" y="31"/>
			<point x="115" y="-12"/>
			<point x="196" y="-12" type="curve" smooth="yes"/>
			<point x="287" y="-12"/>
			<point x="332" y="37"/>
			<point x="398" y="129" type="curve"/>
			<point x="346" y="165" type="line"/>
			<point x="300" y="100"/>
			<point x="286" y="86"/>
			<point x="262" y="86" type="curve" smooth="yes"/>
			<point x="244" y="86"/>
			<point x="233" y="96"/>
			<point x="233" y="114" type="curve" smooth="yes"/>
			<point x="233" y="129"/>
			<point x="237" y="145"/>
			<point x="245" y="184" type="curve" smooth="yes"/>
			<point x="344" y="651" type="line"/>
			<point x="270" y="651" type="line"/>
			<point x="145" y="461" type="line"/>
		</contour>
		<contour>
			<point x="49" y="437" type="line"/>
			<point x="209" y="445" type="line"/>
			<point x="419" y="437" type="line"/>
			<point x="435" y="514" type="line"/>
			<point x="223" y="514" type="line"/>
			<point x="223" y="522" type="line"/>
			<point x="62" y="500" type="line"/>
		</contour>
	</outline>
	<anchor name="aboveLC" x="284" y="631"/>
	<anchor name="belowLC" x="193" y="-20"/>
	<anchor name="baseLC" x="197" y="0"/>
</glyph>
<glyph name="v" format="2">
	<unicode hex="0076"/>
	<advance width="607"/>
	<outline>
		<contour>
			<point x="173" y="0" type="curve"/>
			<point x="220" y="-21" type="line"/>
			<point x="352" y="-1" type="line"/>
			<point x="422" y="90"/>
			<point x="504" y="231"/>
			<point x="533" y="294" type="curve" smooth="yes"/>
			<point x="562" y="354"/>
			<point x="580" y="409"/>
			<point x="580" y="462" type="curve" smooth="yes"/>
			<point x="580" y="487"/>
			<point x="577" y="504"/>
			<point x="573" y="515" type="curve"/>
			<point x="562" y="520"/>
			<point x="543" y="526"/>
			<point x="517" y="526" type="curve" smooth="yes"/>
			<point x="463" y="526"/>
			<point x="430" y="492"/>
			<point x="430" y="438" type="curve" smooth="yes"/>
			<point x="430" y="402"/>
			<point x="442" y="377"/>
			<point x="461" y="343" type="curve"/>
			<point x="492" y="285" type="line"/>
			<point x="492" y="400" type="line"/>
			<point x="486" y="379"/>
			<point x="477" y="353"/>
			<point x="467" y="327" type="curve" smooth="yes"/>
			<point x="433" y="235"/>
			<point x="395" y="145"/>
			<point x="343" y="48" type="curve"/>
			<point x="313" y="48" type="line"/>
			<point x="313" y="182"/>
			<point x="312" y="323"/>
			<point x="306" y="405" type="curve" smooth="yes"/>
			<point x="300" y="485"/>
			<point x="258" y="526"/>
			<point x="182" y="526" type="curve" smooth="yes"/>
			<point x="111" y="526"/>
			<point x="65" y="483"/>
			<point x="11" y="398" type="curve"/>
			<point x="63" y="365" type="line"/>
			<point x="89" y="404"/>
			<point x="102" y="416"/>
			<point x="118" y="416" type="curve" smooth="yes"/>
			<point x="134" y="416"/>
			<point x="142" y="406"/>
			<point x="146" y="377" type="curve" smooth="yes"/>
			<point x="158" y="285"/>
			<point x="170" y="128"/>
		</contour>
	</outline>
	<anchor name="aboveLC" x="364" y="534"/>
	<anchor name="belowLC" x="241" y="-20"/>
</glyph>
<glyph name="w" format="2">
	<unicode hex="0077"/>
	<advance width="914"/>
	<outline>
		<contour>
			<point x="170" y="0" type="curve"/>
			<point x="217" y="-21" type="line"/>
			<point x="361" y="-1" type="line"/>
			<point x="413" y="112"/>
			<point x="458" y="247"/>
			<point x="478" y="363" type="curve"/>
			<point x="494" y="363" type="line"/>
			<point x="494" y="242"/>
			<point x="494" y="121"/>
			<point x="494" y="0" type="curve"/>
			<point x="544" y="-21" type="line"/>
			<point x="665" y="-1" type="line"/>
			<point x="735" y="90"/>
			<point x="808" y="231"/>
			<point x="838" y="294" type="curve" smooth="yes"/>
			<point x="866" y="354"/>
			<point x="885" y="409"/>
			<point x="885" y="462" type="curve" smooth="yes"/>
			<point x="885" y="487"/>
			<point x="881" y="504"/>
			<point x="878" y="515" type="curve"/>
			<point x="867" y="520"/>
			<point x="848" y="526"/>
			<point x="822" y="526" type="curve" smooth="yes"/>
			<point x="768" y="526"/>
			<point x="734" y="492"/>
			<point x="734" y="438" type="curve" smooth="yes"/>
			<point x="734" y="402"/>
			<point x="746" y="377"/>
			<point x="765" y="343" type="curve" smooth="yes"/>
			<point x="796" y="285" type="line"/>
			<point x="796" y="400" type="line"/>
			<point x="791" y="379"/>
			<point x="780" y="342"/>
			<point x="772" y="315" type="curve" smooth="yes"/>
			<point x="743" y="224"/>
			<point x="708" y="145"/>
			<point x="656" y="48" type="curve"/>
			<point x="623" y="48" type="line"/>
			<point x="623" y="200"/>
			<point x="623" y="353"/>
			<point x="623" y="505" type="curve"/>
			<point x="452" y="505" type="line"/>
			<point x="427" y="319"/>
			<point x="386" y="168"/>
			<point x="336" y="48" type="curve"/>
			<point x="306" y="48" type="line"/>
			<point x="306" y="182"/>
			<point x="306" y="323"/>
			<point x="302" y="405" type="curve" smooth="yes"/>
			<point x="297" y="485"/>
			<point x="252" y="526"/>
			<point x="181" y="526" type="curve" smooth="yes"/>
			<point x="111" y="526"/>
			<point x="65" y="483"/>
			<point x="11" y="398" type="curve"/>
			<point x="63" y="365" type="line"/>
			<point x="89" y="404"/>
			<point x="102" y="416"/>
			<point x="118" y="416" type="curve" smooth="yes"/>
			<point x="134" y="416"/>
			<point x="142" y="406"/>
			<point x="146" y="377" type="curve" smooth="yes"/>
			<point x="158" y="285"/>
			<point x="166" y="128"/>
		</contour>
	</outline>
	<anchor name="aboveLC" x="508" y="534"/>
	<anchor name="belowLC" x="368" y="-20"/>
</glyph>
<glyph name="x" format="2">
	<unicode hex="0078"/>
	<advance width="679"/>
	<outline>
		<contour>
			<point x="463" y="-15" type="curve" smooth="yes"/>
			<point x="526" y="-15"/>
			<point x="569" y="27"/>
			<point x="622" y="115" type="curve"/>
			<point x="576" y="144" type="line"/>
			<point x="548" y="100"/>
			<point x="537" y="86"/>
			<point x="516" y="86" type="curve" smooth="yes"/>
			<point x="490" y="86"/>
			<point x="473" y="102"/>
			<point x="460" y="142" type="curve" smooth="yes"/>
			<point x="396" y="335" type="line"/>
			<point x="386" y="335" type="line"/>
			<point x="361" y="426" type="line" smooth="yes"/>
			<point x="341" y="495"/>
			<point x="309" y="529"/>
			<point x="244" y="529" type="curve" smooth="yes"/>
			<point x="183" y="529"/>
			<point x="133" y="487"/>
			<point x="78" y="412" type="curve"/>
			<point x="109" y="376" type="line"/>
			<point x="144" y="416"/>
			<point x="165" y="428"/>
			<point x="184" y="428" type="curve" smooth="yes"/>
			<point x="202" y="428"/>
			<point x="211" y="413"/>
			<point x="224" y="375" type="curve" smooth="yes"/>
			<point x="289" y="173" type="line"/>
			<point x="301" y="173" type="line"/>
			<point x="318" y="112" type="line" smooth="yes"/>
			<point x="345" y="21"/>
			<point x="383" y="-15"/>
		</contour>
		<contour>
			<point x="10" y="63" type="curve"/>
			<point x="16" y="12"/>
			<point x="51" y="-15"/>
			<point x="112" y="-15" type="curve" smooth="yes"/>
			<point x="166" y="-15"/>
			<point x="190" y="12"/>
			<point x="230" y="69" type="curve" smooth="yes"/>
			<point x="260" y="112"/>
			<point x="297" y="178"/>
			<point x="346" y="283" type="curve"/>
			<point x="330" y="308" type="line"/>
			<point x="296" y="242"/>
			<point x="236" y="158"/>
			<point x="196" y="105" type="curve" smooth="yes"/>
			<point x="185" y="90"/>
			<point x="172" y="75"/>
			<point x="158" y="58" type="curve"/>
			<point x="122" y="58" type="line"/>
			<point x="147" y="28" type="line"/>
			<point x="144" y="54" type="line" smooth="yes"/>
			<point x="141" y="106"/>
			<point x="123" y="136"/>
			<point x="78" y="136" type="curve" smooth="yes"/>
			<point x="41" y="136"/>
			<point x="16" y="104"/>
		</contour>
		<contour>
			<point x="374" y="226" type="line"/>
			<point x="411" y="300"/>
			<point x="457" y="368"/>
			<point x="495" y="420" type="curve" smooth="yes"/>
			<point x="503" y="431"/>
			<point x="517" y="449"/>
			<point x="526" y="460" type="curve"/>
			<point x="567" y="460" type="line"/>
			<point x="536" y="489" type="line"/>
			<point x="541" y="459" type="line" smooth="yes"/>
			<point x="545" y="406"/>
			<point x="562" y="378"/>
			<point x="604" y="378" type="curve" smooth="yes"/>
			<point x="643" y="378"/>
			<point x="665" y="408"/>
			<point x="674" y="447" type="curve"/>
			<point x="665" y="494"/>
			<point x="644" y="529"/>
			<point x="574" y="529" type="curve" smooth="yes"/>
			<point x="515" y="529"/>
			<point x="491" y="498"/>
			<point x="463" y="457" type="curve" smooth="yes"/>
			<point x="436" y="419"/>
			<point x="407" y="359"/>
			<point x="358" y="251" type="curve"/>
		</contour>
	</outline>
	<anchor name="aboveLC" x="418" y="534"/>
	<anchor name="belowLC" x="275" y="-20"/>
</glyph>
<glyph name="y" format="2">
	<unicode hex="0079"/>
	<advance width="636"/>
	<outline>
		<contour>
			<point x="-64" y="-157" type="curve"/>
			<point x="-56" y="-188"/>
			<point x="-25" y="-233"/>
			<point x="56" y="-233" type="curve" smooth="yes"/>
			<point x="149" y="-233"/>
			<point x="207" y="-185"/>
			<point x="248" y="-139" type="curve" smooth="yes"/>
			<point x="288" y="-94"/>
			<point x="323" y="-51"/>
			<point x="365" y="8" type="curve" smooth="yes"/>
			<point x="409" y="70"/>
			<point x="459" y="150"/>
			<point x="492" y="204" type="curve" smooth="yes"/>
			<point x="524" y="255"/>
			<point x="554" y="304"/>
			<point x="579" y="354" type="curve" smooth="yes"/>
			<point x="601" y="396"/>
			<point x="620" y="434"/>
			<point x="620" y="468" type="curve" smooth="yes"/>
			<point x="620" y="504"/>
			<point x="595" y="526"/>
			<point x="556" y="526" type="curve" smooth="yes"/>
			<point x="506" y="526"/>
			<point x="481" y="497"/>
			<point x="461" y="398" type="curve" smooth="yes"/>
			<point x="436" y="278"/>
			<point x="401" y="170"/>
			<point x="345" y="36" type="curve"/>
			<point x="321" y="9"/>
			<point x="280" y="-30"/>
			<point x="244" y="-70" type="curve" smooth="yes"/>
			<point x="208" y="-110"/>
			<point x="168" y="-149"/>
			<point x="141" y="-175" type="curve"/>
			<point x="80" y="-175" type="line"/>
			<point x="116" y="-189" type="line"/>
			<point x="104" y="-159" type="line" smooth="yes"/>
			<point x="90" y="-119"/>
			<point x="63" y="-92"/>
			<point x="14" y="-92" type="curve" smooth="yes"/>
			<point x="-34" y="-92"/>
			<point x="-57" y="-124"/>
		</contour>
		<contour>
			<point x="379" y="42" type="line"/>
			<point x="322" y="42" type="line"/>
			<point x="322" y="173"/>
			<point x="321" y="323"/>
			<point x="313" y="400" type="curve" smooth="yes"/>
			<point x="303" y="497"/>
			<point x="255" y="526"/>
			<point x="188" y="526" type="curve" smooth="yes"/>
			<point x="124" y="526"/>
			<point x="76" y="493"/>
			<point x="10" y="410" type="curve"/>
			<point x="57" y="367" type="line"/>
			<point x="90" y="407"/>
			<point x="103" y="419"/>
			<point x="120" y="419" type="curve" smooth="yes"/>
			<point x="137" y="419"/>
			<point x="148" y="409"/>
			<point x="161" y="349" type="curve" smooth="yes"/>
			<point x="187" y="251"/>
			<point x="215" y="81"/>
			<point x="228" y="-105" type="curve"/>
		</contour>
	</outline>
	<anchor name="aboveLC" x="395" y="534"/>
	<anchor name="belowLC" x="113" y="-241"/>
</glyph>
<glyph name="z" format="2">
	<unicode hex="007A"/>
	<advance width="584"/>
	<outline>
		<contour>
			<point x="349" y="-30" type="curve" smooth="yes"/>
			<point x="462" y="-30"/>
			<point x="534" y="62"/>
			<point x="534" y="173" type="curve" smooth="yes"/>
			<point x="534" y="222"/>
			<point x="516" y="258"/>
			<point x="493" y="272" type="curve"/>
			<point x="443" y="270"/>
			<point x="404" y="242"/>
			<point x="404" y="195" type="curve" smooth="yes"/>
			<point x="404" y="150"/>
			<point x="441" y="128"/>
			<point x="489" y="126" type="curve"/>
			<point x="489" y="84" type="line"/>
			<point x="494" y="100" type="line"/>
			<point x="475" y="95"/>
			<point x="450" y="90"/>
			<point x="408" y="90" type="curve" smooth="yes"/>
			<point x="315" y="90"/>
			<point x="234" y="119"/>
			<point x="172" y="168" type="curve"/>
			<point x="139" y="152" type="line"/>
			<point x="178" y="48"/>
			<point x="238" y="-30"/>
		</contour>
		<contour>
			<point x="129" y="0" type="line"/>
			<point x="163" y="114" type="line"/>
			<point x="251" y="193"/>
			<point x="367" y="275"/>
			<point x="460" y="357" type="curve" smooth="yes"/>
			<point x="525" y="413"/>
			<point x="558" y="464"/>
			<point x="574" y="510" type="curve"/>
			<point x="542" y="531" type="line"/>
			<point x="456" y="514" type="line"/>
			<point x="423" y="399" type="line"/>
			<point x="335" y="321"/>
			<point x="218" y="238"/>
			<point x="125" y="157" type="curve" smooth="yes"/>
			<point x="60" y="101"/>
			<point x="28" y="50"/>
			<point x="11" y="4" type="curve"/>
			<point x="43" y="-18" type="line"/>
		</contour>
		<contour>
			<point x="72" y="288" type="line"/>
			<point x="130" y="288" type="line"/>
			<point x="201" y="456" type="line"/>
			<point x="136" y="390" type="line"/>
			<point x="241" y="388"/>
			<point x="323" y="375"/>
			<point x="410" y="348" type="curve"/>
			<point x="463" y="383" type="line"/>
			<point x="398" y="469"/>
			<point x="299" y="513"/>
			<point x="199" y="529" type="curve"/>
			<point x="93" y="437" type="line"/>
		</contour>
	</outline>
	<anchor name="aboveLC" x="333" y="534"/>
	<anchor name="belowLC" x="217" y="-20"/>
</glyph>
<glyph name="asciitilde" format="2">
	<unicode hex="007E"/>
	<advance width="582"/>
	<outline>
		<contour>
			<point x="311" y="392" type="curve" smooth="yes"/>
			<point x="271" y="417"/>
			<point x="239" y="433"/>
			<point x="191" y="433" type="curve" smooth="yes"/>
			<point x="115" y="433"/>
			<point x="59" y="390"/>
			<point x="45" y="271" type="curve"/>
			<point x="127" y="257" type="line"/>
			<point x="135" y="302"/>
			<point x="151" y="325"/>
			<point x="190" y="325" type="curve" smooth="yes"/>
			<point x="225" y="325"/>
			<point x="248" y="310"/>
			<point x="271" y="296" type="curve" smooth="yes"/>
			<point x="311" y="271"/>
			<point x="343" y="255"/>
			<point x="391" y="255" type="curve" smooth="yes"/>
			<point x="466" y="255"/>
			<point x="519" y="298"/>
			<point x="537" y="417" type="curve"/>
			<point x="455" y="431" type="line"/>
			<point x="447" y="386"/>
			<point x="431" y="363"/>
			<point x="392" y="363" type="curve" smooth="yes"/>
			<point x="357" y="363"/>
			<point x="333" y="378"/>
		</contour>
	</outline>
</glyph>
<glyph name="yen" format="2">
	<unicode hex="00A5"/>
	<advance width="582"/>
	<outline>
		<contour>
			<point x="233" y="262" type="line"/>
			<point x="384" y="262" type="line"/>
			<point x="620" y="634" type="line"/>
			<point x="538" y="634" type="line"/>
			<point x="362" y="330" type="line"/>
			<point x="345" y="330" type="line"/>
			<point x="284" y="634" type="line"/>
			<point x="119" y="634" type="line"/>
		</contour>
		<contour>
			<point x="99" y="0" type="line"/>
			<point x="427" y="0" type="line"/>
			<point x="439" y="69" type="line"/>
			<point x="308" y="69" type="line"/>
			<point x="237" y="69" type="line"/>
			<point x="111" y="69" type="line"/>
		</contour>
		<contour>
			<point x="85" y="562" type="line"/>
			<point x="189" y="562" type="line"/>
			<point x="264" y="562" type="line"/>
			<point x="356" y="562" type="line"/>
			<point x="369" y="634" type="line"/>
			<point x="98" y="634" type="line"/>
		</contour>
		<contour>
			<point x="436" y="562" type="line"/>
			<point x="507" y="562" type="line"/>
			<point x="552" y="562" type="line"/>
			<point x="628" y="562" type="line"/>
			<point x="640" y="634" type="line"/>
			<point x="448" y="634" type="line"/>
		</contour>
		<contour>
			<point x="84" y="138" type="line"/>
			<point x="486" y="138" type="line"/>
			<point x="496" y="195" type="line"/>
			<point x="95" y="195" type="line"/>
		</contour>
		<contour>
			<point x="107" y="259" type="line"/>
			<point x="508" y="259" type="line"/>
			<point x="519" y="316" type="line"/>
			<point x="118" y="316" type="line"/>
		</contour>
		<contour>
			<point x="182" y="0" type="line"/>
			<point x="338" y="0" type="line"/>
			<point x="357" y="102"/>
			<point x="375" y="204"/>
			<point x="394" y="306" type="curve"/>
			<point x="238" y="306" type="line"/>
		</contour>
	</outline>
</glyph>
<glyph name="section" format="2">
	<unicode hex="00A7"/>
	<advance width="533"/>
	<outline>
		<contour>
			<point x="200" y="-131" type="curve" smooth="yes"/>
			<point x="314" y="-131"/>
			<point x="398" y="-73"/>
			<point x="398" y="21" type="curve" smooth="yes"/>
			<point x="398" y="93"/>
			<point x="337" y="135"/>
			<point x="282" y="175" type="curve" smooth="yes"/>
			<point x="252" y="197" type="line" smooth="yes"/>
			<point x="204" y="231"/>
			<point x="181" y="255"/>
			<point x="181" y="295" type="curve" smooth="yes"/>
			<point x="181" y="338"/>
			<point x="208" y="374"/>
			<point x="257" y="390" type="curve"/>
			<point x="236" y="409" type="line"/>
			<point x="218" y="386" type="line"/>
			<point x="132" y="373"/>
			<point x="67" y="331"/>
			<point x="67" y="246" type="curve" smooth="yes"/>
			<point x="67" y="174"/>
			<point x="110" y="140"/>
			<point x="177" y="92" type="curve" smooth="yes"/>
			<point x="206" y="71" type="line" smooth="yes"/>
			<point x="243" y="44"/>
			<point x="271" y="19"/>
			<point x="271" y="-22" type="curve" smooth="yes"/>
			<point x="271" y="-63"/>
			<point x="233" y="-95"/>
			<point x="172" y="-95" type="curve" smooth="yes"/>
			<point x="134" y="-95"/>
			<point x="112" y="-90"/>
			<point x="92" y="-85" type="curve"/>
			<point x="151" y="-114" type="line"/>
			<point x="139" y="-30" type="line" smooth="yes"/>
			<point x="133" y="11"/>
			<point x="112" y="32"/>
			<point x="76" y="32" type="curve" smooth="yes"/>
			<point x="41" y="32"/>
			<point x="25" y="7"/>
			<point x="21" y="-17" type="curve"/>
			<point x="29" y="-73"/>
			<point x="81" y="-131"/>
		</contour>
		<contour>
			<point x="345" y="673" type="curve" smooth="yes"/>
			<point x="233" y="673"/>
			<point x="156" y="615"/>
			<point x="156" y="522" type="curve" smooth="yes"/>
			<point x="156" y="450"/>
			<point x="217" y="407"/>
			<point x="272" y="368" type="curve" smooth="yes"/>
			<point x="302" y="346" type="line" smooth="yes"/>
			<point x="350" y="311"/>
			<point x="373" y="287"/>
			<point x="373" y="247" type="curve" smooth="yes"/>
			<point x="373" y="205"/>
			<point x="346" y="169"/>
			<point x="297" y="153" type="curve"/>
			<point x="322" y="135" type="line"/>
			<point x="337" y="156" type="line"/>
			<point x="423" y="171"/>
			<point x="486" y="212"/>
			<point x="486" y="297" type="curve" smooth="yes"/>
			<point x="486" y="369"/>
			<point x="444" y="402"/>
			<point x="377" y="450" type="curve" smooth="yes"/>
			<point x="348" y="472" type="line" smooth="yes"/>
			<point x="311" y="498"/>
			<point x="282" y="523"/>
			<point x="282" y="564" type="curve" smooth="yes"/>
			<point x="282" y="605"/>
			<point x="318" y="637"/>
			<point x="375" y="637" type="curve" smooth="yes"/>
			<point x="408" y="637"/>
			<point x="428" y="633"/>
			<point x="446" y="629" type="curve"/>
			<point x="373" y="656" type="line"/>
			<point x="394" y="585" type="line" smooth="yes"/>
			<point x="404" y="549"/>
			<point x="423" y="526"/>
			<point x="459" y="526" type="curve" smooth="yes"/>
			<point x="494" y="526"/>
			<point x="512" y="549"/>
			<point x="517" y="575" type="curve"/>
			<point x="509" y="623"/>
			<point x="459" y="673"/>
		</contour>
	</outline>
</glyph>
<glyph name="copyright" format="2">
	<unicode hex="00A9"/>
	<advance width="797"/>
	<outline>
		<contour>
			<point x="381" y="-15" type="curve" smooth="yes"/>
			<point x="581" y="-15"/>
			<point x="758" y="129"/>
			<point x="758" y="371" type="curve" smooth="yes"/>
			<point x="758" y="558"/>
			<point x="635" y="673"/>
			<point x="441" y="673" type="curve" smooth="yes"/>
			<point x="241" y="673"/>
			<point x="63" y="530"/>
			<point x="63" y="288" type="curve" smooth="yes"/>
			<point x="63" y="101"/>
			<point x="186" y="-15"/>
		</contour>
		<contour>
			<point x="385" y="37" type="curve" smooth="yes"/>
			<point x="222" y="37"/>
			<point x="123" y="132"/>
			<point x="123" y="291" type="curve" smooth="yes"/>
			<point x="123" y="499"/>
			<point x="277" y="621"/>
			<point x="438" y="621" type="curve" smooth="yes"/>
			<point x="599" y="621"/>
			<point x="698" y="527"/>
			<point x="698" y="367" type="curve" smooth="yes"/>
			<point x="698" y="160"/>
			<point x="544" y="37"/>
		</contour>
		<contour>
			<point x="413" y="125" type="curve" smooth="yes"/>
			<point x="466" y="125"/>
			<point x="503" y="138"/>
			<point x="523" y="149" type="curve"/>
			<point x="539" y="255" type="line"/>
			<point x="486" y="255" type="line"/>
			<point x="449" y="155" type="line"/>
			<point x="506" y="192" type="line"/>
			<point x="488" y="184"/>
			<point x="472" y="177"/>
			<point x="434" y="177" type="curve" smooth="yes"/>
			<point x="367" y="177"/>
			<point x="329" y="223"/>
			<point x="329" y="303" type="curve" smooth="yes"/>
			<point x="329" y="400"/>
			<point x="375" y="485"/>
			<point x="465" y="485" type="curve" smooth="yes"/>
			<point x="506" y="485"/>
			<point x="525" y="477"/>
			<point x="539" y="469" type="curve"/>
			<point x="491" y="505" type="line"/>
			<point x="503" y="406" type="line"/>
			<point x="556" y="406" type="line"/>
			<point x="567" y="515" type="line"/>
			<point x="545" y="525"/>
			<point x="509" y="537"/>
			<point x="455" y="537" type="curve" smooth="yes"/>
			<point x="319" y="537"/>
			<point x="224" y="435"/>
			<point x="224" y="299" type="curve" smooth="yes"/>
			<point x="224" y="185"/>
			<point x="304" y="125"/>
		</contour>
	</outline>
</glyph>
<glyph name="registered" format="2">
	<unicode hex="00AE"/>
	<advance width="492"/>
	<outline>
		<contour>
			<point x="175" y="416" type="line"/>
			<point x="277" y="416" type="line"/>
			<point x="282" y="443" type="line"/>
			<point x="243" y="443" type="line"/>
			<point x="213" y="443" type="line"/>
			<point x="180" y="443" type="line"/>
		</contour>
		<contour>
			<point x="196" y="416" type="line"/>
			<point x="254" y="416" type="line"/>
			<point x="291" y="614" type="line"/>
			<point x="233" y="614" type="line"/>
		</contour>
		<contour>
			<point x="242" y="587" type="line"/>
			<point x="249" y="587" type="line"/>
			<point x="249" y="614" type="line"/>
			<point x="213" y="614" type="line"/>
			<point x="208" y="587" type="line"/>
		</contour>
		<contour>
			<point x="270" y="350" type="curve" smooth="yes"/>
			<point x="187" y="350"/>
			<point x="130" y="404"/>
			<point x="130" y="491" type="curve" smooth="yes"/>
			<point x="130" y="602"/>
			<point x="209" y="672"/>
			<point x="302" y="672" type="curve" smooth="yes"/>
			<point x="385" y="672"/>
			<point x="442" y="618"/>
			<point x="442" y="532" type="curve" smooth="yes"/>
			<point x="442" y="420"/>
			<point x="363" y="350"/>
		</contour>
		<contour>
			<point x="268" y="307" type="curve" smooth="yes"/>
			<point x="388" y="307"/>
			<point x="490" y="394"/>
			<point x="490" y="535" type="curve" smooth="yes"/>
			<point x="490" y="644"/>
			<point x="411" y="715"/>
			<point x="304" y="715" type="curve" smooth="yes"/>
			<point x="184" y="715"/>
			<point x="82" y="628"/>
			<point x="82" y="487" type="curve" smooth="yes"/>
			<point x="82" y="378"/>
			<point x="161" y="307"/>
		</contour>
		<contour>
			<point x="352" y="412" type="curve" smooth="yes"/>
			<point x="366" y="412"/>
			<point x="374" y="414"/>
			<point x="381" y="416" type="curve"/>
			<point x="386" y="443" type="line"/>
			<point x="328" y="443" type="line"/>
			<point x="369" y="424" type="line"/>
			<point x="353" y="478" type="line" smooth="yes"/>
			<point x="347" y="496"/>
			<point x="335" y="505"/>
			<point x="297" y="506" type="curve"/>
			<point x="297" y="517" type="line"/>
			<point x="351" y="519"/>
			<point x="383" y="531"/>
			<point x="383" y="566" type="curve" smooth="yes"/>
			<point x="383" y="596"/>
			<point x="355" y="614"/>
			<point x="305" y="614" type="curve" smooth="yes"/>
			<point x="266" y="614" type="line"/>
			<point x="266" y="589" type="line"/>
			<point x="295" y="589" type="line" smooth="yes"/>
			<point x="316" y="589"/>
			<point x="326" y="579"/>
			<point x="326" y="561" type="curve" smooth="yes"/>
			<point x="326" y="538"/>
			<point x="313" y="523"/>
			<point x="281" y="522" type="curve" smooth="yes"/>
			<point x="252" y="521" type="line"/>
			<point x="252" y="503" type="line"/>
			<point x="275" y="501" type="line" smooth="yes"/>
			<point x="293" y="500"/>
			<point x="298" y="493"/>
			<point x="300" y="478" type="curve" smooth="yes"/>
			<point x="305" y="450" type="line" smooth="yes"/>
			<point x="309" y="426"/>
			<point x="323" y="412"/>
		</contour>
	</outline>
</glyph>
<glyph name="three.sups" format="2">
	<unicode hex="00B3"/>
	<advance width="354"/>
	<outline>
		<contour>
			<point x="252" y="397" type="curve" smooth="yes"/>
			<point x="356" y="397"/>
			<point x="427" y="446"/>
			<point x="427" y="524" type="curve" smooth="yes"/>
			<point x="427" y="594"/>
			<point x="365" y="624"/>
			<point x="277" y="626" type="curve"/>
			<point x="277" y="642" type="line"/>
			<point x="392" y="649"/>
			<point x="450" y="687"/>
			<point x="450" y="755" type="curve" smooth="yes"/>
			<point x="449" y="814"/>
			<point x="390" y="853"/>
			<point x="306" y="853" type="curve" smooth="yes"/>
			<point x="223" y="853"/>
			<point x="167" y="815"/>
			<point x="157" y="744" type="curve"/>
			<point x="164" y="732"/>
			<point x="175" y="721"/>
			<point x="199" y="721" type="curve" smooth="yes"/>
			<point x="222" y="721"/>
			<point x="241" y="735"/>
			<point x="246" y="771" type="curve" smooth="yes"/>
			<point x="256" y="836" type="line"/>
			<point x="223" y="805" type="line"/>
			<point x="233" y="809"/>
			<point x="244" y="811"/>
			<point x="259" y="811" type="curve" smooth="yes"/>
			<point x="294" y="811"/>
			<point x="326" y="792"/>
			<point x="327" y="743" type="curve" smooth="yes"/>
			<point x="327" y="692"/>
			<point x="295" y="656"/>
			<point x="222" y="656" type="curve"/>
			<point x="211" y="610" type="line"/>
			<point x="264" y="610"/>
			<point x="294" y="579"/>
			<point x="294" y="530" type="curve" smooth="yes"/>
			<point x="294" y="481"/>
			<point x="268" y="440"/>
			<point x="200" y="440" type="curve" smooth="yes"/>
			<point x="178" y="440"/>
			<point x="163" y="443"/>
			<point x="150" y="445" type="curve"/>
			<point x="188" y="418" type="line"/>
			<point x="188" y="490" type="line" smooth="yes"/>
			<point x="188" y="524"/>
			<point x="168" y="539"/>
			<point x="143" y="539" type="curve" smooth="yes"/>
			<point x="118" y="539"/>
			<point x="103" y="523"/>
			<point x="99" y="506" type="curve"/>
			<point x="105" y="451"/>
			<point x="150" y="397"/>
		</contour>
	</outline>
</glyph>
<glyph name="AE" format="2">
	<unicode hex="00C6"/>
	<advance width="975"/>
	<outline>
		<contour>
			<point x="535" y="0" type="line"/>
			<point x="869" y="0" type="line"/>
			<point x="906" y="179" type="line"/>
			<point x="829" y="179" type="line"/>
			<point x="750" y="27" type="line"/>
			<point x="842" y="69" type="line"/>
			<point x="535" y="69" type="line"/>
		</contour>
		<contour>
			<point x="859" y="483" type="line"/>
			<point x="935" y="483" type="line"/>
			<point x="960" y="657" type="line"/>
			<point x="633" y="657" type="line"/>
			<point x="633" y="589" type="line"/>
			<point x="894" y="589" type="line"/>
			<point x="836" y="633" type="line"/>
		</contour>
		<contour>
			<point x="-3" y="0" type="line"/>
			<point x="227" y="0" type="line"/>
			<point x="242" y="71" type="line"/>
			<point x="147" y="71" type="line"/>
			<point x="99" y="71" type="line"/>
			<point x="12" y="71" type="line"/>
		</contour>
		<contour>
			<point x="412" y="0" type="line"/>
			<point x="577" y="0" type="line"/>
			<point x="594" y="98"/>
			<point x="612" y="194"/>
			<point x="630" y="292" type="curve" smooth="yes"/>
			<point x="697" y="657" type="line"/>
			<point x="532" y="657" type="line"/>
			<point x="514" y="560"/>
			<point x="496" y="463"/>
			<point x="479" y="366" type="curve" smooth="yes"/>
		</contour>
		<contour>
			<point x="722" y="227" type="line"/>
			<point x="793" y="227" type="line"/>
			<point x="833" y="443" type="line"/>
			<point x="763" y="443" type="line"/>
			<point x="718" y="347" type="line"/>
			<point x="717" y="323" type="line"/>
		</contour>
		<contour>
			<point x="329" y="0" type="line"/>
			<point x="479" y="0" type="line"/>
			<point x="479" y="71" type="line"/>
			<point x="463" y="71" type="line"/>
			<point x="343" y="71" type="line"/>
		</contour>
		<contour>
			<point x="328" y="586" type="line"/>
			<point x="538" y="586" type="line"/>
			<point x="554" y="586" type="line"/>
			<point x="554" y="657" type="line"/>
			<point x="343" y="657" type="line"/>
		</contour>
		<contour>
			<point x="37" y="0" type="line"/>
			<point x="123" y="0" type="line"/>
			<point x="530" y="657" type="line"/>
			<point x="450" y="657" type="line"/>
		</contour>
		<contour>
			<point x="227" y="196" type="line"/>
			<point x="510" y="196" type="line"/>
			<point x="510" y="259" type="line"/>
			<point x="227" y="259" type="line"/>
		</contour>
		<contour>
			<point x="570" y="304" type="line"/>
			<point x="751" y="304" type="line"/>
			<point x="751" y="369" type="line"/>
			<point x="570" y="369" type="line"/>
		</contour>
	</outline>
	<anchor name="aboveUC" x="660" y="677"/>
</glyph>
<glyph name="Eth" format="2">
	<unicode hex="00D0"/>
	<advance width="781"/>
	<outline>
		<contour>
			<point x="437" y="307" type="line"/>
			<point x="448" y="370" type="line"/>
			<point x="69" y="370" type="line"/>
			<point x="58" y="307" type="line"/>
		</contour>
		<component base="D"/>
	</outline>
</glyph>
<glyph name="germandbls" format="2">
	<unicode hex="00DF"/>
	<advance width="669"/>
	<outline>
		<contour>
			<point x="67" y="17" type="curve" smooth="yes"/>
			<point x="58" y="-62"/>
			<point x="49" y="-108"/>
			<point x="41" y="-137" type="curve" smooth="yes"/>
			<point x="35" y="-161"/>
			<point x="24" y="-185"/>
			<point x="19" y="-193" type="curve"/>
			<point x="-30" y="-193" type="line"/>
			<point x="-4" y="-205" type="line"/>
			<point x="-18" y="-174" type="line" smooth="yes"/>
			<point x="-40" y="-115"/>
			<point x="-68" y="-92"/>
			<point x="-113" y="-92" type="curve" smooth="yes"/>
			<point x="-159" y="-92"/>
			<point x="-178" y="-123"/>
			<point x="-185" y="-152" type="curve"/>
			<point x="-171" y="-186"/>
			<point x="-128" y="-233"/>
			<point x="-36" y="-233" type="curve" smooth="yes"/>
			<point x="48" y="-233"/>
			<point x="100" y="-196"/>
			<point x="138" y="-150" type="curve" smooth="yes"/>
			<point x="176" y="-105"/>
			<point x="207" y="-44"/>
			<point x="224" y="74" type="curve" smooth="yes"/>
			<point x="245" y="219"/>
			<point x="266" y="368"/>
			<point x="286" y="513" type="curve" smooth="yes"/>
			<point x="302" y="619"/>
			<point x="348" y="675"/>
			<point x="424" y="675" type="curve" smooth="yes"/>
			<point x="477" y="675"/>
			<point x="506" y="649"/>
			<point x="506" y="607" type="curve" smooth="yes"/>
			<point x="506" y="559"/>
			<point x="484" y="539"/>
			<point x="438" y="494" type="curve" smooth="yes"/>
			<point x="393" y="450"/>
			<point x="349" y="405"/>
			<point x="349" y="339" type="curve" smooth="yes"/>
			<point x="349" y="281"/>
			<point x="377" y="245"/>
			<point x="426" y="197" type="curve" smooth="yes"/>
			<point x="476" y="148"/>
			<point x="491" y="125"/>
			<point x="491" y="92" type="curve" smooth="yes"/>
			<point x="491" y="55"/>
			<point x="470" y="29"/>
			<point x="425" y="29" type="curve" smooth="yes"/>
			<point x="396" y="29"/>
			<point x="382" y="32"/>
			<point x="364" y="37" type="curve"/>
			<point x="406" y="18" type="line"/>
			<point x="404" y="70" type="line" smooth="yes"/>
			<point x="403" y="122"/>
			<point x="378" y="141"/>
			<point x="345" y="141" type="curve" smooth="yes"/>
			<point x="311" y="141"/>
			<point x="289" y="121"/>
			<point x="282" y="83" type="curve"/>
			<point x="296" y="26"/>
			<point x="354" y="-15"/>
			<point x="435" y="-15" type="curve" smooth="yes"/>
			<point x="541" y="-15"/>
			<point x="626" y="44"/>
			<point x="626" y="142" type="curve" smooth="yes"/>
			<point x="626" y="211"/>
			<point x="591" y="260"/>
			<point x="538" y="308" type="curve" smooth="yes"/>
			<point x="486" y="357"/>
			<point x="468" y="374"/>
			<point x="468" y="405" type="curve" smooth="yes"/>
			<point x="468" y="437"/>
			<point x="485" y="460"/>
			<point x="529" y="493" type="curve" smooth="yes"/>
			<point x="602" y="545"/>
			<point x="639" y="562"/>
			<point x="639" y="619" type="curve" smooth="yes"/>
			<point x="639" y="687"/>
			<point x="559" y="728"/>
			<point x="438" y="728" type="curve" smooth="yes"/>
			<point x="276" y="728"/>
			<point x="135" y="662"/>
			<point x="112" y="438" type="curve" smooth="yes"/>
			<point x="97" y="299"/>
			<point x="82" y="157"/>
		</contour>
	</outline>
</glyph>
<glyph name="ae" format="2">
	<unicode hex="00E6"/>
	<advance width="847"/>
	<outline>
		<contour>
			<point x="185" y="-12" type="curve" smooth="yes"/>
			<point x="275" y="-12"/>
			<point x="312" y="45"/>
			<point x="347" y="98" type="curve"/>
			<point x="384" y="98" type="line"/>
			<point x="384" y="171" type="line"/>
			<point x="338" y="116"/>
			<point x="311" y="97"/>
			<point x="271" y="97" type="curve" smooth="yes"/>
			<point x="228" y="97"/>
			<point x="203" y="129"/>
			<point x="203" y="196" type="curve" smooth="yes"/>
			<point x="203" y="258"/>
			<point x="221" y="318"/>
			<point x="242" y="356" type="curve" smooth="yes"/>
			<point x="267" y="401"/>
			<point x="306" y="431"/>
			<point x="366" y="431" type="curve" smooth="yes"/>
			<point x="417" y="431"/>
			<point x="454" y="415"/>
			<point x="492" y="381" type="curve"/>
			<point x="524" y="469" type="line"/>
			<point x="498" y="490"/>
			<point x="446" y="514"/>
			<point x="363" y="514" type="curve" smooth="yes"/>
			<point x="183" y="514"/>
			<point x="38" y="346"/>
			<point x="38" y="162" type="curve" smooth="yes"/>
			<point x="38" y="50"/>
			<point x="104" y="-12"/>
		</contour>
		<component base="e" xOffset="309"/>
	</outline>
	<anchor name="aboveLC" x="484" y="534"/>
	<anchor name="belowLC" x="373" y="-20"/>
</glyph>
<glyph name="eth" format="2">
	<unicode hex="00F0"/>
	<advance width="615"/>
	<outline>
		<contour>
			<point x="257" y="-12" type="curve" smooth="yes"/>
			<point x="438" y="-12"/>
			<point x="577" y="135"/>
			<point x="577" y="346" type="curve" smooth="yes"/>
			<point x="577" y="565"/>
			<point x="436" y="675"/>
			<point x="259" y="728" type="curve"/>
			<point x="231" y="677" type="line"/>
			<point x="373" y="612"/>
			<point x="433" y="522"/>
			<point x="457" y="371" type="curve"/>
			<point x="435" y="371" type="line"/>
			<point x="421" y="435"/>
			<point x="384" y="490"/>
			<point x="290" y="490" type="curve" smooth="yes"/>
			<point x="145" y="490"/>
			<point x="38" y="360"/>
			<point x="38" y="198" type="curve" smooth="yes"/>
			<point x="38" y="59"/>
			<point x="130" y="-12"/>
		</contour>
		<contour>
			<point x="273" y="54" type="curve" smooth="yes"/>
			<point x="229" y="54"/>
			<point x="206" y="86"/>
			<point x="206" y="162" type="curve" smooth="yes"/>
			<point x="206" y="291"/>
			<point x="261" y="423"/>
			<point x="340" y="423" type="curve" smooth="yes"/>
			<point x="384" y="423"/>
			<point x="407" y="392"/>
			<point x="407" y="316" type="curve" smooth="yes"/>
			<point x="407" y="186"/>
			<point x="352" y="54"/>
		</contour>
		<contour>
			<point x="248" y="533" type="line"/>
			<point x="554" y="671" type="line"/>
			<point x="531" y="719" type="line"/>
			<point x="223" y="570" type="line"/>
		</contour>
	</outline>
</glyph>
<glyph name="oslash" format="2">
	<unicode hex="00F8"/>
	<advance width="621"/>
	<outline>
		<contour>
			<point x="601" y="494" type="line"/>
			<point x="561" y="537" type="line"/>
			<point x="20" y="20" type="line"/>
			<point x="61" y="-23" type="line"/>
		</contour>
		<contour>
			<point x="262" y="-12" type="curve" smooth="yes"/>
			<point x="450" y="-12"/>
			<point x="582" y="150"/>
			<point x="582" y="324" type="curve" smooth="yes"/>
			<point x="582" y="454"/>
			<point x="493" y="526"/>
			<point x="360" y="526" type="curve" smooth="yes"/>
			<point x="171" y="526"/>
			<point x="39" y="364"/>
			<point x="39" y="190" type="curve" smooth="yes"/>
			<point x="39" y="60"/>
			<point x="129" y="-12"/>
		</contour>
		<contour>
			<point x="276" y="54" type="curve" smooth="yes"/>
			<point x="223" y="54"/>
			<point x="194" y="84"/>
			<point x="194" y="167" type="curve" smooth="yes"/>
			<point x="194" y="309"/>
			<point x="259" y="459"/>
			<point x="346" y="459" type="curve" smooth="yes"/>
			<point x="398" y="459"/>
			<point x="427" y="430"/>
			<point x="427" y="347" type="curve" smooth="yes"/>
			<point x="427" y="205"/>
			<point x="362" y="54"/>
		</contour>
	</outline>
	<anchor name="aboveLC" x="363" y="534"/>
</glyph>
<glyph name="thorn" format="2">
	<unicode hex="00FE"/>
	<advance width="647"/>
	<outline>
		<contour>
			<point x="-72" y="-221" type="line"/>
			<point x="260" y="-221" type="line"/>
			<point x="273" y="-152" type="line"/>
			<point x="132" y="-152" type="line"/>
			<point x="57" y="-152" type="line"/>
			<point x="-59" y="-152" type="line"/>
		</contour>
		<contour>
			<point x="4" y="-221" type="line"/>
			<point x="168" y="-221" type="line"/>
			<point x="183" y="-132"/>
			<point x="199" y="-38"/>
			<point x="215" y="51" type="curve"/>
			<point x="224" y="51" type="line"/>
			<point x="297" y="393" type="line"/>
			<point x="284" y="393" type="line"/>
			<point x="358" y="716" type="line"/>
			<point x="308" y="723" type="line"/>
			<point x="98" y="686" type="line"/>
			<point x="85" y="624" type="line"/>
			<point x="229" y="609" type="line"/>
			<point x="181" y="636" type="line"/>
			<point x="169" y="578"/>
			<point x="159" y="530"/>
			<point x="147" y="472" type="curve" smooth="yes"/>
		</contour>
		<contour>
			<point x="265" y="-15" type="curve" smooth="yes"/>
			<point x="426" y="-15"/>
			<point x="613" y="175"/>
			<point x="613" y="376" type="curve" smooth="yes"/>
			<point x="613" y="468"/>
			<point x="560" y="529"/>
			<point x="481" y="529" type="curve" smooth="yes"/>
			<point x="397" y="529"/>
			<point x="345" y="476"/>
			<point x="314" y="412" type="curve"/>
			<point x="277" y="412" type="line"/>
			<point x="269" y="344" type="line"/>
			<point x="314" y="394"/>
			<point x="352" y="412"/>
			<point x="386" y="412" type="curve" smooth="yes"/>
			<point x="426" y="412"/>
			<point x="448" y="386"/>
			<point x="448" y="315" type="curve" smooth="yes"/>
			<point x="448" y="244"/>
			<point x="421" y="162"/>
			<point x="376" y="112" type="curve" smooth="yes"/>
			<point x="350" y="83"/>
			<point x="316" y="67"/>
			<point x="286" y="67" type="curve" smooth="yes"/>
			<point x="249" y="67"/>
			<point x="215" y="77"/>
			<point x="178" y="110" type="curve"/>
			<point x="140" y="15" type="line"/>
			<point x="174" y="-3"/>
			<point x="208" y="-15"/>
		</contour>
	</outline>
	<anchor name="aboveLC" x="262" y="726"/>
	<anchor name="belowLC" x="353" y="-20"/>
</glyph>
<glyph name="aogonek" format="2">
	<unicode hex="0105"/>
	<advance width="648"/>
	<outline>
		<contour>
			<point x="184" y="-12" type="curve" smooth="yes"/>
			<point x="268" y="-12"/>
			<point x="300" y="45"/>
			<point x="329" y="98" type="curve"/>
			<point x="372" y="98" type="line"/>
			<point x="373" y="176" type="line"/>
			<point x="326" y="121"/>
			<point x="299" y="97"/>
			<point x="265" y="97" type="curve" smooth="yes"/>
			<point x="225" y="97"/>
			<point x="203" y="126"/>
			<point x="203" y="193" type="curve" smooth="yes"/>
			<point x="203" y="250"/>
			<point x="220" y="308"/>
			<point x="241" y="350" type="curve" smooth="yes"/>
			<point x="262" y="391"/>
			<point x="297" y="446"/>
			<point x="367" y="446" type="curve" smooth="yes"/>
			<point x="417" y="446"/>
			<point x="451" y="426"/>
			<point x="494" y="383" type="curve"/>
			<point x="495" y="485" type="line"/>
			<point x="477" y="498"/>
			<point x="434" y="514"/>
			<point x="367" y="514" type="curve" smooth="yes"/>
			<point x="186" y="514"/>
			<point x="38" y="341"/>
			<point x="38" y="160" type="curve" smooth="yes"/>
			<point x="38" y="48"/>
			<point x="102" y="-12"/>
		</contour>
		<contour>
			<point x="391" y="-142" type="curve" smooth="yes"/>
			<point x="391" y="-191"/>
			<point x="427" y="-230"/>
			<point x="495" y="-230" type="curve" smooth="yes"/>
			<point x="558" y="-230"/>
			<point x="596" y="-201"/>
			<point x="614" y="-185" type="curve"/>
			<point x="588" y="-140" type="line"/>
			<point x="580" y="-145"/>
			<point x="564" y="-152"/>
			<point x="543" y="-152" type="curve" smooth="yes"/>
			<point x="513" y="-152"/>
			<point x="493" y="-135"/>
			<point x="493" y="-104" type="curve" smooth="yes"/>
			<point x="493" y="-68"/>
			<point x="512" y="-35"/>
			<point x="558" y="1" type="curve" smooth="yes"/>
			<point x="598" y="34"/>
			<point x="626" y="71"/>
			<point x="648" y="114" type="curve"/>
			<point x="597" y="147" type="line"/>
			<point x="568" y="101"/>
			<point x="558" y="85"/>
			<point x="536" y="85" type="curve" smooth="yes"/>
			<point x="519" y="85"/>
			<point x="511" y="95"/>
			<point x="511" y="113" type="curve" smooth="yes"/>
			<point x="511" y="131"/>
			<point x="516" y="154"/>
			<point x="523" y="185" type="curve" smooth="yes"/>
			<point x="602" y="540" type="line"/>
			<point x="531" y="540" type="line"/>
			<point x="447" y="463" type="line"/>
			<point x="419" y="463" type="line"/>
			<point x="345" y="132" type="line"/>
			<point x="365" y="132" type="line" smooth="yes"/>
			<point x="364" y="125"/>
			<point x="362" y="111"/>
			<point x="362" y="100" type="curve" smooth="yes"/>
			<point x="362" y="42"/>
			<point x="404" y="4"/>
			<point x="478" y="4" type="curve" smooth="yes"/>
			<point x="491" y="4"/>
			<point x="503" y="5"/>
			<point x="533" y="9" type="curve"/>
			<point x="503" y="35" type="line"/>
			<point x="503" y="-16" type="line"/>
			<point x="450" y="-34"/>
			<point x="391" y="-74"/>
		</contour>
	</outline>
	<anchor name="aboveLC" x="390" y="534"/>
	<anchor name="belowLC" x="275" y="-20"/>
</glyph>
<glyph name="dcroat" format="2">
	<unicode hex="0111"/>
	<advance width="652"/>
	<outline>
		<contour>
			<point x="481" y="-12" type="curve" smooth="yes"/>
			<point x="571" y="-12"/>
			<point x="616" y="49"/>
			<point x="650" y="114" type="curve"/>
			<point x="599" y="147" type="line"/>
			<point x="570" y="101"/>
			<point x="560" y="85"/>
			<point x="539" y="85" type="curve" smooth="yes"/>
			<point x="521" y="85"/>
			<point x="513" y="95"/>
			<point x="513" y="112" type="curve" smooth="yes"/>
			<point x="513" y="130"/>
			<point x="518" y="153"/>
			<point x="525" y="184" type="curve" smooth="yes"/>
			<point x="639" y="716" type="line"/>
			<point x="582" y="716" type="line"/>
			<point x="374" y="692" type="line"/>
			<point x="361" y="629" type="line"/>
			<point x="510" y="613" type="line"/>
			<point x="470" y="636" type="line"/>
			<point x="436" y="419" type="line"/>
			<point x="414" y="419" type="line"/>
			<point x="346" y="130" type="line"/>
			<point x="366" y="130" type="line" smooth="yes"/>
			<point x="364" y="121"/>
			<point x="363" y="111"/>
			<point x="363" y="99" type="curve" smooth="yes"/>
			<point x="363" y="31"/>
			<point x="404" y="-12"/>
		</contour>
		<contour>
			<point x="185" y="-12" type="curve" smooth="yes"/>
			<point x="270" y="-12"/>
			<point x="304" y="47"/>
			<point x="331" y="99" type="curve"/>
			<point x="373" y="99" type="line"/>
			<point x="373" y="176" type="line"/>
			<point x="329" y="124"/>
			<point x="302" y="97"/>
			<point x="268" y="97" type="curve" smooth="yes"/>
			<point x="228" y="97"/>
			<point x="204" y="125"/>
			<point x="204" y="180" type="curve" smooth="yes"/>
			<point x="204" y="238"/>
			<point x="222" y="292"/>
			<point x="241" y="329" type="curve" smooth="yes"/>
			<point x="259" y="365"/>
			<point x="294" y="408"/>
			<point x="357" y="408" type="curve" smooth="yes"/>
			<point x="405" y="408"/>
			<point x="437" y="392"/>
			<point x="461" y="368" type="curve"/>
			<point x="462" y="452" type="line"/>
			<point x="446" y="457"/>
			<point x="408" y="465"/>
			<point x="362" y="465" type="curve" smooth="yes"/>
			<point x="175" y="465"/>
			<point x="39" y="323"/>
			<point x="39" y="149" type="curve" smooth="yes"/>
			<point x="39" y="45"/>
			<point x="104" y="-12"/>
		</contour>
		<contour>
			<point x="312" y="521" type="line"/>
			<point x="678" y="521" type="line"/>
			<point x="688" y="566" type="line"/>
			<point x="322" y="566" type="line"/>
		</contour>
	</outline>
</glyph>
<glyph name="eogonek" format="2">
	<unicode hex="0119"/>
	<advance width="538"/>
	<outline>
		<contour>
			<point x="286" y="-230" type="curve" smooth="yes"/>
			<point x="349" y="-230"/>
			<point x="386" y="-201"/>
			<point x="405" y="-185" type="curve"/>
			<point x="379" y="-140" type="line"/>
			<point x="370" y="-145"/>
			<point x="356" y="-152"/>
			<point x="335" y="-152" type="curve" smooth="yes"/>
			<point x="303" y="-152"/>
			<point x="284" y="-134"/>
			<point x="284" y="-102" type="curve" smooth="yes"/>
			<point x="284" y="-63"/>
			<point x="313" y="-18"/>
			<point x="370" y="17" type="curve" smooth="yes"/>
			<point x="428" y="51"/>
			<point x="462" y="94"/>
			<point x="486" y="136" type="curve"/>
			<point x="434" y="176" type="line"/>
			<point x="392" y="126"/>
			<point x="359" y="94"/>
			<point x="303" y="94" type="curve" smooth="yes"/>
			<point x="242" y="94"/>
			<point x="201" y="127"/>
			<point x="201" y="217" type="curve" smooth="yes"/>
			<point x="201" y="342"/>
			<point x="272" y="462"/>
			<point x="340" y="462" type="curve" smooth="yes"/>
			<point x="367" y="462"/>
			<point x="380" y="445"/>
			<point x="380" y="419" type="curve" smooth="yes"/>
			<point x="380" y="355"/>
			<point x="327" y="275"/>
			<point x="129" y="231" type="curve"/>
			<point x="129" y="191" type="line"/>
			<point x="390" y="236"/>
			<point x="510" y="310"/>
			<point x="510" y="414" type="curve" smooth="yes"/>
			<point x="510" y="483"/>
			<point x="452" y="526"/>
			<point x="356" y="526" type="curve" smooth="yes"/>
			<point x="178" y="526"/>
			<point x="44" y="374"/>
			<point x="44" y="195" type="curve" smooth="yes"/>
			<point x="44" y="73"/>
			<point x="114" y="0"/>
			<point x="238" y="0" type="curve" smooth="yes"/>
			<point x="259" y="0"/>
			<point x="276" y="2"/>
			<point x="288" y="3" type="curve"/>
			<point x="288" y="-22" type="line"/>
			<point x="234" y="-46"/>
			<point x="181" y="-76"/>
			<point x="181" y="-142" type="curve" smooth="yes"/>
			<point x="181" y="-191"/>
			<point x="218" y="-230"/>
		</contour>
	</outline>
	<anchor name="aboveLC" x="353" y="534"/>
	<anchor name="belowLC" x="249" y="-20"/>
</glyph>
<glyph name="hbar" format="2">
	<unicode hex="0127"/>
	<advance width="682"/>
	<outline>
		<contour>
			<point x="505" y="-12" type="curve" smooth="yes"/>
			<point x="598" y="-12"/>
			<point x="641" y="46"/>
			<point x="681" y="112" type="curve"/>
			<point x="629" y="145" type="line"/>
			<point x="601" y="101"/>
			<point x="590" y="85"/>
			<point x="569" y="85" type="curve" smooth="yes"/>
			<point x="552" y="85"/>
			<point x="544" y="95"/>
			<point x="544" y="111" type="curve" smooth="yes"/>
			<point x="544" y="127"/>
			<point x="551" y="152"/>
			<point x="557" y="178" type="curve" smooth="yes"/>
			<point x="581" y="277" type="line" smooth="yes"/>
			<point x="589" y="309"/>
			<point x="597" y="343"/>
			<point x="597" y="372" type="curve" smooth="yes"/>
			<point x="597" y="438"/>
			<point x="549" y="482"/>
			<point x="467" y="482" type="curve" smooth="yes"/>
			<point x="373" y="482"/>
			<point x="330" y="419"/>
			<point x="292" y="349" type="curve"/>
			<point x="246" y="349" type="line"/>
			<point x="246" y="279" type="line"/>
			<point x="305" y="340"/>
			<point x="339" y="366"/>
			<point x="379" y="366" type="curve" smooth="yes"/>
			<point x="408" y="366"/>
			<point x="422" y="352"/>
			<point x="422" y="329" type="curve" smooth="yes"/>
			<point x="422" y="310"/>
			<point x="417" y="291"/>
			<point x="409" y="259" type="curve" smooth="yes"/>
			<point x="393" y="188" type="line" smooth="yes"/>
			<point x="385" y="156"/>
			<point x="379" y="124"/>
			<point x="379" y="98" type="curve" smooth="yes"/>
			<point x="379" y="31"/>
			<point x="426" y="-12"/>
		</contour>
		<contour>
			<point x="82" y="-14" type="line"/>
			<point x="206" y="0" type="line"/>
			<point x="222" y="72"/>
			<point x="236" y="145"/>
			<point x="251" y="217" type="curve" smooth="yes"/>
			<point x="272" y="317" type="line"/>
			<point x="248" y="317" type="line"/>
			<point x="358" y="716" type="line"/>
			<point x="301" y="716" type="line"/>
			<point x="88" y="692" type="line"/>
			<point x="75" y="629" type="line"/>
			<point x="229" y="613" type="line"/>
			<point x="175" y="636" type="line"/>
			<point x="160" y="567"/>
			<point x="148" y="509"/>
			<point x="133" y="440" type="curve" smooth="yes"/>
			<point x="39" y="0" type="line"/>
		</contour>
		<contour>
			<point x="73" y="521" type="line"/>
			<point x="439" y="521" type="line"/>
			<point x="449" y="566" type="line"/>
			<point x="83" y="566" type="line"/>
		</contour>
	</outline>
</glyph>
<glyph name="iogonek" format="2">
	<unicode hex="012F"/>
	<advance width="360"/>
	<outline>
		<contour>
			<point x="249" y="584" type="curve" smooth="yes"/>
			<point x="309" y="584"/>
			<point x="348" y="632"/>
			<point x="348" y="682" type="curve" smooth="yes"/>
			<point x="348" y="729"/>
			<point x="316" y="761"/>
			<point x="264" y="761" type="curve" smooth="yes"/>
			<point x="205" y="761"/>
			<point x="166" y="714"/>
			<point x="166" y="663" type="curve" smooth="yes"/>
			<point x="166" y="617"/>
			<point x="198" y="584"/>
		</contour>
		<contour>
			<point x="203" y="-230" type="curve" smooth="yes"/>
			<point x="267" y="-230"/>
			<point x="304" y="-201"/>
			<point x="322" y="-185" type="curve"/>
			<point x="296" y="-140" type="line"/>
			<point x="288" y="-145"/>
			<point x="272" y="-152"/>
			<point x="251" y="-152" type="curve" smooth="yes"/>
			<point x="220" y="-152"/>
			<point x="201" y="-136"/>
			<point x="201" y="-107" type="curve" smooth="yes"/>
			<point x="201" y="-65"/>
			<point x="230" y="-30"/>
			<point x="276" y="8" type="curve" smooth="yes"/>
			<point x="314" y="39"/>
			<point x="338" y="75"/>
			<point x="359" y="114" type="curve"/>
			<point x="308" y="147" type="line"/>
			<point x="279" y="101"/>
			<point x="269" y="85"/>
			<point x="247" y="85" type="curve" smooth="yes"/>
			<point x="230" y="85"/>
			<point x="221" y="95"/>
			<point x="221" y="113" type="curve" smooth="yes"/>
			<point x="221" y="131"/>
			<point x="227" y="157"/>
			<point x="234" y="190" type="curve" smooth="yes"/>
			<point x="306" y="514" type="line"/>
			<point x="249" y="514" type="line"/>
			<point x="33" y="461" type="line"/>
			<point x="20" y="399" type="line"/>
			<point x="168" y="399" type="line"/>
			<point x="123" y="435" type="line"/>
			<point x="75" y="226" type="line" smooth="yes"/>
			<point x="64" y="177"/>
			<point x="57" y="137"/>
			<point x="57" y="102" type="curve" smooth="yes"/>
			<point x="57" y="35"/>
			<point x="97" y="-4"/>
			<point x="159" y="-4" type="curve" smooth="yes"/>
			<point x="186" y="-4"/>
			<point x="204" y="2"/>
			<point x="210" y="6" type="curve"/>
			<point x="210" y="-22" type="line"/>
			<point x="153" y="-44"/>
			<point x="98" y="-76"/>
			<point x="98" y="-142" type="curve" smooth="yes"/>
			<point x="98" y="-191"/>
			<point x="134" y="-230"/>
		</contour>
	</outline>
</glyph>
<glyph name="kgreenlandic" format="2">
	<unicode hex="0138"/>
	<advance width="606"/>
	<outline>
		<contour>
			<point x="79" y="-14" type="line"/>
			<point x="204" y="0" type="line"/>
			<point x="220" y="80"/>
			<point x="238" y="159"/>
			<point x="254" y="239" type="curve" smooth="yes"/>
			<point x="285" y="377" type="line"/>
			<point x="314" y="514" type="line"/>
			<point x="257" y="514" type="line"/>
			<point x="40" y="461" type="line"/>
			<point x="27" y="399" type="line"/>
			<point x="174" y="399" type="line"/>
			<point x="130" y="434" type="line"/>
			<point x="36" y="0" type="line"/>
		</contour>
		<contour>
			<point x="481" y="-15" type="curve" smooth="yes"/>
			<point x="517" y="-15"/>
			<point x="556" y="-7"/>
			<point x="577" y="0" type="curve"/>
			<point x="585" y="50" type="line"/>
			<point x="563" y="53" type="line" smooth="yes"/>
			<point x="531" y="57"/>
			<point x="514" y="69"/>
			<point x="495" y="111" type="curve" smooth="yes"/>
			<point x="480" y="147" type="line" smooth="yes"/>
			<point x="447" y="224"/>
			<point x="393" y="243"/>
			<point x="304" y="249" type="curve" smooth="yes"/>
			<point x="268" y="251" type="line"/>
			<point x="268" y="260" type="line"/>
			<point x="474" y="352" type="line" smooth="yes"/>
			<point x="550" y="385"/>
			<point x="586" y="402"/>
			<point x="586" y="453" type="curve" smooth="yes"/>
			<point x="586" y="494"/>
			<point x="553" y="515"/>
			<point x="518" y="523" type="curve"/>
			<point x="248" y="265" type="line"/>
			<point x="248" y="232" type="line"/>
			<point x="259" y="230" type="line" smooth="yes"/>
			<point x="286" y="225"/>
			<point x="297" y="211"/>
			<point x="310" y="168" type="curve" smooth="yes"/>
			<point x="328" y="106" type="line" smooth="yes"/>
			<point x="352" y="20"/>
			<point x="397" y="-15"/>
		</contour>
	</outline>
</glyph>
<glyph name="Lslash" format="2">
	<unicode hex="0141"/>
	<advance width="609"/>
	<outline>
		<contour>
			<point x="485" y="482" type="line"/>
			<point x="252" y="354" type="line"/>
			<point x="252" y="301" type="line"/>
			<point x="470" y="407" type="line"/>
		</contour>
		<contour>
			<point x="223" y="357" type="line"/>
			<point x="54" y="275" type="line"/>
			<point x="39" y="201" type="line"/>
			<point x="223" y="303" type="line"/>
		</contour>
		<component base="L"/>
	</outline>
</glyph>
<glyph name="lslash" format="2">
	<unicode hex="0142"/>
	<advance width="368"/>
	<outline>
		<contour>
			<point x="208" y="413" type="line"/>
			<point x="20" y="330" type="line"/>
			<point x="2" y="248" type="line"/>
			<point x="208" y="360" type="line"/>
		</contour>
		<contour>
			<point x="401" y="506" type="line"/>
			<point x="195" y="395" type="line"/>
			<point x="195" y="342" type="line"/>
			<point x="383" y="425" type="line"/>
		</contour>
		<component base="l"/>
	</outline>
</glyph>
<glyph name="oe" format="2">
	<unicode hex="0153"/>
	<advance width="897"/>
	<outline>
		<contour>
			<point x="262" y="-12" type="curve" smooth="yes"/>
			<point x="367" y="-12"/>
			<point x="452" y="45"/>
			<point x="485" y="116" type="curve"/>
			<point x="440" y="116" type="line"/>
			<point x="457" y="42"/>
			<point x="515" y="-12"/>
			<point x="610" y="-12" type="curve" smooth="yes"/>
			<point x="736" y="-12"/>
			<point x="806" y="70"/>
			<point x="846" y="136" type="curve"/>
			<point x="793" y="176" type="line"/>
			<point x="751" y="126"/>
			<point x="719" y="94"/>
			<point x="663" y="94" type="curve" smooth="yes"/>
			<point x="601" y="94"/>
			<point x="560" y="127"/>
			<point x="560" y="217" type="curve" smooth="yes"/>
			<point x="560" y="342"/>
			<point x="629" y="462"/>
			<point x="698" y="462" type="curve" smooth="yes"/>
			<point x="725" y="462"/>
			<point x="738" y="445"/>
			<point x="738" y="419" type="curve" smooth="yes"/>
			<point x="738" y="355"/>
			<point x="686" y="275"/>
			<point x="488" y="231" type="curve"/>
			<point x="488" y="191" type="line"/>
			<point x="749" y="236"/>
			<point x="868" y="310"/>
			<point x="868" y="414" type="curve" smooth="yes"/>
			<point x="868" y="483"/>
			<point x="810" y="526"/>
			<point x="714" y="526" type="curve" smooth="yes"/>
			<point x="618" y="526"/>
			<point x="541" y="481"/>
			<point x="490" y="409" type="curve"/>
			<point x="520" y="409" type="line"/>
			<point x="500" y="482"/>
			<point x="438" y="526"/>
			<point x="345" y="526" type="curve" smooth="yes"/>
			<point x="171" y="526"/>
			<point x="39" y="364"/>
			<point x="39" y="190" type="curve" smooth="yes"/>
			<point x="39" y="60"/>
			<point x="129" y="-12"/>
		</contour>
		<contour>
			<point x="276" y="54" type="curve" smooth="yes"/>
			<point x="233" y="54"/>
			<point x="207" y="84"/>
			<point x="207" y="167" type="curve" smooth="yes"/>
			<point x="207" y="309"/>
			<point x="265" y="459"/>
			<point x="346" y="459" type="curve" smooth="yes"/>
			<point x="389" y="459"/>
			<point x="414" y="430"/>
			<point x="414" y="347" type="curve" smooth="yes"/>
			<point x="414" y="205"/>
			<point x="357" y="54"/>
		</contour>
	</outline>
	<anchor name="aboveLC" x="528" y="534"/>
</glyph>
<glyph name="uogonek" format="2">
	<unicode hex="0173"/>
	<advance width="690"/>
	<outline>
		<contour>
			<point x="196" y="-15" type="curve" smooth="yes"/>
			<point x="289" y="-15"/>
			<point x="334" y="48"/>
			<point x="373" y="119" type="curve"/>
			<point x="413" y="119" type="line"/>
			<point x="413" y="186" type="line"/>
			<point x="359" y="130"/>
			<point x="325" y="101"/>
			<point x="284" y="101" type="curve" smooth="yes"/>
			<point x="255" y="101"/>
			<point x="240" y="119"/>
			<point x="240" y="142" type="curve" smooth="yes"/>
			<point x="240" y="162"/>
			<point x="246" y="182"/>
			<point x="254" y="214" type="curve" smooth="yes"/>
			<point x="325" y="514" type="line"/>
			<point x="268" y="514" type="line"/>
			<point x="55" y="490" type="line"/>
			<point x="42" y="428" type="line"/>
			<point x="194" y="400" type="line"/>
			<point x="140" y="434" type="line"/>
			<point x="83" y="202" type="line" smooth="yes"/>
			<point x="75" y="170"/>
			<point x="67" y="130"/>
			<point x="67" y="100" type="curve" smooth="yes"/>
			<point x="67" y="33"/>
			<point x="115" y="-15"/>
		</contour>
		<contour>
			<point x="430" y="-142" type="curve" smooth="yes"/>
			<point x="430" y="-191"/>
			<point x="466" y="-230"/>
			<point x="534" y="-230" type="curve" smooth="yes"/>
			<point x="597" y="-230"/>
			<point x="635" y="-201"/>
			<point x="653" y="-185" type="curve"/>
			<point x="628" y="-140" type="line"/>
			<point x="619" y="-145"/>
			<point x="604" y="-152"/>
			<point x="582" y="-152" type="curve" smooth="yes"/>
			<point x="552" y="-152"/>
			<point x="532" y="-135"/>
			<point x="532" y="-104" type="curve" smooth="yes"/>
			<point x="532" y="-68"/>
			<point x="552" y="-35"/>
			<point x="597" y="1" type="curve" smooth="yes"/>
			<point x="637" y="34"/>
			<point x="665" y="71"/>
			<point x="688" y="112" type="curve"/>
			<point x="636" y="145" type="line"/>
			<point x="609" y="103"/>
			<point x="598" y="85"/>
			<point x="576" y="85" type="curve" smooth="yes"/>
			<point x="560" y="85"/>
			<point x="551" y="95"/>
			<point x="551" y="112" type="curve" smooth="yes"/>
			<point x="551" y="131"/>
			<point x="558" y="157"/>
			<point x="564" y="187" type="curve" smooth="yes"/>
			<point x="636" y="514" type="line"/>
			<point x="593" y="527" type="line"/>
			<point x="469" y="514" type="line"/>
			<point x="454" y="449"/>
			<point x="441" y="384"/>
			<point x="427" y="319" type="curve" smooth="yes"/>
			<point x="387" y="137" type="line"/>
			<point x="405" y="137" type="line"/>
			<point x="403" y="126"/>
			<point x="401" y="116"/>
			<point x="401" y="101" type="curve" smooth="yes"/>
			<point x="401" y="42"/>
			<point x="443" y="1"/>
			<point x="517" y="1" type="curve" smooth="yes"/>
			<point x="530" y="1"/>
			<point x="542" y="2"/>
			<point x="572" y="6" type="curve"/>
			<point x="542" y="33" type="line"/>
			<point x="542" y="-16" type="line"/>
			<point x="489" y="-34"/>
			<point x="430" y="-74"/>
		</contour>
	</outline>
	<anchor name="aboveLC" x="396" y="534"/>
	<anchor name="belowLC" x="328" y="-20"/>
</glyph>
<glyph name="longs" format="2">
	<unicode hex="017F"/>
	<advance width="407"/>
	<outline>
		<contour>
			<point x="-21" y="-233" type="curve" smooth="yes"/>
			<point x="56" y="-233"/>
			<point x="118" y="-196"/>
			<point x="156" y="-151" type="curve" smooth="yes"/>
			<point x="194" y="-105"/>
			<point x="225" y="-44"/>
			<point x="242" y="74" type="curve" smooth="yes"/>
			<point x="263" y="219"/>
			<point x="284" y="368"/>
			<point x="305" y="513" type="curve" smooth="yes"/>
			<point x="321" y="628"/>
			<point x="333" y="653"/>
			<point x="357" y="694" type="curve"/>
			<point x="342" y="685" type="line"/>
			<point x="398" y="685" type="line"/>
			<point x="369" y="692" type="line"/>
			<point x="400" y="637" type="line" smooth="yes"/>
			<point x="421" y="600"/>
			<point x="443" y="581"/>
			<point x="479" y="581" type="curve" smooth="yes"/>
			<point x="518" y="581"/>
			<point x="538" y="614"/>
			<point x="541" y="648" type="curve"/>
			<point x="532" y="685"/>
			<point x="478" y="728"/>
			<point x="388" y="728" type="curve" smooth="yes"/>
			<point x="270" y="728"/>
			<point x="165" y="672"/>
			<point x="135" y="446" type="curve" smooth="yes"/>
			<point x="116" y="304"/>
			<point x="97" y="159"/>
			<point x="78" y="17" type="curve" smooth="yes"/>
			<point x="67" y="-64"/>
			<point x="58" y="-105"/>
			<point x="48" y="-134" type="curve" smooth="yes"/>
			<point x="40" y="-159"/>
			<point x="31" y="-175"/>
			<point x="19" y="-198" type="curve"/>
			<point x="34" y="-190" type="line"/>
			<point x="-21" y="-190" type="line"/>
			<point x="13" y="-198" type="line"/>
			<point x="-4" y="-172" type="line" smooth="yes"/>
			<point x="-39" y="-115"/>
			<point x="-53" y="-98"/>
			<point x="-94" y="-98" type="curve" smooth="yes"/>
			<point x="-128" y="-98"/>
			<point x="-148" y="-120"/>
			<point x="-153" y="-152" type="curve"/>
			<point x="-148" y="-187"/>
			<point x="-113" y="-233"/>
		</contour>
	</outline>
</glyph>
<glyph name="Schwa" format="2">
	<unicode hex="018F"/>
	<advance width="705"/>
	<outline>
		<contour>
			<point x="290" y="-16" type="curve" smooth="yes"/>
			<point x="515" y="-16"/>
			<point x="669" y="174"/>
			<point x="669" y="414" type="curve" smooth="yes"/>
			<point x="669" y="579"/>
			<point x="568" y="673"/>
			<point x="404" y="673" type="curve" smooth="yes"/>
			<point x="280" y="673"/>
			<point x="204" y="621"/>
			<point x="162" y="573" type="curve"/>
			<point x="201" y="522" type="line"/>
			<point x="240" y="552"/>
			<point x="288" y="578"/>
			<point x="359" y="578" type="curve" smooth="yes"/>
			<point x="448" y="578"/>
			<point x="501" y="524"/>
			<point x="501" y="415" type="curve" smooth="yes"/>
			<point x="501" y="220"/>
			<point x="399" y="55"/>
			<point x="303" y="55" type="curve" smooth="yes"/>
			<point x="248" y="55"/>
			<point x="201" y="90"/>
			<point x="201" y="183" type="curve" smooth="yes"/>
			<point x="201" y="236"/>
			<point x="208" y="275"/>
			<point x="217" y="301" type="curve"/>
			<point x="564" y="301" type="line"/>
			<point x="564" y="368" type="line"/>
			<point x="79" y="368" type="line"/>
			<point x="68" y="335"/>
			<point x="54" y="283"/>
			<point x="54" y="220" type="curve" smooth="yes"/>
			<point x="54" y="69"/>
			<point x="137" y="-16"/>
		</contour>
	</outline>
	<anchor name="aboveUC" x="365" y="677"/>
	<anchor name="belowLC" x="271" y="-20"/>
</glyph>
<glyph name="dotlessj" format="2">
	<unicode hex="0237"/>
	<advance width="354"/>
	<outline>
		<contour>
			<point x="-57" y="-233" type="line"/>
			<point x="22" y="-217"/>
			<point x="81" y="-191"/>
			<point x="124" y="-147" type="curve" smooth="yes"/>
			<point x="168" y="-104"/>
			<point x="202" y="-46"/>
			<point x="223" y="61" type="curve" smooth="yes"/>
			<point x="312" y="514" type="line"/>
			<point x="255" y="514" type="line"/>
			<point x="38" y="461" type="line"/>
			<point x="25" y="399" type="line"/>
			<point x="173" y="399" type="line"/>
			<point x="129" y="435" type="line"/>
			<point x="58" y="29" type="line" smooth="yes"/>
			<point x="45" y="-41"/>
			<point x="31" y="-76"/>
			<point x="12" y="-105" type="curve" smooth="yes"/>
			<point x="-6" y="-135"/>
			<point x="-32" y="-163"/>
			<point x="-80" y="-179" type="curve"/>
		</contour>
	</outline>
	<anchor name="aboveLC" x="237" y="534"/>
</glyph>
<glyph name="schwa" format="2">
	<unicode hex="0259"/>
	<advance width="538"/>
	<outline>
		<contour>
			<point x="188" y="-12" type="curve" smooth="yes"/>
			<point x="366" y="-12"/>
			<point x="498" y="140"/>
			<point x="498" y="318" type="curve" smooth="yes"/>
			<point x="498" y="441"/>
			<point x="421" y="526"/>
			<point x="292" y="526" type="curve" smooth="yes"/>
			<point x="165" y="526"/>
			<point x="95" y="444"/>
			<point x="55" y="378" type="curve"/>
			<point x="109" y="338" type="line"/>
			<point x="150" y="388"/>
			<point x="182" y="419"/>
			<point x="239" y="419" type="curve" smooth="yes"/>
			<point x="300" y="419"/>
			<point x="341" y="387"/>
			<point x="341" y="297" type="curve" smooth="yes"/>
			<point x="341" y="172"/>
			<point x="272" y="51"/>
			<point x="204" y="51" type="curve" smooth="yes"/>
			<point x="176" y="51"/>
			<point x="163" y="69"/>
			<point x="163" y="95" type="curve" smooth="yes"/>
			<point x="163" y="159"/>
			<point x="216" y="239"/>
			<point x="413" y="283" type="curve"/>
			<point x="413" y="323" type="line"/>
			<point x="153" y="278"/>
			<point x="33" y="204"/>
			<point x="33" y="99" type="curve" smooth="yes"/>
			<point x="33" y="31"/>
			<point x="91" y="-12"/>
		</contour>
	</outline>
	<anchor name="aboveLC" x="363" y="534"/>
	<anchor name="belowLC" x="252" y="-20"/>
</glyph>
<glyph name="gscript" format="2">
	<unicode hex="0261"/>
	<advance width="636"/>
	<outline>
		<contour>
			<point x="197" y="-233" type="curve" smooth="yes"/>
			<point x="304" y="-233"/>
			<point x="376" y="-205"/>
			<point x="421" y="-158" type="curve" smooth="yes"/>
			<point x="465" y="-111"/>
			<point x="501" y="-46"/>
			<point x="519" y="172" type="curve"/>
			<point x="561" y="364" type="line"/>
			<point x="600" y="540" type="line"/>
			<point x="529" y="540" type="line"/>
			<point x="445" y="463" type="line"/>
			<point x="418" y="463" type="line"/>
			<point x="342" y="126" type="line"/>
			<point x="361" y="126" type="line"/>
			<point x="343" y="-38"/>
			<point x="327" y="-88"/>
			<point x="291" y="-126" type="curve" smooth="yes"/>
			<point x="255" y="-165"/>
			<point x="218" y="-181"/>
			<point x="149" y="-181" type="curve" smooth="yes"/>
			<point x="119" y="-181"/>
			<point x="95" y="-177"/>
			<point x="79" y="-173" type="curve"/>
			<point x="156" y="-207" type="line"/>
			<point x="148" y="-136" type="line" smooth="yes"/>
			<point x="141" y="-73"/>
			<point x="110" y="-51"/>
			<point x="67" y="-51" type="curve" smooth="yes"/>
			<point x="25" y="-51"/>
			<point x="6" y="-79"/>
			<point x="-2" y="-110" type="curve"/>
			<point x="14" y="-173"/>
			<point x="82" y="-233"/>
		</contour>
		<contour>
			<point x="182" y="-1" type="curve" smooth="yes"/>
			<point x="266" y="-1"/>
			<point x="298" y="57"/>
			<point x="327" y="109" type="curve"/>
			<point x="371" y="109" type="line"/>
			<point x="371" y="188" type="line"/>
			<point x="324" y="133"/>
			<point x="298" y="109"/>
			<point x="263" y="109" type="curve" smooth="yes"/>
			<point x="223" y="109"/>
			<point x="201" y="138"/>
			<point x="201" y="199" type="curve" smooth="yes"/>
			<point x="202" y="253"/>
			<point x="218" y="309"/>
			<point x="239" y="350" type="curve" smooth="yes"/>
			<point x="260" y="391"/>
			<point x="296" y="446"/>
			<point x="365" y="446" type="curve" smooth="yes"/>
			<point x="416" y="446"/>
			<point x="450" y="426"/>
			<point x="493" y="383" type="curve"/>
			<point x="493" y="485" type="line"/>
			<point x="476" y="498"/>
			<point x="432" y="514"/>
			<point x="365" y="514" type="curve" smooth="yes"/>
			<point x="185" y="514"/>
			<point x="37" y="344"/>
			<point x="37" y="166" type="curve" smooth="yes"/>
			<point x="37" y="57"/>
			<point x="101" y="-1"/>
		</contour>
	</outline>
	<anchor name="aboveLC" x="392" y="534"/>
	<anchor name="belowLC" x="162" y="-241"/>
</glyph>
<glyph name="h.sups" format="2">
	<unicode hex="02B0"/>
	<advance width="479"/>
	<outline>
		<contour>
			<point x="151" y="399" type="line"/>
			<point x="247" y="409" type="line"/>
			<point x="299" y="653" type="line"/>
			<point x="280" y="653" type="line"/>
			<point x="349" y="895" type="line"/>
			<point x="306" y="895" type="line"/>
			<point x="145" y="872" type="line"/>
			<point x="145" y="827" type="line"/>
			<point x="250" y="810" type="line"/>
			<point x="208" y="835" type="line"/>
			<point x="117" y="409" type="line"/>
		</contour>
		<contour>
			<point x="451" y="401" type="curve" smooth="yes"/>
			<point x="521" y="401"/>
			<point x="550" y="441"/>
			<point x="577" y="487" type="curve"/>
			<point x="537" y="510" type="line"/>
			<point x="520" y="483"/>
			<point x="514" y="473"/>
			<point x="501" y="473" type="curve" smooth="yes"/>
			<point x="481" y="473"/>
			<point x="484" y="492"/>
			<point x="494" y="535" type="curve" smooth="yes"/>
			<point x="514" y="624" type="line" smooth="yes"/>
			<point x="520" y="643"/>
			<point x="525" y="666"/>
			<point x="525" y="686" type="curve" smooth="yes"/>
			<point x="524" y="733"/>
			<point x="490" y="764"/>
			<point x="430" y="764" type="curve" smooth="yes"/>
			<point x="361" y="764"/>
			<point x="334" y="719"/>
			<point x="312" y="676" type="curve"/>
			<point x="279" y="676" type="line"/>
			<point x="279" y="627" type="line"/>
			<point x="315" y="663"/>
			<point x="337" y="677"/>
			<point x="361" y="677" type="curve" smooth="yes"/>
			<point x="380" y="677"/>
			<point x="390" y="667"/>
			<point x="390" y="654" type="curve" smooth="yes"/>
			<point x="390" y="641"/>
			<point x="387" y="629"/>
			<point x="382" y="609" type="curve" smooth="yes"/>
			<point x="366" y="542" type="line" smooth="yes"/>
			<point x="360" y="520"/>
			<point x="357" y="497"/>
			<point x="357" y="480" type="curve" smooth="yes"/>
			<point x="357" y="432"/>
			<point x="392" y="401"/>
		</contour>
	</outline>
</glyph>
<glyph name="r.sups" format="2">
	<unicode hex="02B3"/>
	<advance width="384"/>
	<outline>
		<contour>
			<point x="264" y="526" type="line"/>
			<point x="309" y="628"/>
			<point x="325" y="659"/>
			<point x="339" y="681" type="curve"/>
			<point x="379" y="681" type="line"/>
			<point x="341" y="701" type="line"/>
			<point x="361" y="666"/>
			<point x="375" y="650"/>
			<point x="410" y="650" type="curve" smooth="yes"/>
			<point x="448" y="650"/>
			<point x="466" y="680"/>
			<point x="471" y="710" type="curve"/>
			<point x="465" y="736"/>
			<point x="443" y="762"/>
			<point x="400" y="762" type="curve" smooth="yes"/>
			<point x="350" y="762"/>
			<point x="322" y="724"/>
			<point x="296" y="637" type="curve"/>
			<point x="263" y="637" type="line"/>
		</contour>
		<contour>
			<point x="122" y="409" type="line"/>
			<point x="156" y="399" type="line"/>
			<point x="252" y="409" type="line"/>
			<point x="284" y="567" type="line"/>
			<point x="296" y="622" type="line"/>
			<point x="296" y="756" type="line"/>
			<point x="252" y="756" type="line"/>
			<point x="117" y="716" type="line"/>
			<point x="117" y="670" type="line"/>
			<point x="216" y="670" type="line"/>
			<point x="182" y="696" type="line"/>
		</contour>
	</outline>
</glyph>
<glyph name="w.sups" format="2">
	<unicode hex="02B7"/>
	<advance width="641"/>
	<outline>
		<contour>
			<point x="211" y="408" type="curve"/>
			<point x="357" y="408" type="line"/>
			<point x="389" y="481"/>
			<point x="416" y="567"/>
			<point x="427" y="644" type="curve"/>
			<point x="439" y="644" type="line"/>
			<point x="439" y="566"/>
			<point x="439" y="487"/>
			<point x="439" y="408" type="curve"/>
			<point x="569" y="408" type="line"/>
			<point x="616" y="470"/>
			<point x="667" y="564"/>
			<point x="687" y="607" type="curve" smooth="yes"/>
			<point x="707" y="649"/>
			<point x="718" y="685"/>
			<point x="718" y="718" type="curve" smooth="yes"/>
			<point x="717" y="736"/>
			<point x="715" y="748"/>
			<point x="712" y="756" type="curve"/>
			<point x="704" y="760"/>
			<point x="689" y="764"/>
			<point x="670" y="764" type="curve" smooth="yes"/>
			<point x="629" y="764"/>
			<point x="604" y="740"/>
			<point x="604" y="702" type="curve" smooth="yes"/>
			<point x="605" y="676"/>
			<point x="613" y="657"/>
			<point x="652" y="598" type="curve"/>
			<point x="651" y="676" type="line"/>
			<point x="648" y="664"/>
			<point x="642" y="639"/>
			<point x="636" y="621" type="curve" smooth="yes"/>
			<point x="616" y="555"/>
			<point x="596" y="509"/>
			<point x="562" y="445" type="curve"/>
			<point x="537" y="445" type="line"/>
			<point x="537" y="547"/>
			<point x="537" y="647"/>
			<point x="537" y="749" type="curve"/>
			<point x="407" y="749" type="line"/>
			<point x="393" y="622"/>
			<point x="369" y="523"/>
			<point x="338" y="445" type="curve"/>
			<point x="315" y="445" type="line"/>
			<point x="315" y="530"/>
			<point x="314" y="623"/>
			<point x="311" y="679" type="curve" smooth="yes"/>
			<point x="307" y="735"/>
			<point x="273" y="764"/>
			<point x="221" y="764" type="curve" smooth="yes"/>
			<point x="170" y="764"/>
			<point x="136" y="734"/>
			<point x="98" y="676" type="curve"/>
			<point x="137" y="652" type="line"/>
			<point x="154" y="676"/>
			<point x="162" y="682"/>
			<point x="173" y="682" type="curve" smooth="yes"/>
			<point x="182" y="682"/>
			<point x="187" y="676"/>
			<point x="190" y="658" type="curve" smooth="yes"/>
			<point x="200" y="595"/>
			<point x="207" y="492"/>
		</contour>
	</outline>
</glyph>
<glyph name="ringhalfrightmod" format="2">
	<unicode hex="02BE"/>
	<advance width="221"/>
	<outline>
		<contour>
			<point x="97" y="502" type="line"/>
			<point x="208" y="506"/>
			<point x="266" y="567"/>
			<point x="266" y="644" type="curve" smooth="yes"/>
			<point x="266" y="709"/>
			<point x="216" y="751"/>
			<point x="141" y="755" type="curve"/>
			<point x="130" y="697" type="line"/>
			<point x="164" y="693"/>
			<point x="187" y="674"/>
			<point x="187" y="640" type="curve" smooth="yes"/>
			<point x="187" y="597"/>
			<point x="159" y="565"/>
			<point x="107" y="561" type="curve"/>
		</contour>
	</outline>
</glyph>
<glyph name="verticallinemod" format="2">
	<unicode hex="02C8"/>
	<advance width="264"/>
	<outline>
		<contour>
			<point x="137" y="550" type="line"/>
			<point x="236" y="550" type="line"/>
			<point x="295" y="752" type="line"/>
			<point x="162" y="752" type="line"/>
		</contour>
	</outline>
</glyph>
<glyph name="l.sups" format="2">
	<unicode hex="02E1"/>
	<advance width="251"/>
	<outline>
		<contour>
			<point x="222" y="401" type="curve" smooth="yes"/>
			<point x="295" y="401"/>
			<point x="326" y="444"/>
			<point x="348" y="488" type="curve"/>
			<point x="309" y="512" type="line"/>
			<point x="292" y="483"/>
			<point x="286" y="473"/>
			<point x="272" y="473" type="curve" smooth="yes"/>
			<point x="254" y="473"/>
			<point x="253" y="489"/>
			<point x="263" y="538" type="curve" smooth="yes"/>
			<point x="340" y="895" type="line"/>
			<point x="296" y="895" type="line"/>
			<point x="136" y="872" type="line"/>
			<point x="136" y="827" type="line"/>
			<point x="240" y="810" type="line"/>
			<point x="201" y="835" type="line"/>
			<point x="140" y="567" type="line" smooth="yes"/>
			<point x="132" y="532"/>
			<point x="128" y="507"/>
			<point x="128" y="482" type="curve" smooth="yes"/>
			<point x="128" y="432"/>
			<point x="164" y="401"/>
		</contour>
	</outline>
</glyph>
<glyph name="circumflexcmb" format="2">
	<unicode hex="0302"/>
	<outline>
		<contour>
			<point x="257" y="558" type="line"/>
			<point x="299" y="592" type="line"/>
			<point x="191" y="769" type="line"/>
			<point x="123" y="769" type="line"/>
			<point x="-44" y="596" type="line"/>
			<point x="-10" y="558" type="line"/>
			<point x="189" y="705" type="line"/>
			<point x="109" y="705" type="line"/>
		</contour>
	</outline>
	<anchor name="_aboveLC" x="114" y="534"/>
	<anchor name="aboveLC" x="164" y="769"/>
</glyph>
<glyph name="tildecmb" format="2">
	<unicode hex="0303"/>
	<outline>
		<contour>
			<point x="-57" y="601" type="curve"/>
			<point x="1" y="586" type="line"/>
			<point x="14" y="632"/>
			<point x="32" y="651"/>
			<point x="57" y="651" type="curve" smooth="yes"/>
			<point x="84" y="651"/>
			<point x="100" y="635"/>
			<point x="126" y="616" type="curve" smooth="yes"/>
			<point x="153" y="596"/>
			<point x="180" y="581"/>
			<point x="215" y="581" type="curve" smooth="yes"/>
			<point x="275" y="581"/>
			<point x="306" y="626"/>
			<point x="324" y="724" type="curve"/>
			<point x="266" y="739" type="line"/>
			<point x="253" y="689"/>
			<point x="245" y="675"/>
			<point x="218" y="675" type="curve" smooth="yes"/>
			<point x="191" y="675"/>
			<point x="174" y="691"/>
			<point x="149" y="709" type="curve" smooth="yes"/>
			<point x="121" y="729"/>
			<point x="94" y="744"/>
			<point x="61" y="744" type="curve" smooth="yes"/>
			<point x="0" y="744"/>
			<point x="-41" y="694"/>
		</contour>
	</outline>
	<anchor name="_aboveLC" x="114" y="534"/>
	<anchor name="aboveLC" x="159" y="744"/>
</glyph>
<glyph name="macroncmb" format="2">
	<unicode hex="0304"/>
	<outline>
		<contour>
			<point x="-7" y="614" type="line"/>
			<point x="267" y="614" type="line"/>
			<point x="283" y="695" type="line"/>
			<point x="8" y="695" type="line"/>
		</contour>
	</outline>
	<anchor name="_aboveLC" x="114" y="534"/>
	<anchor name="aboveLC" x="148" y="695"/>
</glyph>
<glyph name="ringcmb" format="2">
	<unicode hex="030A"/>
	<outline>
		<contour>
			<point x="133" y="569" type="curve" smooth="yes"/>
			<point x="213" y="569"/>
			<point x="268" y="625"/>
			<point x="268" y="699" type="curve" smooth="yes"/>
			<point x="268" y="761"/>
			<point x="225" y="802"/>
			<point x="159" y="802" type="curve" smooth="yes"/>
			<point x="79" y="802"/>
			<point x="24" y="746"/>
			<point x="24" y="672" type="curve" smooth="yes"/>
			<point x="24" y="610"/>
			<point x="67" y="569"/>
		</contour>
		<contour>
			<point x="141" y="627" type="curve" smooth="yes"/>
			<point x="107" y="627"/>
			<point x="86" y="647"/>
			<point x="86" y="679" type="curve" smooth="yes"/>
			<point x="86" y="718"/>
			<point x="115" y="744"/>
			<point x="150" y="744" type="curve" smooth="yes"/>
			<point x="184" y="744"/>
			<point x="205" y="724"/>
			<point x="205" y="692" type="curve" smooth="yes"/>
			<point x="205" y="653"/>
			<point x="177" y="627"/>
		</contour>
	</outline>
	<anchor name="_aboveLC" x="113" y="534"/>
	<anchor name="aboveLC" x="170" y="802"/>
</glyph>
<glyph name="caroncmb" format="2">
	<unicode hex="030C"/>
	<outline>
		<contour>
			<point x="42" y="788" type="line"/>
			<point x="-3" y="758" type="line"/>
			<point x="93" y="571" type="line"/>
			<point x="164" y="571" type="line"/>
			<point x="328" y="753" type="line"/>
			<point x="290" y="788" type="line"/>
			<point x="101" y="639" type="line"/>
			<point x="172" y="639" type="line"/>
		</contour>
	</outline>
	<anchor name="_aboveLC" x="114" y="534"/>
	<anchor name="aboveLC" x="168" y="788"/>
</glyph>
<glyph name="commabelowcmb" format="2">
	<unicode hex="0326"/>
	<outline>
		<contour>
			<point x="45" y="-125" type="curve" smooth="yes"/>
			<point x="45" y="-95"/>
			<point x="38" y="-75"/>
			<point x="30" y="-61" type="curve"/>
			<point x="24" y="-57"/>
			<point x="8" y="-52"/>
			<point x="-16" y="-52" type="curve" smooth="yes"/>
			<point x="-61" y="-52"/>
			<point x="-90" y="-79"/>
			<point x="-90" y="-118" type="curve" smooth="yes"/>
			<point x="-90" y="-154"/>
			<point x="-61" y="-178"/>
			<point x="-17" y="-194" type="curve"/>
			<point x="-17" y="-162" type="line"/>
			<point x="-41" y="-191"/>
			<point x="-82" y="-213"/>
			<point x="-131" y="-230" type="curve"/>
			<point x="-109" y="-277" type="line"/>
			<point x="-8" y="-253"/>
			<point x="45" y="-199"/>
		</contour>
	</outline>
	<anchor name="_belowLC" x="-5" y="-20"/>
	<anchor name="belowLC" x="-59" y="-277"/>
</glyph>
<glyph name="Theta" format="2">
	<unicode hex="0398"/>
	<advance width="752"/>
	<outline>
		<contour>
			<point x="269" y="240" type="line"/>
			<point x="324" y="240" type="line"/>
			<point x="363" y="318" type="line"/>
			<point x="363" y="340" type="line"/>
			<point x="357" y="417" type="line"/>
			<point x="302" y="417" type="line"/>
		</contour>
		<contour>
			<point x="419" y="240" type="line"/>
			<point x="474" y="240" type="line"/>
			<point x="506" y="417" type="line"/>
			<point x="451" y="417" type="line"/>
			<point x="413" y="340" type="line"/>
			<point x="412" y="318" type="line"/>
		</contour>
		<contour>
			<point x="330" y="-16" type="curve" smooth="yes"/>
			<point x="565" y="-16"/>
			<point x="716" y="199"/>
			<point x="716" y="410" type="curve" smooth="yes"/>
			<point x="716" y="587"/>
			<point x="605" y="673"/>
			<point x="445" y="673" type="curve" smooth="yes"/>
			<point x="211" y="673"/>
			<point x="59" y="459"/>
			<point x="59" y="248" type="curve" smooth="yes"/>
			<point x="59" y="70"/>
			<point x="171" y="-16"/>
		</contour>
		<contour>
			<point x="335" y="55" type="curve" smooth="yes"/>
			<point x="263" y="55"/>
			<point x="223" y="97"/>
			<point x="223" y="217" type="curve" smooth="yes"/>
			<point x="223" y="392"/>
			<point x="313" y="602"/>
			<point x="440" y="602" type="curve" smooth="yes"/>
			<point x="513" y="602"/>
			<point x="553" y="561"/>
			<point x="553" y="441" type="curve" smooth="yes"/>
			<point x="553" y="265"/>
			<point x="462" y="55"/>
		</contour>
		<contour>
			<point x="331" y="299" type="line"/>
			<point x="445" y="299" type="line"/>
			<point x="445" y="359" type="line"/>
			<point x="331" y="359" type="line"/>
		</contour>
	</outline>
</glyph>
<glyph name="Lambda" format="2">
	<unicode hex="039B"/>
	<advance width="730"/>
	<outline>
		<contour>
			<point x="-2" y="0" type="line"/>
			<point x="228" y="0" type="line"/>
			<point x="241" y="71" type="line"/>
			<point x="145" y="71" type="line"/>
			<point x="99" y="71" type="line"/>
			<point x="11" y="71" type="line"/>
		</contour>
		<contour>
			<point x="42" y="0" type="line"/>
			<point x="125" y="0" type="line"/>
			<point x="394" y="566" type="line"/>
			<point x="408" y="566" type="line"/>
			<point x="471" y="0" type="line"/>
			<point x="622" y="0" type="line"/>
			<point x="527" y="657" type="line"/>
			<point x="370" y="657" type="line"/>
		</contour>
		<contour>
			<point x="366" y="0" type="line"/>
			<point x="673" y="0" type="line"/>
			<point x="686" y="71" type="line"/>
			<point x="569" y="71" type="line"/>
			<point x="501" y="71" type="line"/>
			<point x="379" y="71" type="line"/>
		</contour>
	</outline>
</glyph>
<glyph name="Phi" format="2">
	<unicode hex="03A6"/>
	<advance width="845"/>
	<outline>
		<contour>
			<point x="337" y="137" type="curve"/>
			<point x="337" y="201" type="line"/>
			<point x="258" y="201"/>
			<point x="222" y="234"/>
			<point x="222" y="298" type="curve" smooth="yes"/>
			<point x="222" y="377"/>
			<point x="274" y="456"/>
			<point x="394" y="456" type="curve"/>
			<point x="394" y="521" type="line"/>
			<point x="188" y="521"/>
			<point x="59" y="437"/>
			<point x="59" y="304" type="curve" smooth="yes"/>
			<point x="59" y="198"/>
			<point x="147" y="137"/>
		</contour>
		<contour>
			<point x="211" y="0" type="line"/>
			<point x="544" y="0" type="line"/>
			<point x="556" y="71" type="line"/>
			<point x="426" y="71" type="line"/>
			<point x="349" y="71" type="line"/>
			<point x="224" y="71" type="line"/>
		</contour>
		<contour>
			<point x="291" y="0" type="line"/>
			<point x="458" y="0" type="line"/>
			<point x="476" y="98"/>
			<point x="494" y="194"/>
			<point x="512" y="292" type="curve" smooth="yes"/>
			<point x="579" y="657" type="line"/>
			<point x="411" y="657" type="line"/>
			<point x="394" y="560"/>
			<point x="375" y="463"/>
			<point x="358" y="366" type="curve" smooth="yes"/>
		</contour>
		<contour>
			<point x="313" y="586" type="line"/>
			<point x="444" y="586" type="line"/>
			<point x="520" y="586" type="line"/>
			<point x="645" y="586" type="line"/>
			<point x="658" y="657" type="line"/>
			<point x="326" y="657" type="line"/>
		</contour>
		<contour>
			<point x="476" y="137" type="line"/>
			<point x="681" y="137"/>
			<point x="810" y="221"/>
			<point x="810" y="354" type="curve" smooth="yes"/>
			<point x="810" y="460"/>
			<point x="722" y="521"/>
			<point x="533" y="521" type="curve"/>
			<point x="533" y="456" type="line"/>
			<point x="611" y="456"/>
			<point x="647" y="424"/>
			<point x="647" y="359" type="curve" smooth="yes"/>
			<point x="647" y="281"/>
			<point x="595" y="201"/>
			<point x="476" y="201" type="curve"/>
		</contour>
	</outline>
</glyph>
<glyph name="Psi" format="2">
	<unicode hex="03A8"/>
	<advance width="885"/>
	<outline>
		<contour>
			<point x="421" y="211" type="curve"/>
			<point x="421" y="269" type="line"/>
			<point x="328" y="274"/>
			<point x="302" y="298"/>
			<point x="301" y="387" type="curve" smooth="yes"/>
			<point x="300" y="518" type="line" smooth="yes"/>
			<point x="299" y="609"/>
			<point x="262" y="657"/>
			<point x="129" y="657" type="curve" smooth="yes"/>
			<point x="94" y="657" type="line"/>
			<point x="82" y="592" type="line"/>
			<point x="94" y="590" type="line" smooth="yes"/>
			<point x="125" y="585"/>
			<point x="139" y="569"/>
			<point x="142" y="530" type="curve" smooth="yes"/>
			<point x="150" y="408" type="line" smooth="yes"/>
			<point x="159" y="263"/>
			<point x="240" y="211"/>
		</contour>
		<contour>
			<point x="482" y="211" type="line"/>
			<point x="691" y="211"/>
			<point x="779" y="263"/>
			<point x="824" y="398" type="curve" smooth="yes"/>
			<point x="869" y="535" type="line" smooth="yes"/>
			<point x="883" y="574"/>
			<point x="899" y="587"/>
			<point x="925" y="590" type="curve" smooth="yes"/>
			<point x="944" y="592" type="line"/>
			<point x="956" y="657" type="line"/>
			<point x="896" y="657" type="line" smooth="yes"/>
			<point x="789" y="657"/>
			<point x="733" y="623"/>
			<point x="706" y="526" type="curve" smooth="yes"/>
			<point x="670" y="395" type="line" smooth="yes"/>
			<point x="645" y="306"/>
			<point x="611" y="269"/>
			<point x="482" y="269" type="curve"/>
		</contour>
		<contour>
			<point x="246" y="0" type="line"/>
			<point x="572" y="0" type="line"/>
			<point x="585" y="71" type="line"/>
			<point x="454" y="71" type="line"/>
			<point x="384" y="71" type="line"/>
			<point x="259" y="71" type="line"/>
		</contour>
		<contour>
			<point x="325" y="0" type="line"/>
			<point x="487" y="0" type="line"/>
			<point x="505" y="98"/>
			<point x="523" y="194"/>
			<point x="540" y="292" type="curve" smooth="yes"/>
			<point x="606" y="657" type="line"/>
			<point x="444" y="657" type="line"/>
			<point x="427" y="560"/>
			<point x="409" y="463"/>
			<point x="392" y="366" type="curve" smooth="yes"/>
		</contour>
		<contour>
			<point x="353" y="586" type="line"/>
			<point x="477" y="586" type="line"/>
			<point x="548" y="586" type="line"/>
			<point x="666" y="586" type="line"/>
			<point x="678" y="657" type="line"/>
			<point x="366" y="657" type="line"/>
		</contour>
	</outline>
</glyph>
<glyph name="alpha" format="2">
	<unicode hex="03B1"/>
	<advance width="705"/>
	<outline>
		<contour>
			<point x="195" y="-15" type="curve" smooth="yes"/>
			<point x="286" y="-15"/>
			<point x="331" y="54"/>
			<point x="370" y="128" type="curve"/>
			<point x="412" y="128" type="line"/>
			<point x="412" y="220" type="line"/>
			<point x="351" y="136"/>
			<point x="315" y="90"/>
			<point x="271" y="90" type="curve" smooth="yes"/>
			<point x="238" y="90"/>
			<point x="213" y="118"/>
			<point x="213" y="184" type="curve" smooth="yes"/>
			<point x="213" y="302"/>
			<point x="270" y="459"/>
			<point x="337" y="459" type="curve" smooth="yes"/>
			<point x="366" y="459"/>
			<point x="379" y="433"/>
			<point x="382" y="366" type="curve" smooth="yes"/>
			<point x="395" y="135" type="line" smooth="yes"/>
			<point x="401" y="23"/>
			<point x="444" y="-15"/>
			<point x="511" y="-15" type="curve" smooth="yes"/>
			<point x="576" y="-15"/>
			<point x="617" y="21"/>
			<point x="657" y="66" type="curve"/>
			<point x="622" y="109" type="line"/>
			<point x="609" y="98"/>
			<point x="594" y="86"/>
			<point x="577" y="86" type="curve" smooth="yes"/>
			<point x="553" y="86"/>
			<point x="545" y="106"/>
			<point x="539" y="169" type="curve" smooth="yes"/>
			<point x="522" y="337" type="line"/>
			<point x="506" y="337" type="line"/>
			<point x="502" y="387" type="line" smooth="yes"/>
			<point x="493" y="484"/>
			<point x="456" y="529"/>
			<point x="350" y="529" type="curve" smooth="yes"/>
			<point x="183" y="529"/>
			<point x="50" y="352"/>
			<point x="50" y="165" type="curve" smooth="yes"/>
			<point x="50" y="49"/>
			<point x="108" y="-15"/>
		</contour>
		<contour>
			<point x="499" y="249" type="line"/>
			<point x="713" y="438" type="line"/>
			<point x="713" y="482" type="line"/>
			<point x="597" y="529" type="line"/>
			<point x="492" y="265" type="line"/>
		</contour>
	</outline>
	<anchor name="aboveLC" x="434" y="534"/>
	<anchor name="belowLC" x="330" y="-20"/>
</glyph>
<glyph name="gamma" format="2">
	<unicode hex="03B3"/>
	<advance width="598"/>
	<outline>
		<contour>
			<point x="203" y="-6" type="curve"/>
			<point x="329" y="-1" type="line"/>
			<point x="406" y="90"/>
			<point x="494" y="231"/>
			<point x="524" y="294" type="curve" smooth="yes"/>
			<point x="553" y="354"/>
			<point x="571" y="409"/>
			<point x="571" y="462" type="curve" smooth="yes"/>
			<point x="571" y="487"/>
			<point x="568" y="504"/>
			<point x="564" y="515" type="curve"/>
			<point x="553" y="520"/>
			<point x="534" y="526"/>
			<point x="508" y="526" type="curve" smooth="yes"/>
			<point x="454" y="526"/>
			<point x="421" y="492"/>
			<point x="421" y="438" type="curve" smooth="yes"/>
			<point x="421" y="402"/>
			<point x="433" y="377"/>
			<point x="451" y="343" type="curve" smooth="yes"/>
			<point x="482" y="285" type="line"/>
			<point x="482" y="400" type="line"/>
			<point x="477" y="379"/>
			<point x="468" y="353"/>
			<point x="458" y="327" type="curve" smooth="yes"/>
			<point x="424" y="235"/>
			<point x="379" y="145"/>
			<point x="319" y="48" type="curve"/>
			<point x="334" y="48" type="line"/>
			<point x="328" y="182"/>
			<point x="310" y="325"/>
			<point x="297" y="405" type="curve" smooth="yes"/>
			<point x="284" y="485"/>
			<point x="250" y="526"/>
			<point x="172" y="526" type="curve" smooth="yes"/>
			<point x="102" y="526"/>
			<point x="51" y="482"/>
			<point x="10" y="438" type="curve"/>
			<point x="40" y="394" type="line"/>
			<point x="61" y="408"/>
			<point x="79" y="416"/>
			<point x="99" y="416" type="curve" smooth="yes"/>
			<point x="122" y="416"/>
			<point x="133" y="406"/>
			<point x="140" y="377" type="curve" smooth="yes"/>
			<point x="164" y="288"/>
			<point x="187" y="122"/>
		</contour>
		<contour>
			<point x="174" y="-198" type="line"/>
			<point x="323" y="-168" type="line"/>
			<point x="330" y="22" type="line"/>
			<point x="213" y="22" type="line"/>
			<point x="138" y="-168" type="line"/>
		</contour>
	</outline>
</glyph>
<glyph name="delta" format="2">
	<unicode hex="03B4"/>
	<advance width="583"/>
	<outline>
		<contour>
			<point x="258" y="-12" type="curve" smooth="yes"/>
			<point x="433" y="-12"/>
			<point x="541" y="109"/>
			<point x="541" y="264" type="curve" smooth="yes"/>
			<point x="541" y="355"/>
			<point x="492" y="432"/>
			<point x="406" y="503" type="curve" smooth="yes"/>
			<point x="336" y="561"/>
			<point x="315" y="575"/>
			<point x="315" y="613" type="curve" smooth="yes"/>
			<point x="315" y="652"/>
			<point x="342" y="684"/>
			<point x="402" y="684" type="curve" smooth="yes"/>
			<point x="434" y="684"/>
			<point x="455" y="679"/>
			<point x="471" y="674" type="curve"/>
			<point x="471" y="700" type="line"/>
			<point x="399" y="700" type="line"/>
			<point x="442" y="624" type="line" smooth="yes"/>
			<point x="464" y="586"/>
			<point x="487" y="572"/>
			<point x="520" y="572" type="curve" smooth="yes"/>
			<point x="553" y="572"/>
			<point x="575" y="593"/>
			<point x="582" y="630" type="curve"/>
			<point x="563" y="680"/>
			<point x="489" y="728"/>
			<point x="383" y="728" type="curve" smooth="yes"/>
			<point x="264" y="728"/>
			<point x="183" y="676"/>
			<point x="183" y="580" type="curve" smooth="yes"/>
			<point x="183" y="511"/>
			<point x="222" y="479"/>
			<point x="287" y="422" type="curve" smooth="yes"/>
			<point x="352" y="365"/>
			<point x="376" y="312"/>
			<point x="376" y="231" type="curve" smooth="yes"/>
			<point x="376" y="135"/>
			<point x="337" y="53"/>
			<point x="271" y="53" type="curve" smooth="yes"/>
			<point x="226" y="53"/>
			<point x="200" y="84"/>
			<point x="200" y="154" type="curve" smooth="yes"/>
			<point x="200" y="247"/>
			<point x="247" y="352"/>
			<point x="328" y="414" type="curve"/>
			<point x="283" y="448" type="line"/>
			<point x="283" y="407" type="line"/>
			<point x="149" y="391"/>
			<point x="37" y="330"/>
			<point x="37" y="179" type="curve" smooth="yes"/>
			<point x="37" y="54"/>
			<point x="124" y="-12"/>
		</contour>
	</outline>
</glyph>
<glyph name="epsilon" format="2">
	<unicode hex="03B5"/>
	<advance width="525"/>
	<outline>
		<contour>
			<point x="231" y="-12" type="curve" smooth="yes"/>
			<point x="355" y="-12"/>
			<point x="436" y="51"/>
			<point x="484" y="107" type="curve"/>
			<point x="452" y="150" type="line"/>
			<point x="404" y="116"/>
			<point x="361" y="92"/>
			<point x="290" y="92" type="curve" smooth="yes"/>
			<point x="230" y="92"/>
			<point x="190" y="110"/>
			<point x="190" y="155" type="curve" smooth="yes"/>
			<point x="190" y="199"/>
			<point x="227" y="235"/>
			<point x="320" y="235" type="curve" smooth="yes"/>
			<point x="345" y="235"/>
			<point x="368" y="234"/>
			<point x="377" y="233" type="curve"/>
			<point x="394" y="307" type="line"/>
			<point x="384" y="305"/>
			<point x="365" y="303"/>
			<point x="338" y="303" type="curve" smooth="yes"/>
			<point x="264" y="303"/>
			<point x="230" y="335"/>
			<point x="230" y="386" type="curve" smooth="yes"/>
			<point x="230" y="442"/>
			<point x="264" y="478"/>
			<point x="338" y="478" type="curve" smooth="yes"/>
			<point x="376" y="478"/>
			<point x="398" y="474"/>
			<point x="414" y="470" type="curve"/>
			<point x="414" y="498" type="line"/>
			<point x="322" y="498" type="line"/>
			<point x="349" y="458" type="line" smooth="yes"/>
			<point x="377" y="412"/>
			<point x="403" y="392"/>
			<point x="444" y="392" type="curve" smooth="yes"/>
			<point x="485" y="392"/>
			<point x="504" y="422"/>
			<point x="508" y="462" type="curve"/>
			<point x="486" y="492"/>
			<point x="416" y="526"/>
			<point x="313" y="526" type="curve" smooth="yes"/>
			<point x="170" y="526"/>
			<point x="87" y="474"/>
			<point x="87" y="386" type="curve" smooth="yes"/>
			<point x="87" y="308"/>
			<point x="157" y="273"/>
			<point x="259" y="273" type="curve"/>
			<point x="259" y="251" type="line"/>
			<point x="133" y="251"/>
			<point x="37" y="223"/>
			<point x="37" y="122" type="curve" smooth="yes"/>
			<point x="37" y="36"/>
			<point x="117" y="-12"/>
		</contour>
	</outline>
	<anchor name="aboveLC" x="308" y="534"/>
	<anchor name="belowLC" x="208" y="-20"/>
</glyph>
<glyph name="zeta" format="2">
	<unicode hex="03B6"/>
	<advance width="437"/>
	<outline>
		<contour>
			<point x="247" y="-187" type="curve"/>
			<point x="293" y="-209" type="line"/>
			<point x="357" y="-161"/>
			<point x="405" y="-101"/>
			<point x="405" y="-35" type="curve" smooth="yes"/>
			<point x="405" y="23"/>
			<point x="380" y="63"/>
			<point x="290" y="106" type="curve" smooth="yes"/>
			<point x="209" y="145"/>
			<point x="186" y="170"/>
			<point x="186" y="226" type="curve" smooth="yes"/>
			<point x="186" y="314"/>
			<point x="253" y="423"/>
			<point x="482" y="618" type="curve"/>
			<point x="497" y="716" type="line"/>
			<point x="139" y="728" type="line"/>
			<point x="120" y="612" type="line"/>
			<point x="404" y="624" type="line"/>
			<point x="404" y="605" type="line"/>
			<point x="118" y="399"/>
			<point x="41" y="296"/>
			<point x="41" y="174" type="curve" smooth="yes"/>
			<point x="41" y="80"/>
			<point x="100" y="39"/>
			<point x="179" y="1" type="curve" smooth="yes"/>
			<point x="258" y="-37"/>
			<point x="276" y="-63"/>
			<point x="276" y="-97" type="curve" smooth="yes"/>
			<point x="276" y="-129"/>
			<point x="267" y="-155"/>
		</contour>
	</outline>
</glyph>
<glyph name="eta" format="2">
	<unicode hex="03B7"/>
	<advance width="677"/>
	<outline>
		<contour>
			<point x="57" y="1" type="curve"/>
			<point x="91" y="-15" type="line"/>
			<point x="239" y="3" type="line"/>
			<point x="300" y="349" type="line"/>
			<point x="322" y="477"/>
			<point x="293" y="529"/>
			<point x="202" y="529" type="curve" smooth="yes"/>
			<point x="136" y="529"/>
			<point x="92" y="493"/>
			<point x="48" y="441" type="curve"/>
			<point x="71" y="399" type="line"/>
			<point x="87" y="410"/>
			<point x="100" y="418"/>
			<point x="114" y="418" type="curve" smooth="yes"/>
			<point x="150" y="418"/>
			<point x="144" y="370"/>
			<point x="133" y="327" type="curve" smooth="yes"/>
			<point x="101" y="187"/>
			<point x="85" y="117"/>
		</contour>
		<contour>
			<point x="346" y="-178" type="line"/>
			<point x="380" y="-194" type="line"/>
			<point x="521" y="-175" type="line"/>
			<point x="574" y="80" type="line" smooth="yes"/>
			<point x="628" y="341"/>
			<point x="632" y="376"/>
			<point x="632" y="417" type="curve" smooth="yes"/>
			<point x="632" y="479"/>
			<point x="605" y="529"/>
			<point x="521" y="529" type="curve" smooth="yes"/>
			<point x="428" y="529"/>
			<point x="374" y="466"/>
			<point x="326" y="392" type="curve"/>
			<point x="289" y="392" type="line"/>
			<point x="289" y="327" type="line"/>
			<point x="345" y="384"/>
			<point x="380" y="410"/>
			<point x="419" y="410" type="curve" smooth="yes"/>
			<point x="448" y="410"/>
			<point x="463" y="395"/>
			<point x="463" y="373" type="curve" smooth="yes"/>
			<point x="463" y="344"/>
			<point x="451" y="293"/>
			<point x="398" y="53" type="curve" smooth="yes"/>
		</contour>
	</outline>
	<anchor name="aboveLC" x="374" y="534"/>
	<anchor name="belowLC" x="137" y="-20"/>
</glyph>
<glyph name="theta" format="2">
	<unicode hex="03B8"/>
	<advance width="601"/>
	<outline>
		<contour>
			<point x="258" y="-16" type="curve" smooth="yes"/>
			<point x="471" y="-16"/>
			<point x="592" y="263"/>
			<point x="592" y="492" type="curve" smooth="yes"/>
			<point x="592" y="651"/>
			<point x="513" y="721"/>
			<point x="388" y="721" type="curve" smooth="yes"/>
			<point x="176" y="721"/>
			<point x="57" y="444"/>
			<point x="57" y="222" type="curve" smooth="yes"/>
			<point x="57" y="63"/>
			<point x="133" y="-16"/>
		</contour>
		<contour>
			<point x="266" y="52" type="curve" smooth="yes"/>
			<point x="223" y="52"/>
			<point x="207" y="89"/>
			<point x="207" y="188" type="curve" smooth="yes"/>
			<point x="207" y="361"/>
			<point x="280" y="653"/>
			<point x="381" y="653" type="curve" smooth="yes"/>
			<point x="425" y="653"/>
			<point x="441" y="626"/>
			<point x="441" y="527" type="curve" smooth="yes"/>
			<point x="441" y="354"/>
			<point x="368" y="52"/>
		</contour>
		<contour>
			<point x="189" y="326" type="line"/>
			<point x="458" y="326" type="line"/>
			<point x="458" y="396" type="line"/>
			<point x="189" y="396" type="line"/>
		</contour>
	</outline>
</glyph>
<glyph name="iota" format="2">
	<unicode hex="03B9"/>
	<advance width="363"/>
	<outline>
		<contour>
			<point x="187" y="-12" type="curve" smooth="yes"/>
			<point x="261" y="-12"/>
			<point x="304" y="19"/>
			<point x="340" y="63" type="curve"/>
			<point x="304" y="110" type="line"/>
			<point x="288" y="95"/>
			<point x="272" y="79"/>
			<point x="251" y="79" type="curve" smooth="yes"/>
			<point x="233" y="79"/>
			<point x="221" y="92"/>
			<point x="221" y="115" type="curve" smooth="yes"/>
			<point x="221" y="138"/>
			<point x="227" y="164"/>
			<point x="277" y="371" type="curve" smooth="yes"/>
			<point x="310" y="511" type="line"/>
			<point x="269" y="533" type="line"/>
			<point x="123" y="503" type="line"/>
			<point x="85" y="279" type="line" smooth="yes"/>
			<point x="74" y="215"/>
			<point x="64" y="146"/>
			<point x="64" y="109" type="curve" smooth="yes"/>
			<point x="64" y="29"/>
			<point x="114" y="-12"/>
		</contour>
	</outline>
	<anchor name="aboveLC" x="244" y="534"/>
</glyph>
<glyph name="kappa" format="2">
	<unicode hex="03BA"/>
	<advance width="646"/>
	<outline>
		<contour>
			<point x="52" y="1" type="curve"/>
			<point x="93" y="-15" type="line"/>
			<point x="237" y="12" type="line"/>
			<point x="288" y="309" type="line" smooth="yes"/>
			<point x="314" y="467"/>
			<point x="268" y="526"/>
			<point x="171" y="526" type="curve" smooth="yes"/>
			<point x="98" y="526"/>
			<point x="54" y="495"/>
			<point x="18" y="451" type="curve"/>
			<point x="55" y="403" type="line"/>
			<point x="70" y="419"/>
			<point x="86" y="432"/>
			<point x="107" y="432" type="curve" smooth="yes"/>
			<point x="154" y="432"/>
			<point x="140" y="377"/>
			<point x="118" y="283" type="curve" smooth="yes"/>
			<point x="98" y="194"/>
			<point x="80" y="117"/>
		</contour>
		<contour>
			<point x="486" y="-12" type="curve" smooth="yes"/>
			<point x="551" y="-12"/>
			<point x="595" y="14"/>
			<point x="637" y="54" type="curve"/>
			<point x="602" y="100" type="line"/>
			<point x="585" y="87"/>
			<point x="570" y="76"/>
			<point x="549" y="76" type="curve" smooth="yes"/>
			<point x="525" y="76"/>
			<point x="511" y="90"/>
			<point x="503" y="122" type="curve" smooth="yes"/>
			<point x="491" y="170" type="line" smooth="yes"/>
			<point x="472" y="246"/>
			<point x="416" y="263"/>
			<point x="321" y="269" type="curve" smooth="yes"/>
			<point x="286" y="271" type="line"/>
			<point x="286" y="283" type="line"/>
			<point x="495" y="350" type="line" smooth="yes"/>
			<point x="573" y="372"/>
			<point x="609" y="402"/>
			<point x="609" y="453" type="curve" smooth="yes"/>
			<point x="609" y="494"/>
			<point x="576" y="515"/>
			<point x="542" y="523" type="curve"/>
			<point x="262" y="284" type="line"/>
			<point x="262" y="253" type="line"/>
			<point x="274" y="251" type="line" smooth="yes"/>
			<point x="306" y="246"/>
			<point x="319" y="235"/>
			<point x="327" y="198" type="curve" smooth="yes"/>
			<point x="344" y="117" type="line" smooth="yes"/>
			<point x="363" y="23"/>
			<point x="406" y="-12"/>
		</contour>
	</outline>
</glyph>
<glyph name="lambda" format="2">
	<unicode hex="03BB"/>
	<advance width="615"/>
	<outline>
		<contour>
			<point x="47" y="-15" type="line"/>
			<point x="173" y="5" type="line"/>
			<point x="227" y="130"/>
			<point x="279" y="255"/>
			<point x="332" y="380" type="curve"/>
			<point x="370" y="380" type="line"/>
			<point x="368" y="573" type="line"/>
			<point x="249" y="386"/>
			<point x="133" y="208"/>
			<point x="14" y="21" type="curve"/>
		</contour>
		<contour>
			<point x="492" y="-12" type="curve" smooth="yes"/>
			<point x="549" y="-12"/>
			<point x="585" y="29"/>
			<point x="604" y="64" type="curve"/>
			<point x="582" y="116" type="line"/>
			<point x="570" y="111"/>
			<point x="554" y="105"/>
			<point x="529" y="105" type="curve" smooth="yes"/>
			<point x="477" y="105"/>
			<point x="448" y="127"/>
			<point x="434" y="239" type="curve" smooth="yes"/>
			<point x="394" y="571" type="line" smooth="yes"/>
			<point x="380" y="690"/>
			<point x="333" y="728"/>
			<point x="254" y="728" type="curve" smooth="yes"/>
			<point x="167" y="728"/>
			<point x="118" y="670"/>
			<point x="87" y="628" type="curve"/>
			<point x="117" y="584" type="line"/>
			<point x="141" y="599"/>
			<point x="173" y="604"/>
			<point x="212" y="604" type="curve" smooth="yes"/>
			<point x="280" y="604"/>
			<point x="328" y="585"/>
			<point x="341" y="479" type="curve" smooth="yes"/>
			<point x="381" y="144" type="line" smooth="yes"/>
			<point x="394" y="31"/>
			<point x="424" y="-12"/>
		</contour>
	</outline>
</glyph>
<glyph name="mu" format="2">
	<unicode hex="03BC"/>
	<unicode hex="00B5"/>
	<advance width="689"/>
	<outline>
		<contour>
			<point x="40" y="-194" type="line"/>
			<point x="185" y="-167" type="line"/>
			<point x="194" y="118" type="line"/>
			<point x="231" y="118" type="line"/>
			<point x="258" y="249"/>
			<point x="286" y="380"/>
			<point x="313" y="511" type="curve"/>
			<point x="269" y="527" type="line"/>
			<point x="124" y="500" type="line"/>
			<point x="81" y="110" type="line"/>
			<point x="-3" y="-178" type="line"/>
		</contour>
		<contour>
			<point x="301" y="-12" type="curve" smooth="yes"/>
			<point x="349" y="-12"/>
			<point x="373" y="28"/>
			<point x="399" y="132" type="curve"/>
			<point x="442" y="132" type="line"/>
			<point x="442" y="212" type="line"/>
			<point x="379" y="136"/>
			<point x="339" y="124"/>
			<point x="304" y="124" type="curve" smooth="yes"/>
			<point x="268" y="124"/>
			<point x="248" y="138"/>
			<point x="234" y="168" type="curve"/>
			<point x="226" y="118" type="line"/>
			<point x="234" y="23"/>
			<point x="252" y="-12"/>
		</contour>
		<contour>
			<point x="540" y="-12" type="curve" smooth="yes"/>
			<point x="602" y="-12"/>
			<point x="640" y="19"/>
			<point x="676" y="63" type="curve"/>
			<point x="639" y="110" type="line"/>
			<point x="624" y="95"/>
			<point x="608" y="79"/>
			<point x="586" y="79" type="curve" smooth="yes"/>
			<point x="568" y="79"/>
			<point x="556" y="92"/>
			<point x="556" y="116" type="curve" smooth="yes"/>
			<point x="556" y="139"/>
			<point x="564" y="169"/>
			<point x="575" y="215" type="curve" smooth="yes"/>
			<point x="645" y="505" type="line"/>
			<point x="604" y="527" type="line"/>
			<point x="459" y="497" type="line"/>
			<point x="410" y="151" type="line"/>
			<point x="432" y="151" type="line" smooth="yes"/>
			<point x="430" y="140"/>
			<point x="428" y="124"/>
			<point x="428" y="109" type="curve" smooth="yes"/>
			<point x="428" y="35"/>
			<point x="467" y="-12"/>
		</contour>
	</outline>
</glyph>
<glyph name="nu" format="2">
	<unicode hex="03BD"/>
	<advance width="573"/>
	<outline>
		<contour>
			<point x="158" y="0" type="curve"/>
			<point x="187" y="-15" type="line"/>
			<point x="302" y="-1" type="line"/>
			<point x="383" y="84"/>
			<point x="490" y="233"/>
			<point x="518" y="297" type="curve" smooth="yes"/>
			<point x="546" y="357"/>
			<point x="563" y="412"/>
			<point x="561" y="465" type="curve" smooth="yes"/>
			<point x="561" y="489"/>
			<point x="556" y="507"/>
			<point x="553" y="518" type="curve"/>
			<point x="542" y="523"/>
			<point x="522" y="529"/>
			<point x="497" y="529" type="curve" smooth="yes"/>
			<point x="443" y="529"/>
			<point x="410" y="495"/>
			<point x="412" y="441" type="curve" smooth="yes"/>
			<point x="412" y="405"/>
			<point x="429" y="373"/>
			<point x="446" y="346" type="curve" smooth="yes"/>
			<point x="476" y="298" type="line"/>
			<point x="481" y="403" type="line"/>
			<point x="476" y="382"/>
			<point x="469" y="356"/>
			<point x="459" y="330" type="curve" smooth="yes"/>
			<point x="429" y="248"/>
			<point x="379" y="168"/>
			<point x="322" y="89" type="curve"/>
			<point x="301" y="89" type="line"/>
			<point x="300" y="209"/>
			<point x="291" y="328"/>
			<point x="283" y="418" type="curve" smooth="yes"/>
			<point x="276" y="502"/>
			<point x="242" y="529"/>
			<point x="178" y="529" type="curve" smooth="yes"/>
			<point x="117" y="529"/>
			<point x="68" y="497"/>
			<point x="22" y="443" type="curve"/>
			<point x="45" y="401" type="line"/>
			<point x="61" y="412"/>
			<point x="81" y="417"/>
			<point x="93" y="417" type="curve" smooth="yes"/>
			<point x="111" y="417"/>
			<point x="121" y="406"/>
			<point x="126" y="372" type="curve" smooth="yes"/>
			<point x="138" y="289"/>
			<point x="152" y="137"/>
		</contour>
	</outline>
</glyph>
<glyph name="xi" format="2">
	<unicode hex="03BE"/>
	<advance width="457"/>
	<outline>
		<contour>
			<point x="286" y="-209" type="line"/>
			<point x="350" y="-161"/>
			<point x="398" y="-101"/>
			<point x="398" y="-35" type="curve" smooth="yes"/>
			<point x="398" y="29"/>
			<point x="370" y="66"/>
			<point x="289" y="105" type="curve" smooth="yes"/>
			<point x="208" y="144"/>
			<point x="182" y="166"/>
			<point x="182" y="209" type="curve" smooth="yes"/>
			<point x="182" y="265"/>
			<point x="227" y="314"/>
			<point x="318" y="314" type="curve" smooth="yes"/>
			<point x="405" y="314" type="line"/>
			<point x="424" y="411" type="line"/>
			<point x="412" y="409"/>
			<point x="396" y="407"/>
			<point x="370" y="407" type="curve" smooth="yes"/>
			<point x="297" y="407"/>
			<point x="257" y="441"/>
			<point x="257" y="499" type="curve" smooth="yes"/>
			<point x="257" y="567"/>
			<point x="306" y="622"/>
			<point x="476" y="626" type="curve"/>
			<point x="489" y="716" type="line"/>
			<point x="122" y="728" type="line"/>
			<point x="103" y="612" type="line"/>
			<point x="347" y="653" type="line"/>
			<point x="347" y="632" type="line"/>
			<point x="222" y="615"/>
			<point x="113" y="578"/>
			<point x="113" y="471" type="curve" smooth="yes"/>
			<point x="113" y="397"/>
			<point x="175" y="363"/>
			<point x="275" y="355" type="curve"/>
			<point x="275" y="337" type="line"/>
			<point x="134" y="329"/>
			<point x="40" y="278"/>
			<point x="40" y="167" type="curve" smooth="yes"/>
			<point x="40" y="79"/>
			<point x="98" y="38"/>
			<point x="175" y="1" type="curve" smooth="yes"/>
			<point x="251" y="-35"/>
			<point x="269" y="-63"/>
			<point x="269" y="-97" type="curve" smooth="yes"/>
			<point x="269" y="-129"/>
			<point x="260" y="-155"/>
			<point x="240" y="-187" type="curve"/>
		</contour>
	</outline>
</glyph>
<glyph name="omicron" format="2">
	<unicode hex="03BF"/>
	<advance width="621"/>
	<outline>
		<contour>
			<point x="262" y="-12" type="curve" smooth="yes"/>
			<point x="450" y="-12"/>
			<point x="582" y="150"/>
			<point x="582" y="324" type="curve" smooth="yes"/>
			<point x="582" y="454"/>
			<point x="493" y="526"/>
			<point x="360" y="526" type="curve" smooth="yes"/>
			<point x="171" y="526"/>
			<point x="39" y="364"/>
			<point x="39" y="190" type="curve" smooth="yes"/>
			<point x="39" y="60"/>
			<point x="129" y="-12"/>
		</contour>
		<contour>
			<point x="276" y="54" type="curve" smooth="yes"/>
			<point x="233" y="54"/>
			<point x="207" y="84"/>
			<point x="207" y="167" type="curve" smooth="yes"/>
			<point x="207" y="309"/>
			<point x="265" y="459"/>
			<point x="346" y="459" type="curve" smooth="yes"/>
			<point x="389" y="459"/>
			<point x="414" y="430"/>
			<point x="414" y="347" type="curve" smooth="yes"/>
			<point x="414" y="205"/>
			<point x="357" y="54"/>
		</contour>
	</outline>
	<anchor name="aboveLC" x="342" y="534"/>
</glyph>
<glyph name="pi" format="2">
	<unicode hex="03C0"/>
	<advance width="742"/>
	<outline>
		<contour>
			<point x="110" y="-15" type="curve" smooth="yes"/>
			<point x="173" y="-15"/>
			<point x="218" y="21"/>
			<point x="245" y="141" type="curve" smooth="yes"/>
			<point x="268" y="244"/>
			<point x="292" y="348"/>
			<point x="315" y="450" type="curve"/>
			<point x="255" y="450" type="line"/>
			<point x="223" y="327"/>
			<point x="190" y="205"/>
			<point x="157" y="82" type="curve"/>
			<point x="206" y="82" type="line"/>
			<point x="206" y="117" type="line"/>
			<point x="152" y="117"/>
			<point x="97" y="117"/>
			<point x="42" y="117" type="curve"/>
			<point x="35" y="104"/>
			<point x="29" y="82"/>
			<point x="29" y="61" type="curve" smooth="yes"/>
			<point x="29" y="17"/>
			<point x="58" y="-15"/>
		</contour>
		<contour>
			<point x="80" y="373" type="line"/>
			<point x="275" y="414" type="line"/>
			<point x="513" y="414" type="line"/>
			<point x="714" y="392" type="line"/>
			<point x="738" y="514" type="line"/>
			<point x="314" y="514" type="line" smooth="yes"/>
			<point x="190" y="514"/>
			<point x="109" y="474"/>
			<point x="61" y="436" type="curve"/>
		</contour>
		<contour>
			<point x="486" y="-12" type="curve" smooth="yes"/>
			<point x="561" y="-12"/>
			<point x="605" y="22"/>
			<point x="653" y="75" type="curve"/>
			<point x="612" y="118" type="line"/>
			<point x="589" y="95"/>
			<point x="573" y="79"/>
			<point x="550" y="79" type="curve" smooth="yes"/>
			<point x="529" y="79"/>
			<point x="517" y="92"/>
			<point x="517" y="117" type="curve" smooth="yes"/>
			<point x="517" y="141"/>
			<point x="522" y="178"/>
			<point x="565" y="467" type="curve"/>
			<point x="458" y="467" type="line"/>
			<point x="382" y="216"/>
			<point x="366" y="146"/>
			<point x="366" y="98" type="curve" smooth="yes"/>
			<point x="366" y="23"/>
			<point x="411" y="-12"/>
		</contour>
	</outline>
</glyph>
<glyph name="rho" format="2">
	<unicode hex="03C1"/>
	<advance width="622"/>
	<outline>
		<contour>
			<point x="16" y="-194" type="line"/>
			<point x="150" y="-178" type="line"/>
			<point x="178" y="81" type="line"/>
			<point x="206" y="81" type="line"/>
			<point x="256" y="336" type="line" smooth="yes"/>
			<point x="273" y="427"/>
			<point x="306" y="462"/>
			<point x="350" y="462" type="curve" smooth="yes"/>
			<point x="390" y="462"/>
			<point x="417" y="426"/>
			<point x="417" y="341" type="curve" smooth="yes"/>
			<point x="417" y="190"/>
			<point x="366" y="75"/>
			<point x="281" y="75" type="curve" smooth="yes"/>
			<point x="250" y="75"/>
			<point x="225" y="89"/>
			<point x="207" y="106" type="curve"/>
			<point x="190" y="94" type="line"/>
			<point x="204" y="22"/>
			<point x="249" y="-12"/>
			<point x="317" y="-12" type="curve" smooth="yes"/>
			<point x="432" y="-12"/>
			<point x="584" y="97"/>
			<point x="584" y="317" type="curve" smooth="yes"/>
			<point x="584" y="457"/>
			<point x="490" y="529"/>
			<point x="367" y="529" type="curve" smooth="yes"/>
			<point x="228" y="529"/>
			<point x="132" y="461"/>
			<point x="92" y="291" type="curve" smooth="yes"/>
			<point x="-19" y="-178" type="line"/>
		</contour>
	</outline>
	<anchor name="aboveLC" x="356" y="534"/>
</glyph>
<glyph name="sigma.end" format="2">
	<unicode hex="03C2"/>
	<advance width="517"/>
	<outline>
		<contour>
			<point x="251" y="-187" type="curve"/>
			<point x="297" y="-209" type="line"/>
			<point x="368" y="-155"/>
			<point x="410" y="-95"/>
			<point x="410" y="-22" type="curve" smooth="yes"/>
			<point x="410" y="41"/>
			<point x="380" y="82"/>
			<point x="289" y="125" type="curve" smooth="yes"/>
			<point x="205" y="166"/>
			<point x="181" y="206"/>
			<point x="181" y="278" type="curve" smooth="yes"/>
			<point x="181" y="382"/>
			<point x="241" y="458"/>
			<point x="338" y="490" type="curve"/>
			<point x="300" y="493" type="line"/>
			<point x="342" y="439" type="line" smooth="yes"/>
			<point x="369" y="403"/>
			<point x="393" y="387"/>
			<point x="430" y="387" type="curve" smooth="yes"/>
			<point x="474" y="387"/>
			<point x="500" y="421"/>
			<point x="502" y="463" type="curve"/>
			<point x="480" y="495"/>
			<point x="425" y="526"/>
			<point x="344" y="526" type="curve" smooth="yes"/>
			<point x="158" y="526"/>
			<point x="41" y="383"/>
			<point x="41" y="225" type="curve" smooth="yes"/>
			<point x="41" y="115"/>
			<point x="102" y="59"/>
			<point x="183" y="21" type="curve" smooth="yes"/>
			<point x="265" y="-18"/>
			<point x="281" y="-45"/>
			<point x="281" y="-85" type="curve" smooth="yes"/>
			<point x="281" y="-123"/>
			<point x="271" y="-150"/>
		</contour>
	</outline>
</glyph>
<glyph name="sigma" format="2">
	<unicode hex="03C3"/>
	<advance width="639"/>
	<outline>
		<contour>
			<point x="265" y="-12" type="curve" smooth="yes"/>
			<point x="450" y="-12"/>
			<point x="576" y="114"/>
			<point x="576" y="259" type="curve" smooth="yes"/>
			<point x="576" y="367"/>
			<point x="494" y="423"/>
			<point x="397" y="450" type="curve"/>
			<point x="357" y="441" type="line"/>
			<point x="388" y="417"/>
			<point x="409" y="372"/>
			<point x="409" y="309" type="curve" smooth="yes"/>
			<point x="409" y="181"/>
			<point x="357" y="54"/>
			<point x="276" y="54" type="curve" smooth="yes"/>
			<point x="233" y="54"/>
			<point x="207" y="84"/>
			<point x="207" y="159" type="curve" smooth="yes"/>
			<point x="207" y="298"/>
			<point x="286" y="420"/>
			<point x="397" y="441" type="curve"/>
			<point x="397" y="471" type="line"/>
			<point x="621" y="404" type="line"/>
			<point x="642" y="527" type="line"/>
			<point x="400" y="518" type="line" smooth="yes"/>
			<point x="178" y="510"/>
			<point x="39" y="367"/>
			<point x="39" y="192" type="curve" smooth="yes"/>
			<point x="39" y="60"/>
			<point x="131" y="-12"/>
		</contour>
	</outline>
</glyph>
<glyph name="tau" format="2">
	<unicode hex="03C4"/>
	<advance width="505"/>
	<outline>
		<contour>
			<point x="34" y="374" type="line"/>
			<point x="237" y="399" type="line"/>
			<point x="289" y="399" type="line"/>
			<point x="509" y="385" type="line"/>
			<point x="529" y="521" type="line"/>
			<point x="281" y="521" type="line" smooth="yes"/>
			<point x="163" y="521"/>
			<point x="90" y="495"/>
			<point x="28" y="443" type="curve"/>
		</contour>
		<contour>
			<point x="255" y="-15" type="curve" smooth="yes"/>
			<point x="338" y="-15"/>
			<point x="373" y="19"/>
			<point x="421" y="73" type="curve"/>
			<point x="386" y="114" type="line"/>
			<point x="362" y="91"/>
			<point x="352" y="82"/>
			<point x="330" y="82" type="curve" smooth="yes"/>
			<point x="314" y="82"/>
			<point x="299" y="93"/>
			<point x="299" y="119" type="curve" smooth="yes"/>
			<point x="299" y="144"/>
			<point x="305" y="189"/>
			<point x="354" y="467" type="curve"/>
			<point x="232" y="467" type="line"/>
			<point x="159" y="215"/>
			<point x="139" y="146"/>
			<point x="139" y="93" type="curve" smooth="yes"/>
			<point x="139" y="19"/>
			<point x="175" y="-15"/>
		</contour>
	</outline>
</glyph>
